<?xml version="1.0" standalone="no"?>
<!DOCTYPE svg PUBLIC "-//W3C//DTD SVG 1.1//EN" "http://www.w3.org/Graphics/SVG/1.1/DTD/svg11.dtd" >
<svg xmlns="http://www.w3.org/2000/svg" xmlns:xlink="http://www.w3.org/1999/xlink" version="1.1">
<metadata></metadata>
<defs>
<font id="brushy_creregular" horiz-adv-x="1226" >
<font-face units-per-em="2048" ascent="1536" descent="-512" />
<missing-glyph horiz-adv-x="716" />
<glyph horiz-adv-x="0" />
<glyph unicode="&#xd;" horiz-adv-x="716" />
<glyph unicode=" "  horiz-adv-x="716" />
<glyph unicode="&#x09;" horiz-adv-x="716" />
<glyph unicode="&#xa0;" horiz-adv-x="716" />
<glyph unicode="!" horiz-adv-x="514" d="M86 264q-23 -16 -39 -42.5t-22 -55.5q-10 10 -15.5 27.5t2.5 35.5q23 47 62 74q16 14 35.5 21.5t35.5 11.5q2 -4 3.5 -10.5t3.5 -10.5q43 16 87 5t78 -52q8 -10 15.5 -21t11.5 -24l6 -24l2 -6v-3v-2v-2q0 -2 2 -4v-2v-12q0 -14 -2 -29.5t-10 -32.5q-12 -33 -39 -55 q6 2 6 -1t2 -7q27 20 47 57q8 16 11.5 34t3.5 34q0 8 -2 12v2v2q-2 10 -1 7t1 -1v3l-2 2v8q-2 6 -4.5 12t-4.5 12q-12 27 -30 49q-37 39 -84 54q-43 14 -94 8q39 6 74.5 1t72.5 -28q37 -25 61 -65q4 -10 8.5 -21.5t8.5 -21.5v-4l2 -4v-2q2 -12 1 -8.5t1 -0.5v-12v-25 q-2 -27 -18.5 -57.5t-38.5 -46.5q-23 -18 -43.5 -26.5t-40.5 -12.5q-39 -6 -72 2q-18 4 -38.5 11.5t-43.5 25.5q-6 4 -19.5 19.5t-19.5 27.5q-4 16 -5 31.5t-1 30.5l-4 2q2 4 2 6t2 6q6 29 21.5 56.5t37.5 43.5q49 33 101 27q16 -4 32.5 -10.5t34.5 -16.5q16 -10 30.5 -25.5 t23.5 -33.5q-8 23 -24.5 42t-37.5 30q-20 10 -39.5 14t-42.5 4q-23 -2 -46 -9.5t-46 -23.5zM195 156l-2 2l2 -2v0zM201 150v2q0 2 2 2v2q-2 -2 -2 -6zM236 131l-3 2l3 -2l2 -2l-2 2v0zM340 1710q6 -41 6 -86t-3 -93t-6 -97.5t-1 -98.5v-138.5t-10 -137.5 q-14 -96 -16.5 -195.5t-12.5 -193.5q0 -16 2 -38t5 -42.5t4 -39t-3 -26.5q-4 -12 -12 -15t-19 -3q-12 111 -12 223q2 70 6 137.5t15 137.5q-25 -131 -21 -275q-2 -55 -2 -111.5t4 -111.5q-10 2 -18 2t-17 -4q0 -6 2 -15q2 -6 2 -11t3 -9q-4 -6 -5.5 -11t-5.5 -9 q-16 -23 -38.5 -22t-43.5 15q-14 8 -20 19v18q2 84 -3 166t3 172q6 61 5 129t1 131q-10 -147 -11 -297.5t-12 -302.5q-27 27 -32 68q0 51 -1 100t1 96h20q-8 68 -5 133.5t8 130t8.5 129t-5.5 130.5q-4 -4 -12 0q0 -131 -5 -256t-9 -258q2 207 4 404.5t12 401.5q0 10 1 23.5 t1 24.5q27 66 27 137q10 -4 24.5 -1t26.5 1t18.5 -13.5t1.5 -46.5q4 0 10.5 -1t10.5 -1q4 6 5 12.5t5 12.5q27 55 66 63.5t53 -57.5z" />
<glyph unicode="&#x22;" horiz-adv-x="716" d="M63 1620q10 -2 23.5 -1t26 0t19.5 -5t3 -19q4 -2 10.5 -2h10.5l10 11q12 12 29.5 19t35 8t31.5 -5t23 -20q14 -37 5 -79t-3 -81q2 -29 3 -55.5t-7 -53.5q-14 -37 -13.5 -72.5t-9.5 -70.5q-2 -14 8.5 -27.5t-0.5 -21.5q-6 -8 -28 -17q-14 41 -17 82q2 27 5 52.5t12 52.5 q-20 -47 -17 -105q0 -43 6 -86q-14 -2 -32 -10q0 -4 2 -6l4 -8q-4 -4 -5 -6t-5 -4q-31 -31 -76 -31q-4 2 -9.5 2t-11.5 2v8q-2 41 -9 80t-3 80q4 29 2 57.5t-2 54.5q-8 -63 -5 -131.5t1 -146.5q-10 4 -19.5 10t-13.5 17q-4 27 -6 51t-4 47q4 0 11 1t11 1q-10 31 -9 60.5 t4 59t5 57.5t-6 56q-6 -4 -12 0q2 -57 -1 -112.5t-3 -118.5q-4 98 -3 184t5 170v19q24 22 24 53zM434 1620q10 -2 23.5 -1t26 0t19.5 -5t3 -19q4 -2 10 -2h10l11 11q12 12 29.5 19t34.5 8t31.5 -5t22.5 -20q14 -37 5 -79t-3 -81q2 -29 3.5 -55.5t-7.5 -53.5 q-14 -37 -13 -72.5t-9 -70.5q-2 -14 8 -27.5t0 -21.5q-6 -8 -29 -17q-14 41 -16 82q2 27 5 52.5t11 52.5q-20 -47 -16 -105q0 -43 6 -86q-14 -2 -33 -10q0 -4 2 -6l4 -8q-4 -4 -5 -6t-5 -4q-31 -31 -76 -31q-4 2 -9 2t-11 2v8q-2 41 -9 80t-3 80q4 29 2 57.5t-2 54.5 q-8 -63 -5 -131.5t1 -146.5q-10 4 -19.5 10t-13.5 17q-4 27 -6 51t-4 47q4 0 11 1t11 1q-10 31 -9 60.5t4 59t5 57.5t-6 56q-6 -4 -12 0q2 -57 -1 -112.5t-3 -118.5q-4 98 -3 184t5 170v19q24 22 24 53z" />
<glyph unicode="#" horiz-adv-x="1556" d="M1393 358q25 -12 41 -29.5t19 -33.5t-9 -31.5t-41 -21.5q-37 -8 -79 -8.5t-86 2t-89 4.5t-88 0h-109q-31 -66 -60.5 -131.5t-60.5 -124.5q-12 -25 -22 -57.5t-19.5 -63.5t-17.5 -56.5t-16 -35.5q-18 -27 -39 -13q23 82 52.5 163t64.5 163q-35 -80 -68 -160t-57 -160 q-8 4 -15.5 8.5t-17.5 0.5l-4 -21l-4 -16t-4 -15q-4 -8 -8.5 -14t-8.5 -10q-20 -20 -37 -21q-27 4 -43 43q-8 18 -10 37q2 8 4 14.5t4 14.5q23 63 45.5 121.5t44.5 118.5q23 53 44.5 106t48.5 109h-5q-4 -6 -6 -13.5t-6 -13.5q-47 -106 -93 -209.5t-89 -214.5q-4 27 -3 55.5 t11 59.5q29 72 56.5 140.5t56.5 135.5q4 -2 10 -4t10 -4l25 68h-19q-6 -12 -11 -24.5t-11 -25.5q6 12 11 24.5t11 25.5q-39 2 -70.5 3t-47.5 3q-39 6 -78 8t-80 4q-33 -72 -64.5 -140.5t-64.5 -133.5q-12 -25 -22.5 -57.5t-19.5 -63.5t-17.5 -56.5t-16.5 -35.5 q-18 -27 -39 -13q23 82 53.5 163t63.5 163q-35 -80 -67.5 -160t-57.5 -160q-8 4 -15.5 8.5t-17.5 0.5l-4 -21l-4 -16t-4 -15q-4 -8 -8 -14t-9 -10q-20 -20 -36 -21q-27 4 -43 43q-2 8 -5.5 17.5t-5.5 19.5q2 8 4.5 14.5t6.5 14.5q23 63 44 121.5t44 118.5q23 59 48 118.5 t54 118.5h-4q-6 -12 -11 -24.5t-12 -24.5q-47 -106 -93 -209.5t-87 -214.5q-4 27 -4 55.5t10 59.5q29 72 56.5 140.5t56.5 135.5q12 -4 21 -8q8 23 15 43.5t15 40.5q-4 -2 -9 -2t-9 -2q-8 -16 -14.5 -30.5t-14.5 -31.5q8 16 14.5 31t12.5 31q-18 -4 -33.5 -6t-24.5 2 q-12 4 -15 11t-5 17q23 4 47.5 8.5t48.5 6.5q0 4 2 6q-25 -2 -49.5 -4t-48.5 -6q0 10 -1 18t-5 17q-6 0 -13 -3q-4 -2 -9 -3t-9 -3l-18 11q-23 14 -24 35.5t9 43.5l15 23h18q49 4 97 8t100 8q0 2 1 2t1 2q-51 -2 -101.5 -2t-101.5 -2q10 12 25.5 21.5t35.5 13.5q80 8 160 12 q18 45 36.5 88.5t37.5 86.5q-29 2 -58.5 2t-58.5 2q-16 0 -34.5 -3t-37 -7.5t-34 -6.5t-23.5 2q-18 6 -18 29q98 18 198 25q41 4 84 0q0 2 2 4q-23 0 -43 -1t-43 -3q-51 0 -100 -4.5t-98 -10.5q0 10 -1 18.5t-5 16.5l-13 -4q-12 -4 -18 -4q-10 2 -19 10q-23 14 -23.5 35.5 t9.5 42.5q8 16 14 22l17 2q78 4 152.5 13.5t158.5 5.5q16 -2 33.5 -2t36.5 -2l4 8q-98 2 -194.5 -1t-194.5 -5q29 29 61 35q90 8 180 12q2 -4 2 -10v-11q31 6 71 8.5t87 2.5l6 12h-87t-70 -2q35 2 74.5 3t82.5 1q31 72 63.5 147.5t69.5 159.5q6 12 14.5 33t14.5 33 q33 43 57.5 91t40.5 95q8 -10 23.5 -10t26 -6t10.5 -24.5t-23 -67.5q8 -4 21 -9q4 10 10 17.5t10 13.5q25 33 47.5 52.5t40.5 23.5q25 6 31 -18q10 -29 -2 -82q-14 -63 -31.5 -111.5t-38 -94.5t-43 -97.5t-49.5 -120.5q-6 -10 -8 -23h130t126 -2q31 72 63.5 146.5 t69.5 160.5q6 12 14.5 33t14.5 33q33 43 57.5 91t40.5 95q6 -10 21.5 -10t26.5 -6t11 -24.5t-22 -67.5q8 -4 20 -9q4 10 10.5 17.5t10.5 13.5q25 33 47 52.5t41 23.5q20 6 31 -18q10 -29 -2 -82q-16 -63 -34 -111.5t-37.5 -94.5t-42 -97.5t-48.5 -120.5l-13 -31h17.5 t15.5 -2q31 -12 61.5 -17.5t61.5 -7.5q-4 -10 -1 -23.5t3 -25.5t-11 -18t-42 -2q-2 -4 -2 -11.5v-11.5q12 -2 22 -10q25 -12 41.5 -29.5t18.5 -35t-9.5 -32t-41.5 -22.5q-53 -10 -113.5 -7t-126.5 7q-14 -29 -27.5 -58.5t-29.5 -58.5q-4 -8 -10.5 -17t-10.5 -19 q53 0 99.5 -1.5t87.5 -3.5h20t20 -2q31 -12 63 -17t62 -7q-4 -10 -1 -23.5t2 -26t-12 -18.5t-42 -2v-22q9 -3 21 -11zM315 489q-2 -4 -3 -8t-5 -8h8l7 19q-2 0 -3.5 -1.5t-3.5 -1.5zM297 449q0 -2 -1 -2.5t-1 -2.5h8v5h-6zM322 492q16 35 30.5 69.5t28.5 67.5 q-16 -35 -32.5 -69t-33.5 -68h7zM553 528q-4 -8 -9 -16t-9 -16h270q16 39 31.5 75.5t31.5 71.5q-70 0 -139.5 1t-116.5 3q-14 -29 -28.5 -58.5t-30.5 -60.5zM813 496h14q18 37 37 73.5t35 73.5h-18zM922 629q-16 -35 -32 -67t-32 -66h6q16 35 30 67.5t28 65.5zM995 905 q-2 -2 -2 -3t-2 -3h13q2 2 2 4q-4 -6 -6.5 -3t-4.5 5zM973 891q-47 0 -113.5 1t-142.5 1q-2 -4 -6 -16q76 -2 142.5 -2.5t115.5 4.5q4 8 4 12zM461 899h4v4zM455 905q-2 -2 -2 -6h6q-2 2 -2 3t-2 3zM451 897l-7 -12h15q2 4 2 6t2 6h-12zM432 854l-4 -8q12 0 16 2q2 2 2 3 t3 3h-17zM369 709l-2 -2h20l2 2h-20zM348 664q-20 -43 -38.5 -87.5t-39.5 -87.5h13v-4l86 179h-21zM250 446l-2 -4q4 0 7 1t7 1l2 2h-14zM180 293q10 0 15 2q2 0 2 4q-4 0 -7.5 -1t-7.5 -1q-2 -2 -2 -4zM229 297q4 0 7 2l2 2h-9v-4zM438 297q23 -2 45.5 -3t44.5 -5 q-43 8 -88 12q0 -2 -1 -2t-1 -2zM508 442q23 2 43 2h41q-20 2 -41 2t-41 3q0 -2 -1 -3.5t-1 -3.5zM526 479q66 -2 134.5 -5t134.5 -5l6 18q-63 2 -133 2h-136q-2 -2 -6 -10zM815 469q2 4 4 9t4 9h-14q-2 -4 -4 -9t-4 -9h14zM854 487q-4 -12 -8 -18h8l6 18h-6z" />
<glyph unicode="$" horiz-adv-x="1257" d="M750 1763q6 -33 9 -66.5t5 -70.5q35 -14 67.5 -29.5t65.5 -35.5q53 -33 104.5 -74t92.5 -109q-10 6 -14.5 2t-8.5 -11l-8 -14t-10 -7q-12 -2 -41 28q-16 16 -44 42t-75 57q-2 -4 -5 -9.5t-5 -9.5q35 -27 53 -49q43 -49 51 -88q8 -33 1 -51.5t-17 -22.5q-12 -8 -21 -6 l-8 8q-4 0 -8 4q-10 4 -19.5 15.5t-37.5 33.5q-20 16 -48 33t-61 33q0 -47 2 -95t6 -95q4 -78 7 -155t3 -155q25 -16 49.5 -31.5t49.5 -33.5q25 -16 48 -33.5t48 -38.5q25 -23 49 -49q8 -8 12 -14l5 -4l-3 2l3 -2l4 -7q6 -6 11 -13t9 -13q27 -37 49.5 -79t38.5 -91 t18.5 -105.5t-12.5 -109.5q-14 -55 -43.5 -102.5t-66.5 -82.5q-37 -37 -79 -63.5t-85 -42.5q-39 -16 -78 -26.5t-80 -16.5q-4 -37 -12 -51q-8 -18 -16.5 -21.5t-18.5 0.5q2 16 3 33.5t3 36.5q-2 -2 -8 -2q-2 -16 -3 -31.5t-5 -32.5q-8 4 -16.5 7.5t-16.5 -1.5q0 -2 -2 -21.5 t-4 -33.5q-6 -16 -16 -26q-23 -29 -43.5 -18t-34.5 36q-4 6 -8.5 14t-8.5 17q2 10 6 26q4 18 6.5 36t6.5 36q-4 0 -7 1t-8 1q-4 -18 -7 -35.5t-7 -36.5q-14 37 -16 78q-78 18 -153 55t-134 93q-47 41 -97 105.5t-81 133.5q-33 68 -47.5 127.5t-14.5 89.5q-2 41 6.5 49.5 t18.5 4.5q14 -92 43 -181.5t80 -171.5q53 -80 130 -142t169 -95q20 -6 39.5 -13.5t42.5 -11.5v2q-20 4 -41 10.5t-41 12.5q-92 33 -168 95t-125 144q-51 80 -77.5 167t-41.5 177q25 -14 35 2q-2 20 -6 41q-4 16 -6 34t-2 32q2 29 10 55q10 45 31 45q14 0 26.5 -16t24.5 -41 q4 -12 10 -25.5t12 -29.5q0 -12 1 -24.5t1 -24.5q10 -111 48 -213.5t110 -178.5q70 -72 178 -110q10 -2 17.5 -4t17.5 -6v4q-72 18 -133 57t-102 96q-55 74 -83 166t-34 191q16 -37 31.5 -80t33.5 -90q35 -115 109 -192t182 -105q2 23 3 42t1 40h23q-4 121 1 236.5t9 232.5 l-8 4t-8 6q0 -117 -4.5 -232.5t-12.5 -236.5q6 121 8.5 237.5t-0.5 235.5q-23 16 -46 30.5t-48 30.5q-66 45 -131 97.5t-125 130.5q-29 41 -52.5 91t-31.5 109q-6 59 9.5 116.5t37.5 100.5q25 47 62 89.5t84 72.5q90 57 196 70q8 2 17.5 2t19.5 2q4 35 5 66.5t-1 66.5 q10 -6 24.5 -1t27 4t18.5 -19.5t4 -73.5h23q4 25 8 37q12 45 28.5 72.5t34 32.5t32 -15.5t22.5 -69.5zM395 1147q25 -29 58.5 -57.5t72.5 -57.5q-4 92 -6 185.5t-4 189.5q-6 -2 -13 -2t-14 -2q-47 -12 -78.5 -38t-52.5 -73q-10 -20 -11 -36.5t3 -32.5q10 -39 45 -76z M418 805q29 -18 57.5 -36.5t56.5 -37.5v19q-29 16 -55 32.5t-55 34.5q10 -10 5 -10t-9 -2zM584 700l2 -2v21h-2v-19zM535 1026q4 -2 7 -4t7 -4q-2 6 -2 12t-2 12q-2 -8 -4 -6t-6 4v-14zM541 727q4 -4 8 -5t8 -5v18q-4 2 -16 10v-18zM551 -43q-4 2 -12 2q4 -2 12 -2zM563 102 h-6v-2q4 0 6 -2v4zM565 145q-2 0 -4 2q0 -6 -1 -11t-1 -9h6v18zM578 350q10 80 10 167t-2 171l-2 2q-4 -135 -7.5 -271t-15.5 -272q2 0 2 -1t2 -1q4 49 6.5 100.5t6.5 104.5zM696 -47h-6v-2h6v2zM739 625q-2 -6 -2 -21q0 4 1 10.5t1 10.5zM707 100l-2 -2q-2 0 -3 -4h3h2v6z M709 143h-2v-14h2v14zM711 203q8 98 13 195.5t13 195.5h-2q-8 -96 -13 -193.5t-11 -197.5q0 -16 -1 -29.5t-3 -28.5h2q0 14 1 28t1 30zM1083 158q-39 -57 -90 -95t-106 -63q-74 -31 -152 -43v-2q74 8 148 41q57 23 108 60.5t90 95.5q41 57 53.5 128.5t-4.5 139.5 q16 -66 3 -136.5t-50 -125.5zM977 397q-12 39 -34.5 74t-51.5 66q35 -39 57.5 -80t30.5 -82q18 -84 -35 -154q-53 -68 -149 -100q-12 -4 -25.5 -8t-28.5 -9v-2v-2q59 8 121 41q35 20 63.5 48t45.5 63q33 67 6 145zM774 580q10 -10 21.5 -17.5t21.5 -15.5q8 -6 15.5 -13.5 l13.5 -13.5q4 -4 6 -5t4 -5l4 -4l4 -4l6 -8q25 -29 42.5 -61t23.5 -60q14 -59 -12 -105q-27 -51 -90 -84q-37 -23 -86 -34q0 -8 -3 -13q23 4 44.5 12.5t39.5 18.5q72 35 103 88q33 55 20 115q-6 33 -23.5 65.5t-41.5 65.5q-4 4 -7 8t-8 8l-12 12q-6 8 -13 14.5t-16 12.5 q-12 10 -26 21.5t-31 21.5v-20zM774 569q-4 -104 -9 -208.5t-17 -206.5q20 4 28 8q53 18 94 51t56 70q14 39 6 79q-8 45 -43 95q-8 10 -17.5 22.5t-19.5 24.5q-8 8 -18.5 17t-22.5 20q-10 8 -18.5 14t-18.5 14z" />
<glyph unicode="%" horiz-adv-x="1800" d="M1430 1552q-27 -59 -65 -118.5t-80 -122t-86 -126t-81 -126.5q-59 -92 -117.5 -181.5t-123.5 -175.5q-92 -117 -179.5 -246.5t-175.5 -246.5q-16 -23 -31.5 -52.5t-30 -58t-26.5 -52t-22 -32.5q-14 -14 -22.5 -14t-16.5 8q35 76 79 152t91 147q-47 -72 -93.5 -144.5 t-84.5 -148.5q-8 6 -14.5 12.5t-16.5 4.5q-4 -10 -8 -19q-4 -8 -7.5 -16t-5.5 -14q-6 -6 -12 -11.5t-10 -9.5q-20 -18 -39 -14q-12 4 -21.5 17t-13.5 32q-4 20 -4 39q4 6 7 12t7 12q33 59 65 113.5t64 108.5q35 53 70 108t76 111q57 78 112.5 165t108.5 164 q-66 -92 -129.5 -185t-128.5 -191q-66 -96 -129.5 -189.5t-122.5 -195.5q0 27 5 55.5t22 56.5q41 66 79.5 128.5t77.5 123.5q4 -4 9.5 -7t9.5 -5q49 90 105.5 172t114.5 162t113.5 160.5t104.5 170.5q-6 -4 -7 -1t-3 6q-109 -168 -217.5 -325t-223.5 -325q174 264 341 515 t343 515q8 10 19.5 30t19.5 30q41 37 73 79t56 87q6 -10 20.5 -13.5t25 -10.5t6.5 -26.5t-35 -62.5l10 -5l10 -5q6 6 12.5 13t12.5 13q63 55 100 60q23 0 29 -25q4 -31 -16 -82zM600 993q-80 -33 -154.5 -31.5t-146.5 21.5q-70 18 -139 61q-33 23 -63.5 52.5t-55.5 70.5 q-8 12 -18.5 37t-14.5 41q-6 70 8.5 128.5t36.5 105.5q8 -10 22.5 -12.5t24.5 -8.5t11 -22q0 -10 -4.5 -22.5t-12.5 -35.5q4 -2 11.5 -3t11.5 -3q4 8 7 14.5t7 10.5q20 25 42 33t38 4q20 -4 28.5 -22.5t8.5 -43.5q-2 -14 -1 -24.5t3 -18.5t4 -16.5t8 -18.5q12 -20 43 -40.5 t70 -24.5q27 -6 53.5 -6t48.5 4q23 4 35 10l20 10q2 0 3.5 1t3.5 1q0 2 1 2t1 2l2 2q0 2 2 4l12 31q6 27 0 43q-4 18 -31.5 43t-68.5 45q-16 8 -37 11.5t-42.5 5.5t-38.5 4t-26 8q-12 6 -14 15t0 20q59 -4 117.5 -15.5t105.5 -38.5q29 -16 48.5 -37.5t25.5 -43.5 q12 -41 -14 -97q31 53 16 97q-6 23 -26.5 44t-49.5 37q-47 29 -104.5 43.5t-116.5 20.5q8 18 2 33h-39q-12 2 -22 10q-23 18 -21 39.5t21 42.5q6 4 12 9t14 11q4 -2 10.5 -2t12.5 -2q104 -10 203 -39q49 -16 101 -43.5t93 -81.5q29 -37 45.5 -88t9.5 -100q-2 -25 -7 -46.5 t-11 -43.5q-8 -23 -20.5 -45.5t-28.5 -38.5q10 10 18 21.5t17 25.5l12 25q4 6 5 12t5 12q8 23 13.5 50.5t5.5 56.5t-6.5 57.5t-20.5 56.5q-27 51 -74 88q-41 35 -86 57.5t-90 39.5q-47 16 -92 25t-92 18q18 10 41.5 16t50.5 2q66 -12 127 -31.5t125 -58.5q-4 -4 -7 -9t-5 -9 q43 -23 82.5 -62t60.5 -96q20 -57 14 -112.5t-22 -98.5q-2 -4 -4 -10t-4 -11l-13 -26q-6 -12 -14 -23.5t-18 -21.5q-35 -41 -87 -68q-47 -25 -94 -35t-94 -14q6 -4 4 -6t-4 -6q47 0 97.5 9t99.5 34q25 14 47 31.5t43 39.5q10 10 17 23.5t16 26.5q4 6 6 13t6 13q4 10 8 23 q16 43 22.5 98t-12.5 115q-18 59 -57 103t-80 73q35 -23 65.5 -53.5t53.5 -71.5q23 -43 31 -91t4 -89q-6 -43 -19 -80q-4 -10 -6 -18.5t-6 -18.5q-6 -12 -11 -22.5t-14 -20.5q-27 -41 -63.5 -70t-77.5 -45zM1356 92q-66 12 -127.5 31.5t-124.5 58.5q4 4 6 9.5t6 9.5 q-43 23 -83 62.5t-60 96.5t-14 111.5t22 97.5q2 6 4 11.5t4 9.5q4 10 12 26q6 12 14.5 24.5t18.5 23.5q37 43 86 67q47 25 94.5 35t94.5 14q-6 2 -5 4t3 7q-47 0 -96.5 -9.5t-98.5 -33.5q-49 -25 -90 -72q-16 -18 -33 -49q-8 -16 -12 -27q-6 -10 -8 -22q-16 -43 -22.5 -98.5 t11.5 -114.5t57.5 -103.5t80.5 -73.5q-35 23 -66 53.5t-53 73.5q-25 41 -32 89.5t-3 91.5q4 23 8 41l8 36q4 10 7.5 18.5t7.5 20.5q8 20 22 41q29 41 66 71t78 46q80 31 154.5 30t146.5 -22q72 -18 139 -61q33 -23 63.5 -51.5t55.5 -69.5q8 -14 18 -39t15 -41 q6 -68 -8.5 -127t-36.5 -106q-8 10 -22.5 12t-25.5 8q-10 6 -10 23q0 14 17 59q-10 0 -23 4l-7 -14t-7 -10q-20 -25 -42 -33t-38 -4q-23 4 -30 23.5t-7 41.5q2 14 1 24.5t-3 18.5q-2 10 -4 17.5t-8 17.5q-12 20 -44 40.5t-69 27.5q-57 10 -102 0q-23 -4 -35.5 -9.5 t-20.5 -9.5q-2 -2 -3 -2t-3 -2q0 -2 -2 -2l-2 -2q0 -4 -2 -6q-8 -14 -12 -29q-6 -29 0 -45q4 -18 31.5 -42.5t68.5 -45.5q14 -8 35.5 -11t43 -5t39 -4t25.5 -9q12 -6 14.5 -14t0.5 -18q-59 2 -117.5 14t-105.5 39q-61 35 -74 82q-12 43 14 96q-29 -55 -18 -98q16 -47 78 -80 q47 -29 104 -44.5t117 -19.5q-8 -23 -2 -34h14h13t12 2q16 -8 22 -13q23 -16 21 -38.5t-21 -43.5q-6 -4 -12 -9t-15 -9q-14 0 -22 2q-53 6 -102.5 14.5t-100.5 24.5q-49 16 -101 44t-95 81q-29 39 -44.5 90t-9.5 98q2 25 7.5 47.5t11.5 42.5q8 23 20.5 45.5t28.5 38.5 q-18 -18 -35 -45q-4 -6 -6 -13t-6 -13t-5 -12.5t-5 -12.5q-8 -23 -13.5 -49.5t-5.5 -54.5q0 -63 27 -115q14 -29 32.5 -51.5t38.5 -38.5q43 -35 88.5 -56.5t90.5 -37.5q94 -31 184 -43q-18 -10 -41.5 -17.5t-50.5 -3.5z" />
<glyph unicode="&#x26;" horiz-adv-x="1576" d="M31 465q27 61 59.5 110.5t67.5 96.5q31 41 62.5 77.5t64.5 73.5q-23 37 -41.5 77t-34.5 81q-10 23 -21 57q-2 8 -4 14.5t-4 14.5q-2 10 -4 17.5t-4 17.5q-12 70 -6 141q16 139 96 252q57 84 146 135q90 57 200 64q53 4 105.5 -6.5t99.5 -30.5q6 -4 11 -6t12 -4l2 -2h2 q2 -2 0 -1t4 -2v-2l6 -2q4 -2 6 -4t6 -4l25.5 -17t25.5 -20q25 -23 45.5 -55.5t30.5 -71.5t9 -73.5t-7 -63.5t-15 -53.5t-20 -46.5q-23 -43 -46 -78t-48 -68q-51 -66 -102 -122t-105 -109q-12 -10 -24.5 -22.5l-24.5 -24.5q18 -20 37 -41t39 -41l29.5 -29.5l36 -36t37 -35 t32.5 -28.5q49 -51 102.5 -98t110.5 -95q12 14 23.5 28.5t21.5 31.5q51 70 85 133t57 92q27 45 38 49t15 -6q-41 -96 -93.5 -185t-117.5 -165l4 -4q66 74 118 161t95 179q4 -10 10 -18.5t21 1.5q10 27 20 52q10 23 19.5 45t15.5 39q10 23 19.5 38t17.5 27q33 55 51 49 q10 -4 15 -30.5t1 -67.5q-2 -39 -12 -88q-8 -18 -15 -35.5t-16 -34.5q-37 -78 -80 -155.5t-94 -149.5q-18 -25 -36.5 -49.5t-38.5 -48.5q4 -4 8 -6q82 92 143 194.5t113 206.5q-16 -61 -44 -133t-75 -150q-25 -35 -51.5 -70.5t-55.5 -70.5q12 -10 25.5 -19.5t26.5 -19.5 q-16 2 -16.5 -11t-3.5 -24.5t-18.5 -10.5t-62.5 32q-6 -4 -11 -10.5t-11 -10.5l-6 -6q121 -113 133 -160q10 -33 -39 -15t-174 97q-4 0 -8 4q-16 -14 -39 -26q-98 -66 -213 -100.5t-230 -30.5v22q-41 0 -80 3t-75 12q-78 12 -152 39q-37 14 -76 33.5t-76 54.5 q-18 16 -35.5 36.5t-29.5 47.5q-23 49 -27 108q-2 53 12.5 97t30.5 81t37 69t43 62q37 53 78 99.5t82 91.5q-2 4 -4 6t-4 6q-39 -43 -77 -88t-75 -94q-23 -29 -43 -60.5t-39 -66.5q-16 -35 -31.5 -76t-19.5 -94q-6 -55 12 -111q16 -53 58 -100q35 -41 74.5 -64.5t76.5 -39.5 q39 -16 76 -27.5t74 -22.5q39 -8 76.5 -13t78.5 -9q-63 4 -121.5 15t-115.5 30q-61 18 -121 51q-31 16 -61.5 41t-57.5 59q-29 37 -42 83t-11 89q0 43 9.5 79t21.5 67zM1100 213l6 -6l2 2q6 4 11 10t11 10q-2 2 -4 3t-4 4q-4 -6 -10 -11.5t-10 -9.5zM698 1450q-12 4 -23 5 t-24 3q12 -4 9 -6t-7 -6q10 -2 21.5 -4t21.5 -6q4 -2 10.5 -3t12.5 -6l4 -2l2 -2l8 -4t11.5 -8t5.5 -6q0 -2 2 -6q0 -8 -6.5 -28.5t-18.5 -43.5t-28.5 -47.5t-34.5 -48.5q-43 -57 -92.5 -111.5t-102.5 -109.5q6 -8 8 -17q53 55 103.5 110.5t97.5 115.5q18 25 34.5 49 t30.5 49q12 25 19.5 48.5t5.5 33.5q-2 12 -6 16l-8 8t-15 9q-2 2 -4 3t-4 3q0 -2 -10 4q-6 2 -11.5 4t-11.5 4zM549 1030q-14 -16 -27.5 -30.5t-29.5 -30.5q16 16 29.5 30.5t27.5 30.5zM455 1327q-41 -63 -41 -137q0 -12 4 -33q0 -4 1 -8t1 -8l2 -8q2 -4 2 -6.5t2 -6.5 q6 -23 13 -42t18 -42q4 -4 5 -9t5 -9q66 70 125 138.5t106 137.5q10 18 20.5 36t16.5 34q10 33 6 37q2 0 -10 8q-2 2 -10 6v2l-4 2q-4 0 -5 1t-3 1q-8 4 -16.5 6.5t-16.5 6.5q-61 16 -121 -13q-29 -14 -55.5 -37.5t-44.5 -56.5zM430 623q-14 -16 -27.5 -32t-27.5 -32 q-33 -39 -60.5 -77t-48.5 -76q-20 -41 -26 -68q-4 -16 -4 -24.5t2 -14.5q4 -6 9 -14.5t17 -18.5q25 -18 68 -35q41 -16 86 -27t90 -18q178 -25 340 58v2q-98 72 -197.5 157.5t-195.5 192.5l-12.5 12.5t-12.5 14.5zM406 651q-35 -37 -68 -73.5t-62 -75.5q-43 -59 -65 -111 q-25 -57 -18 -98q6 -41 59 -74t119 -49q66 -20 134 -28.5t136 -0.5q129 12 240 80l-2 2q-115 -70 -238 -82q-66 -6 -133.5 2.5t-132.5 26.5q-33 10 -63.5 21.5t-55.5 27.5q-49 35 -59 70q-8 37 14 96q23 51 65 111q29 41 63 78.5t69 76.5h-2zM311 780q-47 -53 -92 -107.5 t-86 -117.5q-23 -35 -43 -74t-35 -86q-12 -53 -10 -104q6 -55 39 -109q33 -47 74 -74.5t82 -46.5q41 -16 83 -27t83 -22q84 -18 171 -19t173 19q72 16 137 47t125 72q-2 0 -6 4q-4 -4 -7.5 -5t-7.5 -5q-78 -53 -171 -88t-193 -39q-98 -6 -197 12q-47 10 -95 22.5t-95 35.5 q-35 16 -69 38.5t-65 57.5t-45 83t-8 93q4 45 18.5 82t32.5 72q35 63 80 124q33 41 65 81t66 77z" />
<glyph unicode="'" horiz-adv-x="409" d="M104 1620q10 -2 23.5 -1t26 0t19.5 -5t3 -19q4 -2 10.5 -2h10.5l10 11q12 12 29.5 19t35 8t31.5 -5t23 -20q14 -37 5 -79t-3 -81q2 -29 3 -55.5t-7 -53.5q-14 -37 -13.5 -72.5t-9.5 -70.5q-2 -14 8 -27.5t0 -21.5q-6 -8 -28 -17q-14 41 -17 82q2 27 5 52.5t12 52.5 q-20 -47 -17 -105q0 -43 6 -86q-14 -2 -32 -10q0 -4 2 -6l4 -8q-4 -4 -5 -6t-6 -4q-31 -31 -75 -31q-4 2 -9.5 2t-11.5 2v8q-2 41 -9 80t-3 80q4 29 2 57.5t-2 54.5q-8 -63 -5 -131.5t1 -146.5q-10 4 -19.5 10t-13.5 17q-4 27 -6 51t-4 47q4 0 11 1t11 1q-10 31 -9 60.5 t4 59t5 57.5t-6 56q-6 -4 -12 0q2 -57 -1 -112.5t-3 -118.5q-4 98 -3 184t5 170v19q24 22 24 53z" />
<glyph unicode="(" horiz-adv-x="614" d="M201 1485q35 43 66.5 87t60.5 89q6 -10 20 -13t23.5 -11.5t5.5 -27t-35 -61.5l10 -5l10 -5l25 25q33 29 60.5 41t45 6t20.5 -30t-15 -64q-23 -51 -51.5 -107.5t-57.5 -116t-53.5 -123t-36.5 -127.5q-20 -92 -29.5 -184t-13.5 -184q-4 -63 5 -128t26 -130 q18 -63 42.5 -125t53.5 -121q10 -23 29.5 -46.5t39 -45t36 -41t20.5 -31.5q10 -29 -10 -39q-55 59 -103.5 124t-83.5 136q-41 88 -64.5 180.5t-27.5 188.5q0 -94 23.5 -187.5t68.5 -181.5q35 -72 79 -137t97 -127q-8 -4 -15 -8t-9 -14q4 -6 12 -15q4 -6 11.5 -12t11.5 -10 q8 -20 10 -29q6 -33 -13.5 -44t-48.5 -7q-20 4 -36 8q-4 6 -8.5 11t-8.5 12q-78 96 -148.5 200.5t-113.5 237.5q-29 92 -49.5 194.5t-24.5 198.5q0 -113 22.5 -227.5t67.5 -222.5q45 -109 105.5 -206.5t128.5 -187.5q-23 10 -45.5 25.5t-44.5 40.5q-47 59 -87 124.5 t-73 133.5l10 5t11 5q-53 92 -80 192.5t-35 202.5q-10 102 -5 201.5t15 204.5q-4 -6 -6 -4t-6 4q-33 -203 -14.5 -403.5t106.5 -397.5q-72 150 -100.5 310.5t-18.5 320.5q8 160 50 312.5t110 299.5z" />
<glyph unicode=")" horiz-adv-x="657" d="M319 -25q-35 -43 -66.5 -87t-59.5 -89q-6 10 -20.5 13.5t-24 10.5t-5.5 26.5t35 62.5l-10 5l-10 5l-25 -24q-33 -29 -60.5 -41.5t-45 -6t-20.5 30t16 64.5q20 51 49.5 106t58.5 115.5t53.5 123t36.5 128.5q20 92 29.5 184t13.5 184q4 63 -5 128t-26 130q-18 63 -42.5 125 t-53.5 121q-10 20 -29.5 45t-39 46.5t-36 41t-20.5 31.5q-10 29 11 39q55 -59 103 -123.5t83 -136.5q41 -88 64.5 -180t27.5 -189q0 94 -23.5 187.5t-68.5 181.5q-35 72 -79 137.5t-97 126.5q8 4 15 8t9 15q-6 6 -12 14l-22 22q-8 20 -11 29q-6 33 13.5 44t48.5 7 q20 -4 37 -8q4 -6 8 -11t8 -11q78 -96 148.5 -201t113.5 -238q29 -92 49.5 -194.5t24.5 -198.5q0 113 -22.5 227.5t-67.5 223.5t-105.5 206t-128.5 187q23 -10 45.5 -25.5t44.5 -40.5q47 -59 87 -124.5t73 -133.5l-10 -5l-10 -5q53 -92 79.5 -192.5t34.5 -202.5 q10 -102 5 -201.5t-15 -204.5q4 6 6 4t6 -4q33 203 14.5 403.5t-106.5 397.5q72 -150 100.5 -310.5t18.5 -320.5q-8 -160 -50 -312.5t-110 -299.5z" />
<glyph unicode="*" horiz-adv-x="1019" d="M582 1352q4 4 11 12t11 12q23 10 41.5 26.5t34.5 35.5q4 -8 14.5 -13.5t17.5 -12.5t7 -17.5t-19 -26.5q2 -2 6.5 -5t6.5 -7q4 4 8 5t8 3q41 16 70.5 1t11.5 -58q-23 -45 -63.5 -86t-77.5 -88q31 -2 60.5 -4.5t60.5 -4.5q6 0 16 -1t16 -1q43 -23 95 -26q-4 -8 -2 -19.5 t0.5 -22t-9.5 -15.5t-33 1q0 -4 -1 -9t-1 -9q4 -4 8.5 -5t8.5 -3q39 -23 43 -56.5t-41 -44.5q-51 -10 -110.5 -0.5t-118.5 11.5q16 -27 30.5 -53.5t30.5 -55.5q4 -4 7 -13t7 -14q6 -47 33 -94q-10 -2 -18.5 -9t-17.5 -12t-18 0t-18 27q-4 -2 -8 -5t-8 -5q0 -4 1 -9t1 -9 q2 -43 -22.5 -65.5t-59.5 9.5q-20 20 -36.5 48t-32 58t-32 60.5t-34.5 59.5q-14 16 -23 35q-27 -31 -52 -61t-54 -56q-16 -18 -29.5 -48t-27.5 -36q-10 -4 -16.5 -1t-12.5 7q20 33 41.5 64.5t46.5 62.5q20 25 41.5 49.5t44.5 46.5l-2 2q-49 -49 -84 -98q-27 -29 -49.5 -59.5 t-44.5 -61.5q-16 12 -25 14l-4 -8q-4 -8 -8 -12t-8 -4t-8 -2q-20 -4 -35 8t-23 29q-4 12 -6 20l10 8q37 47 70 93.5t76 93.5q6 6 12 13t12 13h-6q-43 -51 -86 -103t-90 -101q-8 29 8 53q23 29 43.5 55.5t40.5 52.5q4 -2 8 -5t9 -5q14 29 36 57h-12l-37 -43q8 10 16.5 21.5 t18.5 21.5q-23 2 -44 4.5t-44 6.5q-25 4 -56.5 -4.5t-43.5 2.5q-14 6 -15 26q76 6 156 6l74 -6v2q-18 2 -37 2t-37 2q-39 2 -77 3.5t-77 -1.5q0 20 -4 29q-4 -2 -8 -2h-14q-4 2 -7.5 4t-7.5 4q-16 16 -15 33.5t11 34.5q4 10 13 16h12q59 -4 116.5 -2t120.5 -6q12 -2 24.5 -3 t27.5 -3q-4 4 -4 8q-72 4 -144 7t-143 14q10 10 21.5 16t27.5 8q35 -2 68.5 -2t68.5 -2v-18q41 6 86 2q-4 8 -6 10l-74 6q18 -2 37 -2h37q-14 23 -27.5 47.5t-23.5 48.5q-10 23 -33.5 44.5t-23.5 37.5q-2 16 16 27q23 -31 45 -62.5t43 -64.5q12 -20 23.5 -40t21.5 -40h2 q-10 20 -22.5 39.5t-24.5 40.5q-18 35 -38.5 66.5t-43.5 64.5q18 6 23 16q-4 2 -7 6q-4 4 -8 13q-4 10 0 16q4 23 19.5 32t33.5 11q6 -2 21 -2l6 -12q29 -51 62.5 -98.5t62.5 -102.5q10 -23 23 -45l4 4q-35 63 -71 124.5t-71 127.5q31 -6 47 -27q39 -61 74 -116 q-6 -6 -14 -11q16 -18 28.5 -37.5t22.5 -37.5q6 2 8 8q-10 16 -21.5 34.5t-21.5 37.5q12 -16 23.5 -35t21.5 -35q25 29 49.5 58.5t51.5 60.5zM299 991q2 0 2 2h-12l-2 -2h12zM336 985q0 2 2 2q-2 2 -6 2q-2 0 -2 -2q2 0 3 -1t3 -1zM350 1137q-2 2 -2 4t-2 6h-4q2 -4 3 -5 t3 -5h2zM365 1104q0 2 -1.5 3t-1.5 3h-2q0 -2 1 -3t1 -3h3zM459 1180q4 4 4 6q-4 -2 -8 6v-2q4 -8 4 -10z" />
<glyph unicode="+" horiz-adv-x="1318" d="M475 852q-43 2 -87 4t-91 2h178l12 277v20t2 23q14 31 19.5 61.5t7.5 60.5q10 -4 24.5 -0.5t26 2t18.5 -12.5t1 -42q4 -2 11 -2h11q2 6 4 11.5t4 11.5q27 49 66 56t53 -50q14 -74 3 -164t-7 -178q0 -20 1 -40t1 -40q74 -2 147.5 -4t149.5 -6q8 0 20.5 -1t20.5 -1 q61 -27 125 -27q-4 -10 -1 -24.5t1 -25.5t-13.5 -18.5t-41.5 -1.5v-22q6 -4 11 -5t11 -5q49 -27 56.5 -66t-50.5 -53q-37 -6 -78.5 -6t-85.5 3t-89.5 6t-88.5 1h-116q-4 -66 -6.5 -132.5t-10.5 -131.5q-2 -16 1 -34.5t6.5 -37t4.5 -35t-4 -24.5q-4 -10 -12 -13.5t-18 -3.5 q-6 49 -10.5 99.5t-4.5 101.5q2 53 5.5 106.5t11.5 106.5h-2q-18 -100 -15 -213q-2 -51 -1 -100t3 -101h-16t-16 -4q2 -6 2 -12q0 -14 2 -18q-2 -6 -4 -10.5t-6 -8.5q-16 -20 -38 -19t-42 11q-4 4 -10.5 8t-12.5 8l2 17q2 78 -3 151.5t1 155.5q4 37 5 74.5t1 76.5h-6 q-4 -115 -5 -229.5t-9 -230.5q-27 27 -33 61q-2 47 -2 91v87q4 2 11 2h12q-10 57 -7.5 112.5t7.5 108.5q-4 0 -7.5 1t-7.5 1q-2 -53 -4 -107t-4 -110v109.5t2 107.5q-61 4 -122.5 6.5t-121.5 10.5q-16 0 -34.5 -3l-37 -6t-35 -4t-24.5 5q-20 8 -16 30q98 12 201 13 q94 0 190 -13v2q-47 6 -95 9.5t-95 1.5q-51 2 -100.5 2t-100.5 -4v18t-4 16l-31 -6q-12 6 -18 13q-20 16 -19.5 37.5t10.5 41.5q4 4 8.5 9.5t8.5 11.5h16q78 -2 151.5 3t155.5 -3q29 -4 58.5 -4h58.5v6q-106 4 -212.5 5t-213.5 9q12 10 27.5 19.5t34.5 11.5q47 2 91 2h87 q2 -4 2 -10v-10q47 6 93 6t91 -4v12zM733 829q8 0 15.5 1t15.5 1q-4 4 0 13h-31v-15zM520 651h4h-4zM485 858h13q0 4 -1 6t-1 6q-2 -4 -5.5 -3t-5.5 1v-10zM485 840q4 0 7.5 -1t7.5 -1q0 4 -1 7t-1 7h-13v-12zM483 805h19l-2 4q-10 0 -17 2v-6zM479 657q4 -2 15 -2 q-4 2 -7.5 2t-7.5 2v-2z" />
<glyph unicode="," horiz-adv-x="557" d="M276 315q8 -6 21.5 -9t25 -7t16.5 -10t-3 -19q4 -2 10 -4t10 -4q4 4 6.5 4t4.5 4q14 6 33.5 7.5t37 -3t29.5 -13.5t14 -25q2 -20 -5 -43t-16 -46.5t-19.5 -46t-12.5 -43.5q-8 -29 -15 -54.5t-24 -47.5q-23 -31 -33 -64.5t-30 -64.5q-6 -12 -1 -27.5t-8 -23.5 q-14 -6 -30 -4q0 20 2 39.5t8 42.5q6 25 18.5 48t26.5 48q-37 -49 -45 -96q-8 -23 -13 -42.5t-8 -39.5h-18t-14 -2v-5v-8q-4 -4 -7.5 -5t-7.5 -5q-18 -10 -40.5 -11t-38.5 5q-4 4 -10.5 5t-10.5 3l2 10q10 41 15.5 80t21.5 74q14 29 20.5 57.5t14.5 53.5q-25 -59 -43.5 -124 t-44.5 -141q-10 6 -17.5 15.5t-5.5 19.5q6 53 21 94h10t10 -2q0 33 10.5 61.5t22.5 54.5t21.5 52.5t9.5 57.5q-2 -2 -11 2q-14 -53 -33.5 -105.5t-39.5 -116.5q25 98 55.5 191.5t58.5 173.5q6 2 6 16q20 10 29.5 20.5t13.5 22.5z" />
<glyph unicode="-" horiz-adv-x="1310" d="M764 819q-119 2 -233.5 8.5t-239.5 8.5q193 2 373 -5.5t366 -17.5q8 -2 20.5 -2h20.5q31 -16 61.5 -21.5t63.5 -7.5q-4 -10 -2 -24.5t1 -25.5t-12.5 -18t-41.5 -1q-2 -4 -2 -11.5v-11.5q6 -2 11 -4t11 -6q49 -27 56.5 -66t-52.5 -53q-37 -6 -79 -5t-86 5t-89 8t-88 2 q-63 0 -125.5 1t-124.5 12q-86 16 -174 16t-172 10q-16 0 -34.5 -3t-37 -7t-34 -5t-23.5 3q-12 4 -15 12t-3 19q98 16 199 18q61 0 122.5 -5t122.5 -15q-59 14 -120.5 18t-124.5 2q-51 0 -100.5 -2t-98.5 -6q0 10 -1 17.5t-5 15.5l-31 -6q-16 8 -18 10q-23 16 -23 37.5 t10 42.5q4 6 17 22h16q78 2 152.5 8.5t156.5 -0.5q59 -6 121 -4t119 -2q-135 12 -273.5 11.5t-279.5 3.5q29 29 63 34q92 6 181 7q0 -4 1 -11.5t1 -11.5q61 10 121.5 8t119 -8t116.5 -9t120 3q-4 4 -3 6z" />
<glyph unicode="." horiz-adv-x="522" d="M414 190q0 -2 -1 1.5t1 -7.5v-2q0 -4 1 -6t1 -6q0 -12 -2 -27.5t-11 -31.5q-10 -29 -38 -58q4 2 8 -8q29 23 45 57q16 33 16 68q-2 4 -2 14v2q-2 12 -1 8t1 1h-2v4l-2 6q0 10 -8 26q-8 25 -29 48q-18 23 -40.5 35t-45.5 20q-23 6 -45 8t-47 -2q39 6 75 1t70 -28 q39 -23 64 -65q10 -23 16 -41v-6l2 -2v-2q2 -14 1 -10.5t-1 -0.5q2 -4 2 -10q0 -16 -2 -26q-2 -27 -17 -57t-38 -48t-44.5 -25.5t-39.5 -11.5q-37 -6 -74 0q-16 4 -36.5 11.5t-43.5 25.5q-8 4 -20 20.5t-18 28.5q-10 29 -7 60l-4 4q2 4 2 5t2 5q6 29 21.5 56.5t38.5 43.5 q47 37 98 27q16 -4 33.5 -9t34.5 -16q16 -10 31.5 -25.5t21.5 -35.5q-14 51 -59 72q-39 20 -82 18q-23 0 -46.5 -7t-46.5 -26q-23 -16 -39 -42.5t-24 -53.5q-10 10 -14 26.5t4 36.5q10 23 26.5 41.5t32.5 32.5q18 12 37.5 20.5t36.5 12.5q2 -4 3 -11t3 -12q43 16 87 5 t79 -52q8 -10 15 -21t12 -24l6 -24v-4l2 -4v-3zM256 158v2h-2zM262 154q0 2 2 4h-2v-2v-2zM297 133l-2 2l2 -2l2 -2l-2 2v0z" />
<glyph unicode="/" horiz-adv-x="1331" d="M1212 1718q23 0 27 -24q6 -25 -16 -82q-25 -59 -63 -118.5t-80 -122t-86 -126t-83 -127.5q-57 -92 -115.5 -181t-125.5 -175q-92 -117 -178 -247t-175 -247q-16 -23 -31.5 -52.5t-29.5 -58t-27.5 -52t-23.5 -31.5q-20 -25 -39 -6q37 76 80 151.5t90 147.5 q-47 -72 -93 -144.5t-85 -148.5q-6 6 -13.5 12t-17.5 4q-4 -10 -8 -18t-7 -16.5t-6 -14.5l-11 -11t-9 -10q-23 -18 -39 -14q-12 4 -21.5 17.5t-13.5 31.5q-4 20 -4 39q8 16 15 25q33 59 63.5 113.5t65.5 107.5t68.5 108.5t74.5 110.5q59 78 114.5 165t108.5 165 q-66 -92 -130 -185.5t-130 -191.5q-63 -96 -126.5 -189.5t-125.5 -195.5q2 27 7 55.5t22 57.5q39 66 78 128t80 124q4 -4 9 -7.5t9 -5.5q49 90 105.5 172t114.5 162t113.5 161t104.5 171q-6 -4 -7 -1t-3 5q-111 -168 -218.5 -324.5t-221.5 -324.5q174 264 341 515t341 515 q8 10 20 29.5t21 29.5q39 37 70.5 79t58.5 87q6 -10 20 -13t24.5 -10.5t6.5 -26.5t-35 -63q4 -2 9 -5t9 -5l27 27q59 55 100 59z" />
<glyph unicode="0" horiz-adv-x="1146" d="M84 285q-39 78 -55.5 156.5t-20.5 154.5q-4 78 -1 159t13 154q4 25 11.5 67t11.5 66q33 96 62.5 189.5t62.5 187.5q6 -16 22.5 -11t26.5 -1v-2q10 -6 6 -39t-35 -125q4 0 10.5 -2t10.5 -4q6 16 13 31.5t14 29.5q31 61 60.5 98.5t49.5 45.5q25 10 29 -26t-17 -126 q-23 -100 -49 -213.5t-43 -234.5q-6 -61 -9 -128t3 -126q4 -57 18.5 -109.5t36.5 -91.5q35 -57 87.5 -86t123.5 -37q63 -6 101 17q43 23 80 81q25 43 42 97.5t27 113.5t13.5 129t-1.5 134q-2 66 -9 128t-17 123q-6 31 -13.5 61t-15.5 58q-10 29 -19 54.5t-20 41.5l-2 5l-2 2 l-6 8q-4 6 -14 16q-6 6 -14.5 13.5t-16.5 13.5q-16 14 -35.5 22.5t-38.5 12.5q-39 8 -76.5 3t-58.5 -3q-31 -2 -39 5t-6 17q70 23 135.5 22t118.5 -36q27 -16 49 -39q27 -27 41 -49q16 -29 29.5 -60.5t23.5 -66.5q45 -172 49 -359q2 -90 -8 -185t-35 -177q27 80 37.5 174 t8.5 186t-13.5 182.5t-38.5 178.5q-10 35 -22 66.5t-29 60.5q-8 12 -18.5 24.5t-20.5 24.5q-25 25 -49 43q-53 35 -118.5 39t-135.5 -17q2 10 2 18.5t-10 14.5q-16 -6 -33 -12q-14 -4 -29.5 -10t-25.5 -11q-4 -2 -7 -2t-7 -2q-10 -2 -18.5 -3t-16.5 -1q-53 -4 -51 20.5 t32 59.5q18 18 47 41q12 4 24.5 7t25.5 7q57 16 120.5 25.5t132.5 -2.5q70 -10 131.5 -48t102.5 -87q8 -8 20 -25q14 -18 23 -31q8 -16 15 -29.5t16 -29.5q12 -29 21 -58.5t20 -58.5q31 -117 43 -239q6 -88 7 -185.5t-7 -191.5q-10 -94 -33 -186.5t-76 -176.5q63 98 87 204 t32 210q8 106 2 217t-23 215q-10 53 -22 103.5t-31 103.5q-10 27 -20.5 52.5t-26.5 54.5l-8 12t-12 16q-4 6 -17 23q-10 10 -20.5 21.5t-22.5 21.5q-43 43 -102.5 72.5t-124.5 35.5q-63 8 -120.5 0t-111.5 -22q37 23 92.5 43t131.5 16q94 -6 176 -53q41 -23 73.5 -51.5 t59.5 -59.5q4 -6 14 -16l6 -8q4 -6 9 -10q6 -10 12 -19.5t10 -19.5q20 -35 33 -72q27 -68 43 -135q-4 -2 -10 -3t-11 -3q27 -92 39.5 -185.5t16.5 -185.5q2 -92 -7.5 -190.5t-33.5 -192.5q-12 -47 -29.5 -92t-44.5 -92q-27 -45 -63.5 -87t-88.5 -71q-51 -33 -108 -45 t-113 -10q-53 4 -105 15t-106 34q14 -10 9 -10t-9 -2q51 -25 105 -37q27 -6 52.5 -10.5t53.5 -6.5q55 -4 114.5 9.5t113.5 44.5q53 31 92 73.5t65 89.5q27 47 44.5 92.5t29.5 92.5q23 94 32 191t9 190q-2 92 -11 184t-30 186q66 -297 35 -592q-10 -74 -25.5 -147.5 t-50.5 -149.5q-16 -37 -38.5 -72.5t-55.5 -70.5q-31 -35 -71 -62.5t-87 -43.5t-94 -21.5t-90 -1.5t-84 14.5t-82 26.5q-88 33 -152 96q-35 31 -60.5 68t-43.5 76z" />
<glyph unicode="1" horiz-adv-x="788" d="M600 756q-18 -117 -24.5 -241t-26.5 -243q-2 -20 -1 -51t1 -61.5t-2 -57t-8 -36.5q-6 -16 -14.5 -18.5t-18.5 1.5q4 70 6 151t6 150q8 86 16.5 170t20.5 170q-16 -84 -24.5 -169t-12.5 -171q-6 -70 -11 -149.5t-11 -149.5q-10 4 -17.5 5t-17.5 -3v-43q-6 -12 -15 -20 q-20 -23 -41.5 -16.5t-37.5 24.5l-19 25l4 20q16 98 18.5 206.5t14.5 217.5q10 76 12 158t6 157q-16 -180 -25 -372.5t-42 -364.5q-10 16 -16.5 37.5t-6.5 46.5q6 57 10.5 126t8.5 126q4 -2 11 -2h11q-4 82 2 159.5t13.5 155.5t12.5 157t-1 159q-4 -4 -12 0 q-4 -160 -13.5 -310.5t-23.5 -310.5q10 164 16 322.5t14 322.5q-35 -43 -71.5 -85t-83.5 -81q-12 -8 -23 -18q-27 -4 -47 -13.5t-41 -21.5q-4 10 -13 21.5t-14.5 21.5t-3 19.5t22.5 17.5q-4 4 -7 9t-7 9h-15q-20 2 -36.5 12.5t-25.5 25t-12 30.5t5 29q20 33 59 57.5t68 65.5 q20 29 39.5 56.5t48.5 51.5q39 33 65.5 76t61.5 78q12 16 15 39.5t18 27.5q12 4 32 -2q-18 -57 -49 -108q-39 -59 -92 -113q57 45 92 113q10 16 20.5 32.5t20.5 32.5v13q16 43 26.5 84.5t14.5 87.5q10 -6 24.5 -4.5t27 -1.5t16.5 -17t-4 -57q4 -2 11 -2t11 -2q2 14 10 28 q16 33 36 51.5t38 20.5t30.5 -15.5t16.5 -56.5q4 -96 -12.5 -214t-16.5 -236q-2 -86 -4 -170t-14 -170zM362 1051q2 10 3 32q-12 -16 -23.5 -33.5t-22.5 -37.5q2 0 9 -6q10 10 18 22.5t16 22.5zM367 1130l-7 -12q2 4 3.5 5t3.5 5v2z" />
<glyph unicode="2" horiz-adv-x="1110" d="M76 0q0 10 -6.5 23.5t-9.5 24.5t3.5 20.5t32.5 13.5q0 4 -2 10t-2 10q-8 0 -20 4q-8 2 -21 7l-12 6q-33 -8 -33 31q-18 35 17 61q2 12 12 29q8 8 15 14t16 14q135 127 262 259t250 288h-5q-10 -12 -19 -24.5t-19 -22.5q-109 -135 -231 -255t-251 -232q16 33 40 65.5 t57 67.5q80 78 155.5 156.5t145.5 160.5q4 -2 8 -6t8 -6l74 98q-4 0 -9.5 1t-11.5 1q-14 -18 -28.5 -36.5t-30.5 -37.5q16 18 29.5 37t29.5 37q-43 2 -86 12q-59 10 -124.5 32t-133.5 69q-35 25 -66.5 61.5t-50.5 83.5q-18 47 -21 94.5t3 88.5l4 20l4 20l6 19l2 10l2 4v2 q6 20 14.5 40t18.5 38q18 37 43 67.5t53 59.5q84 78 191 115q53 18 110.5 25.5t116.5 -3.5q59 -10 117.5 -37.5t103.5 -70.5q41 -37 74 -90.5t47 -112.5q20 -82 11 -160t-31 -143q-23 -68 -53.5 -127t-65.5 -115q-72 -111 -151.5 -204t-165.5 -177q-29 -29 -61 -64.5 t-64 -70.5q47 10 95 13.5t95 -5.5q84 -14 168 -29.5t156 -52.5q27 -10 65.5 -17t48.5 -24q14 -16 2 -34q-90 33 -174 55q-53 18 -107 32.5t-112 24.5q55 -14 110.5 -27.5t108.5 -29.5q45 -14 86 -30.5t82 -35.5q-4 -8 -8 -15t-4 -15q4 -2 10 -4q12 -4 17 -7q6 -8 8 -16 q6 -23 -5.5 -42t-27.5 -32l-18 -12l-13 6q-51 31 -106.5 47.5t-116.5 36.5q-41 16 -89 19.5t-93 3.5q104 -6 208.5 -34t192.5 -89q-14 -4 -27.5 -7t-27.5 1q-31 14 -61.5 25.5t-61.5 21.5q0 4 2 10t2 10q-47 4 -90 13.5t-88 17.5q-43 6 -88 6t-90 -16q2 -2 2 -11 q90 14 174 6t170 -36q-135 41 -269.5 29.5t-279.5 -48.5l-33 -8q-29 6 -54 4t-50 -10zM922 1188q-16 -92 -54.5 -170t-81.5 -150v-2q45 72 82.5 150t53.5 172zM737 1083q27 68 31 134.5t-18 117.5q27 -61 14.5 -136t-47.5 -148q-2 -4 -4 -8.5t-4 -8.5q2 0 4 -1t4 -1 q6 14 11 26.5t9 24.5zM672 1401q-35 37 -89.5 46t-111.5 -11q10 0 8 -3t-2 -8q53 14 101.5 5t78.5 -41q41 -39 55.5 -81t10.5 -98q-12 -84 -59 -174h12q23 41 38 84t21 84q10 59 -4 107.5t-59 89.5zM680 965q-2 0 -4 -1t-4 -1q-4 -6 -9.5 -13.5t-9.5 -15.5q0 -2 -1 -2t-1 -2 q4 0 8 -2q0 2 1.5 3t1.5 3zM418 1094q53 -25 114.5 -38.5t126.5 -19.5q10 20 17.5 39t15.5 37q35 100 21 170q-4 16 -11.5 32.5t-17.5 31.5q-10 16 -25 28q-4 4 -4 5t-4 3l-6 7q-4 4 -6 5t-6 5q-57 39 -139 22q-41 -8 -78 -28.5t-66 -49.5t-43 -61q-2 -4 -3 -8t-3 -8l-2 -4 q-2 -4 -2 -5v-2v-2q-2 -2 -2 -10q-6 -18 -6 -35q-2 -16 1 -25t7 -20q4 -8 15.5 -17t29.5 -20q10 -8 35 -18t41 -14zM623 965q-8 -16 -15 -23q4 -2 6 -2t7 -2q4 6 7 11t7 12q0 2 1 2t1 2h-14zM606 942q8 16 15 23q-10 2 -20.5 3t-20.5 3q0 -4 -1 -11.5t-1 -11.5q8 -2 14 -3 t14 -3zM565 578q-66 -76 -135.5 -148t-140.5 -141q4 0 6 1t6 1q68 70 134.5 141.5t129.5 145.5q53 59 103.5 122.5t97.5 133.5q-2 -2 -4 -3q-88 -130 -197 -253z" />
<glyph unicode="3" horiz-adv-x="1150" d="M0 440q41 -92 103.5 -165.5t140.5 -129.5q47 -35 101 -62.5t114 -43.5q59 -16 128.5 -16t137.5 30q-66 -29 -134.5 -28.5t-127.5 16.5q-61 16 -115.5 43t-103.5 61q-78 57 -137.5 132t-96.5 163q23 0 33 13l-8 20q-4 8 -7 16.5t-5 16.5q0 12 4 29q10 35 33.5 31.5 t45.5 -15.5q4 -4 11.5 -9t13.5 -10q2 -6 3 -11t3 -11q29 -98 109 -179t184 -132q37 -18 79 -26.5t81 -2.5q39 2 72 23q27 18 53 51q-31 -37 -66 -51q-37 -18 -82 -19q-90 0 -180 51q-86 49 -149.5 127t-85.5 164q16 -12 31.5 -26.5t27.5 -34.5q29 -49 71 -92.5t89 -75.5 q-2 -4 -5.5 -9.5t-7.5 -9.5q76 -41 151 -57t128 6q27 8 49 35q16 16 29.5 33.5t25.5 36.5q27 35 42.5 72.5t17.5 72.5q-4 -4 -13 0q-10 -63 -61 -135q-10 -16 -23.5 -33.5t-27.5 -34.5q-23 -25 -43 -33q-45 -25 -117 -10t-137 62q51 -35 107.5 -51.5t101.5 -8.5q41 6 69 35 q4 2 9 6q2 4 10 12q4 8 10 14.5t10 12.5q10 14 19.5 27.5t17.5 25.5q35 55 47 105q8 43 -6 74q-12 33 -60 67.5t-112 61.5q-10 4 -29.5 12t-31.5 12q-41 29 -89.5 47.5t-101.5 30.5q4 4 8 14q-14 6 -14 25q4 2 7 2t7 2q2 4 2 5t2 5q-6 -2 -16 -2v16.5t-6 16.5l-16 -4 t-16.5 -3t-12.5 -3q-20 4 -27 8q-29 14 -27.5 35.5t17.5 44.5q6 6 11 12t12 12h22l49 6q20 16 78 15q139 29 264 88q33 14 59.5 35.5t41.5 46.5q12 25 12 51q-2 16 -4 33.5t-6 34.5q2 -10 3 -20.5t1 -20.5q2 -2 2 -9v-8v-4v-14q-6 -29 -23 -53q-20 -27 -54 -49.5t-75 -39.5 q-80 -35 -169 -52t-181 -21q16 12 34.5 23.5t43.5 17.5q59 10 113.5 24.5t103.5 32.5l5 -10l5 -10q35 18 64.5 35.5t52.5 35.5q25 18 36 34.5t15 33.5q0 4 1 5t1 5v2v2v4v8q-2 8 -2 15.5t-2 17.5q-2 27 -16 62q-14 29 -34 52t-46 36q2 -6 -6 -11q45 -29 67 -86 q10 -23 19 -55q2 -8 2 -15t2 -16v-6v-2v-2v-4v-2v-8q-2 -12 -10.5 -26.5t-30.5 -30.5q-20 -16 -50 -32t-65 -30q53 20 93 48t51 50q4 6 4 11.5t2 9.5q0 2 -1 14.5t-3 22.5q-6 45 -27 86q-41 78 -119 96q-37 8 -84 0t-98 -31q-8 -4 -21.5 -11t-23.5 -11q-80 -18 -148 -76 q-2 12 -14 20.5t-18.5 18.5t1 24.5t46.5 36.5q-4 4 -7.5 9.5t-5.5 9.5q-20 -8 -30 -10q-72 -27 -103 -11q-18 10 -17 33t36 62q41 41 96 78.5t127 66.5t157 41t177 -8q66 -16 125 -52t100 -90q41 -51 64.5 -109.5t29.5 -117.5q2 -10 3 -21.5t1 -21.5v-10v-4v-4v4v-2v-27 q0 -29 -7 -56.5t-17 -52.5q-23 -53 -55.5 -88.5t-67.5 -60.5q-57 -39 -107 -61q35 -16 69 -37t69 -49q39 -33 74.5 -75t58.5 -98q33 -84 22 -165q-4 -41 -14 -77t-25 -69q-29 -66 -65.5 -115t-81.5 -96q-41 -41 -92 -68.5t-107 -37.5q-55 -10 -107 -7t-100 15 q-94 27 -170.5 76t-134.5 112q-23 23 -50.5 51.5t-49.5 59.5q-25 31 -40 59.5t-17 44.5q-4 23 2 30t16 9zM459 831q2 0 2 5h-4q-12 -2 -24.5 -4.5t-24.5 -4.5q4 -2 9 -2t9 -2q8 2 16.5 3t16.5 5zM688 903q35 12 70 29.5t69 42.5q49 33 84 82q39 53 50 123q-10 -68 -50 -121 q-18 -27 -39.5 -46.5t-44.5 -35.5q-65 -45 -139 -74z" />
<glyph unicode="4" horiz-adv-x="1214" d="M246 799q45 43 86 97t78 103q-96 -113 -193.5 -225t-212.5 -199q2 16 7 34t20 32q68 63 129 135q4 -4 8 -7t8 -7q37 55 80 103t85 96.5t81 99.5t70 110q-4 -4 -5.5 -0.5t-3.5 5.5q-74 -109 -151.5 -204t-167.5 -192q135 152 248.5 323t230.5 343q4 8 12.5 19.5t12.5 19.5 q31 23 54 50.5t42 55.5q6 -8 18.5 -13t21.5 -11t11 -17.5t-12 -31.5q10 0 16 2v43q8 16 15 20q20 23 41.5 16.5t37.5 -24.5q8 -10 19 -25l-4 -20v-4q8 -6 12 -19q2 6 3 11.5t1 11.5q10 -18 16.5 -39t6.5 -43q-4 -59 -8.5 -126t-8.5 -124h-10t-10 2q4 -76 0 -149.5 t-9.5 -147.5t-8.5 -146.5t3 -148.5q10 0 15 2q-2 147 4 288.5t16 291.5q-8 -147 -10 -290.5t-2 -289.5q12 0 22.5 -1t16.5 -5q16 -10 12 -33h-51v-8q12 0 24.5 -1t24.5 -1q-2 -10 -3 -17t3 -18h27q6 -4 14 -12q14 -20 10 -41.5t-14 -38.5q-4 -4 -7 -9t-7 -9l-13 2 q-16 4 -29.5 5t-27.5 3v-12q14 -4 27.5 -6t29.5 -7q-25 -25 -47 -24h-10v-150v-57q-25 -80 -20 -168q-10 6 -24.5 1t-27 -3t-19.5 15.5t-3 56.5h-21q-4 -8 -5 -15.5t-5 -13.5q-12 -35 -28.5 -56.5t-34 -25.5t-31.5 11.5t-23 54.5q-14 74 -12 163t2 181 q-117 -10 -234.5 -27.5t-246.5 -26.5h-37q-29 10 -55.5 14.5t-55.5 6.5q4 10 1 23.5t-2 25.5t10.5 19.5t35.5 3.5v20q-4 4 -9 5t-9 5q-16 8 -31 27q-27 0 -38 18.5t-15 40.5v27l14 10q61 51 114 112t116 124zM899 1112q-10 -74 -10 -154.5t-2 -154.5q10 152 15 316.5 t28 312.5q-4 -6 -7 -13.5t-8 -15.5q-4 -66 -7 -142.5t-9 -148.5zM758 1149q-4 -66 -10.5 -130.5t-14.5 -129.5q10 66 16.5 131t10.5 131zM688 387q-63 -4 -127.5 -5t-130.5 -24q6 -2 2 -10q66 10 129.5 16.5t126.5 10.5v12zM688 424q-31 -4 -62.5 -7t-60.5 -7l123 6v8z M600 569q20 -4 41 -4h43l-2 2h-41t-41 2zM559 870q-70 -72 -136.5 -151.5t-141.5 -145.5q16 2 32.5 4.5t32.5 6.5q51 10 102.5 17t104.5 5q31 -2 63.5 -1t65.5 3q-2 53 0 106.5t8 106.5q8 61 11.5 124t7.5 126q-35 -53 -71 -103.5t-79 -97.5zM489 850q-53 -49 -101 -101.5 t-97 -107.5q-16 -16 -32.5 -34.5t-33.5 -35.5h4q16 18 30.5 36t31.5 34q49 53 98 104.5t100 104.5z" />
<glyph unicode="5" horiz-adv-x="1173" d="M209 1585q25 8 52.5 9t57 0t60.5 -1t59 4q43 4 86 7.5t86 -2.5q59 -10 121 -8.5t121 -8.5q23 -2 51.5 7.5t38.5 -1.5q14 -8 14 -32q-35 -4 -69.5 -6.5t-69.5 -4.5l-86 4t-86 9q43 -10 86 -12.5t86 -0.5h139v-16t5 -16h8q4 0 6 1t6 1q6 -4 14 -13q14 -16 14.5 -38.5 t-8.5 -41.5q-2 -4 -4 -9t-6 -11l-10 2q-53 6 -103.5 2t-105.5 0q-41 4 -82 1t-82 -5q92 -4 187.5 -1t187.5 -13q-8 -10 -18.5 -18.5t-22.5 -10.5h-61.5t-59.5 -2q0 4 -1 11t-1 11q-41 -10 -82 -9t-81 3t-80.5 2t-81.5 -12q2 -2 2 -10q82 4 159.5 5t161.5 -1 q-129 -4 -253 -11.5t-253 -7.5h-14q-2 -12 -2 -25v-26q0 -41 -3 -80t-16 -77q-10 -33 -16 -67t-12 -69q47 6 96 8.5t102 0.5q47 -2 96.5 -6.5t100.5 -16.5q51 -10 104.5 -29.5t104.5 -54.5q76 -51 122 -130t58 -163q12 -86 -2 -165t-49 -150q-25 -47 -58.5 -92t-74.5 -84 q-47 -43 -96 -70q-8 -4 -14.5 -7t-14.5 -7l-14 -6h-2h-2v-2q2 0 4 2h-2l-7 -2q-25 -12 -49 -19q-51 -18 -107.5 -26.5t-115.5 -0.5q-59 6 -112.5 30t-94.5 59q-33 23 -67.5 56.5t-61.5 70.5q-29 37 -45 69.5t-18 50.5q-4 27 2 33t16 8q23 -51 50.5 -99t64.5 -91 q39 -43 88 -77t106 -50q72 -25 147 -19.5t140 27.5q8 4 15.5 5t17.5 5l8 4l2 2h2h2h-2l19 7q33 14 67 36q59 41 109 101q-47 -55 -109 -96q-29 -20 -65 -37l-19 -6q-4 0 -6 -3l-8 -4t-15.5 -6t-17.5 -6q-66 -23 -139.5 -28t-147.5 18q-57 16 -105 51t-83 78q-37 43 -63.5 91 t-47.5 97q10 0 19.5 1t13.5 12q-6 12 -10 22t-7 18.5t-7 16.5q0 10 1 18.5t3 16.5q8 39 31.5 36t48.5 -20l12 -12t14 -12q4 -16 8 -27q35 -125 123 -201q90 -76 215 -61q45 6 94 24q6 0 11 4l4 3q4 2 3 1t1 1l6 2q4 2 9 4t12 6q16 8 38 26q37 29 64 71t43 85 q-23 -51 -55.5 -94t-77.5 -72q-20 -14 -47 -24.5t-54 -20.5q-27 -8 -53 -12t-51 -2q-100 2 -174 80q-35 37 -58.5 85t-37.5 101q18 -16 34.5 -35.5t32.5 -42.5q63 -119 164 -141q-2 -4 -3 -10t-1 -11q76 -8 168 27q4 4 10 5t10 3v2h4h3v2h2l4 2q8 4 8 5q10 4 17 9t18 9 q37 27 61 57q57 70 74 164q6 43 -1 86t-30 78q0 -6 -2 -6h-6q16 -33 21.5 -73t-1 -82t-24 -82t-41.5 -72q-25 -35 -55 -56q-8 -6 -15.5 -11t-15.5 -9l-8 -4t-9 -4h-4q-6 -4 -4 -3t0 1l-4 -2q-8 -4 -12 -5q-88 -35 -158 -20q59 -10 121 10q16 4 32.5 11.5t33.5 15.5 q12 4 24 12t23 19q47 39 76.5 100t33.5 125q4 63 -18.5 115.5t-65.5 78.5q-47 31 -120.5 43.5t-157.5 12.5q-14 0 -38 -1t-38 -1q-59 10 -119.5 9t-126.5 -7q4 8 3 15t-5 15q-29 0 -49 13q-6 2 -18 12l4 10q2 8 3 16.5t3 16.5q4 10 5 22.5t3 22.5q-4 2 -8 6 q-4 -23 -10.5 -42t-12.5 -42q-25 20 -24 43q4 29 9 56.5t9 56.5q4 -2 10.5 -2h10.5q-4 39 3 75.5t15 73.5t13.5 73t-1.5 75q-4 -2 -12 2q-4 -76 -14 -146.5t-25 -146.5q16 117 25.5 230.5t21.5 230.5q2 4 2 12t2 12q14 18 20.5 38t8.5 38q10 -4 24.5 -3t27 0t18.5 -9t0 -27 q4 0 10 -1t10 -1l4 4q-10 25 -6 48.5t33 33.5zM61 1012q10 35 13.5 74.5t7.5 74.5q-10 -53 -17.5 -105t-17.5 -106l4 4q2 14 4 29t6 29zM184 834q0 6 1 12t1 12h-8q0 -8 -4 -24h10zM203 993q6 29 12 55.5t16 55.5q-20 -51 -30 -113z" />
<glyph unicode="6" horiz-adv-x="1142" d="M319 1421q94 72 192.5 124t201.5 93q-8 -14 7 -23t15 -22q2 -6 -4 -13t-23.5 -18.5t-48 -26.5t-77.5 -38q4 -4 6 -9t6 -9q16 8 31.5 13t31.5 11q72 23 122 25t71 -8q25 -14 -3 -40t-110 -71q-92 -51 -183 -119.5t-159 -167.5q-57 -82 -92 -186q47 25 99.5 45t111.5 33 q41 10 88 12t98 -8t99.5 -37t83.5 -63q-2 -4 -6.5 -8.5l-8.5 -8.5q25 -23 42.5 -49.5t31.5 -52.5q4 -8 6 -14.5t6 -14.5l7 -12l2 -6v-2q2 -2 1 0t1 -5v-2l2 -4q4 -12 7 -25.5t7 -27.5q12 -55 14 -112.5t-8 -114.5q-20 -115 -86.5 -211t-159.5 -156q-23 -16 -46 -29.5 t-48 -23.5q-6 -4 -13 -5t-13 -5l-7 -2h-2h4h-2l-2 -2l-14 -5q-25 -12 -55 -18q-57 -16 -123 -11t-123 34q-59 29 -101 73.5t-71 94.5q-57 94 -82 206q0 -16 -3 -13l-7 7q10 -55 29.5 -107.5t48.5 -103.5q29 -49 71.5 -95t102.5 -77q59 -33 127.5 -38t128.5 12q16 4 29.5 9 t27.5 9q8 4 12 4l8 4h3h-3h3l24 13q25 10 49.5 22t46.5 29q94 61 162 155.5t92 208.5q12 57 13.5 114.5t-9.5 115.5q-4 27 -12 55l-4 14l-2 6v5v2q-4 8 -3 6t1 0q-8 14 -10 26q-12 29 -27.5 56.5t-38.5 56.5q37 -45 53 -86q10 -20 19 -45l2 -4l2 -2v-2v-2q0 -2 2 -4l4 -11 q2 -6 3 -11t3 -11q20 -86 19 -178q-2 -92 -34 -179.5t-87 -158.5q-57 -74 -131 -123q-18 -14 -37 -25.5t-39 -21.5q-10 -4 -19.5 -9.5t-19.5 -9.5l-20 -8h4h-2h-2l-7 -4q-2 0 -10 -4q-43 -16 -93 -25.5t-103 -5.5t-104.5 25.5t-92.5 56.5q-41 33 -68.5 70t-50.5 78 q-41 76 -63 163q-10 43 -14.5 87t-6.5 79q-4 41 -4 79t2 79q4 80 16.5 161t36.5 161q25 80 63 156.5t91 144.5q8 12 21.5 28.5t29 32.5t29.5 30.5t24 24.5zM260 684q47 33 95 60.5t100 50.5q72 31 143.5 41t118.5 -23q27 -18 51 -53q23 -35 33 -76q25 -84 12 -172 q-10 -86 -59 -156.5t-123 -113.5q72 41 122 110.5t62 155.5q14 84 -10 176q-6 16 -15.5 36.5t-19.5 37.5q-20 33 -53 55q-47 33 -119 24.5t-143 -36.5q-49 -23 -98.5 -49.5t-96.5 -57.5v-10zM397 229q18 -10 41 -13t58 5q53 16 101 42t85 67q78 80 90 194q4 29 3 55.5 t-7 55.5q-4 20 -6 29l-4 14v2l-2 6q-4 14 -10.5 25.5t-12.5 21.5q-25 39 -55 53q-16 8 -39 12.5t-49 0.5q-41 -4 -93.5 -25.5t-103.5 -52.5q-41 -23 -74.5 -45.5t-58.5 -36.5v-39.5t2 -40.5q2 -23 3 -48.5t5 -41.5q12 -84 47 -150q16 -33 38 -56.5t42 -33.5zM461 958 q-88 -27 -172 -71q-2 -4 -2 -7t-2 -8q53 29 109.5 53.5t121.5 41.5q33 8 69 11t74 -1q41 -4 80 -17.5t72 -39.5q35 -25 59.5 -57t40.5 -66q4 -8 7.5 -16.5t7.5 -16.5l6 -19l2 -4v-2v-2q0 -2 1 -3t1 1l2 -10q6 -16 9 -33.5t7 -36.5q6 -51 5 -104t-13 -107q-25 -106 -90 -196 q-63 -88 -158 -148q-43 -27 -92 -47q-23 -10 -48.5 -18t-51.5 -12q16 2 31.5 6t29.5 8q8 4 15.5 5t15.5 5l6 4q-2 -2 1 -1t3 3l15 4q29 12 54 26.5t52 33.5q49 35 92 80t74 98q63 109 70 240q4 63 -7 124q-4 14 -7 28.5t-7 31.5l-4 14v2v2q-2 0 -1 -1t-1 3l-2 4l-2 9 q-4 8 -6 14t-6 14q-14 29 -32 58.5t-44 54.5q-53 55 -125 78q-72 20 -137.5 11.5t-122.5 -24.5z" />
<glyph unicode="7" horiz-adv-x="1163" d="M6 1362q6 8 7 22.5t4 26.5t13.5 16.5t32.5 -4.5q4 8 5 21q-4 4 -7.5 6t-7.5 6q-16 16 -23 35.5t-5 37t13 30t34 14.5q27 2 56.5 -2t60 -10.5t61.5 -10.5t61 0q45 4 88 6.5t90 -2.5q66 -6 133.5 3.5t137.5 5.5q12 0 27.5 4t29.5 8t26.5 6t20.5 -4q16 -6 17 -29 q-41 -8 -80 -14l-78 -12q-49 -4 -97 -7.5t-96 1.5q47 -6 95.5 -3t97.5 9q39 4 78 7t80 7q0 -8 2 -12q2 2 3 4t3 4q6 -12 21.5 -17.5t23.5 -15.5q4 -8 2 -16q6 -10 7 -23.5t-1 -25.5h2q31 20 58.5 27t43 0t17.5 -28.5t-16 -58.5q-23 -43 -54.5 -91t-66.5 -98t-70 -103.5 t-61 -106.5q-41 -76 -81 -153t-87 -150q-66 -100 -118 -215t-110 -221q-10 -20 -18 -47t-16.5 -53.5t-16.5 -48t-16 -30.5q-10 -12 -19.5 -12t-17.5 4q23 70 47.5 137.5t52.5 132.5q37 80 76 158t86 152q-47 -72 -87 -150t-75 -160q-59 -129 -110 -264q-8 6 -14.5 10.5 t-16.5 2.5q-4 -8 -6 -17q-4 -6 -5 -14t-3 -12q-6 -8 -19 -17q-27 -18 -46 -6t-30 37q-2 8 -10 29l10 20q43 94 79 191.5t89 199.5q39 70 74 149t72 150q-94 -166 -170 -342t-160 -342q-4 20 -4 44t10 48q23 57 46.5 113.5t47.5 112.5q12 -4 21 -9q27 82 62.5 157t75.5 147.5 t80 145.5t75 153q-6 -4 -7 -2t-4 6q-82 -150 -154.5 -293.5t-144.5 -296.5q104 236 219 465t263 446q-66 -10 -132.5 -18t-136.5 -13q-76 -4 -152.5 -2t-154.5 15q-6 2 -17 3t-18 3q-25 16 -48 26.5t-50 16.5zM682 1376q-45 2 -92 -6t-92 -12q63 0 125.5 7t124.5 13l4 4 q-16 -2 -34 -4t-36 -2zM731 1354q-45 -12 -90 -16.5t-91 -5.5t-93 -3t-95 -12q4 -2 0 -10q94 4 180.5 10t174.5 14q4 4 5 8t5 9q2 2 2 3t2 3z" />
<glyph unicode="8" horiz-adv-x="1189" d="M866 1581q39 -16 72 -49t55 -72q20 -39 31.5 -78t17.5 -79q2 -23 3.5 -46.5t1.5 -46.5v-12v-22q-4 -29 -9 -46q-6 -20 -14 -36.5t-16 -30.5q-35 -55 -71 -88t-71 -62q-29 -23 -57.5 -42t-56.5 -37q35 -18 69.5 -39t69.5 -47q29 -23 56.5 -48.5t51.5 -56.5 q25 -29 46.5 -63.5t35.5 -79.5q16 -43 19.5 -95.5t-10.5 -101.5t-41 -90t-60 -72q-63 -59 -133 -90t-141 -47q-141 -33 -287 -8q-49 8 -98 24l-6 3l-5 2h-2h2q-2 0 -4 2h-2l-10 4q-6 2 -11 4t-11 4q-10 4 -22.5 10t-22.5 10q-47 23 -93.5 55.5t-87.5 90.5q-18 29 -32.5 61.5 t-18.5 69.5q-4 35 -1 69.5t13 63.5q18 59 47 104t62 86q41 47 85 88t91 76l-37 43q-35 43 -60.5 94.5t-41.5 102.5q-4 16 -10.5 43t-10.5 55q-4 29 -4 58.5t4 52.5q8 43 26.5 85t47.5 77t60.5 60.5t66.5 43.5q70 37 138.5 52.5t135.5 23.5q-8 -6 -7 -12.5t6.5 -13.5t9.5 -13 t2 -12q-2 -12 -45 -23q-23 -8 -63 -16t-99 -33q4 -8 8 -21q39 14 82 21q33 4 62.5 4t54.5 -4q37 -6 61.5 -15.5t34.5 -19.5q25 -18 -18 -35q-18 -10 -53.5 -17t-82.5 -22q-53 -14 -98 -39.5t-61 -54.5q-10 -16 -15.5 -33.5t-3.5 -42.5q0 -23 6 -53q4 -8 5 -14t6 -17 q2 -8 10 -28q31 -78 102 -135q2 2 3 2t3 2q4 4 9.5 5t9.5 5l6 2l2 2l10 4q35 20 69 40t64 40q23 14 47.5 35.5t43 43t27.5 39t1 27.5q-4 68 -16 115q-4 23 -9.5 36t-7.5 23q-8 20 -6 28.5t12 15.5q23 -18 37.5 -56.5t20.5 -83.5q4 -23 5 -45t3 -45v-8l-2 -4q0 -8 -2 -12 q-4 -6 -8 -13.5t-8 -15.5q-23 -33 -58 -61.5t-74 -57.5q-35 -23 -69.5 -45t-73.5 -45q74 41 146 88q37 27 71.5 55.5t59.5 61.5q10 14 18 28q4 12 4 13q0 4 1 6t1 6q0 45 -6 92q-4 43 -17.5 83t-37.5 63q10 4 18 7t6 17q-2 4 -8 8q-4 4 -10 7.5t-14 7.5q-16 8 -35 12t-33 6 q-12 4 -22.5 7t-20.5 7q-6 2 -14 7q-18 12 -23 16q-10 10 -9 17.5t5 11.5q10 10 18.5 18t36.5 14q14 4 34 6.5t46 0.5q41 -10 82 -35q23 -16 41 -34.5t35 -39.5q25 -39 39 -84q12 -41 17 -80t9 -76v-36l2 -19q0 -8 -2 -14v-17q-4 -33 -16 -55t-25 -43q-27 -37 -55.5 -64.5 t-56.5 -50.5q-29 -25 -59.5 -45t-61.5 -41l-18 -12q4 0 4 -2q49 29 95 61.5t91 73.5q27 25 52.5 53.5t47.5 75.5q8 25 13 56q2 20 2 26v17v33.5t-2 33.5q-4 35 -9.5 71t-19.5 77q-14 37 -41 77.5t-72 69.5zM109 199q27 -31 56.5 -52.5t57.5 -40.5q-29 18 -57.5 40t-54.5 53 q-27 29 -44.5 68.5t-21.5 80.5q-4 43 5 82t24 72q16 33 34.5 61.5t38.5 52.5q43 51 90.5 94.5t98.5 82.5q-2 0 -2 2q-98 -74 -184 -172q-23 -25 -41.5 -53.5t-34.5 -61.5t-25.5 -72t-5.5 -82q2 -43 19.5 -83.5t46.5 -71.5zM406 201q23 -4 46 -8.5t46 -6.5q-111 8 -207 66 q-23 12 -42.5 27.5t-31.5 31.5q-25 35 -22 72q2 41 28.5 87t65.5 87q37 41 81 78t91 72h-4q-23 -16 -44.5 -33t-43.5 -35q-39 -31 -74 -65.5t-62 -75.5q-29 -41 -40 -81t0 -73q10 -33 43.5 -60.5t78.5 -50.5q10 -4 21.5 -9t23.5 -9q4 -2 10.5 -4t10.5 -2q9 -4 25 -8z M852 401q2 -23 -6 -43q-6 -10 -15.5 -23t-23.5 -24q-29 -23 -68 -40t-82 -27q-86 -20 -175 -11t-163 50q-39 23 -59 43q-18 18 -22 36q-4 23 4 46q8 31 34 65q39 57 98.5 109.5t127.5 99.5q-4 4 -8.5 5t-8.5 5q-63 -47 -116.5 -97t-94.5 -106q-29 -35 -41 -68.5t-8 -55.5 q0 -20 21 -43q23 -25 59 -48q78 -47 170 -58t184 9q96 18 158 74q31 25 41 53q10 25 4 54q-2 -8 -4 -7.5t-6 2.5zM811 471q-37 49 -92 90q-43 33 -98.5 59.5t-116.5 61.5q-51 -35 -95 -73t-83 -79q-51 -53 -74 -106q-10 -27 -10 -42t4 -26q4 -12 21.5 -28.5t45.5 -32.5 q12 -8 27.5 -15.5t32.5 -13.5l18 -6h2l2 -2l8 -2q8 -2 15.5 -4t17.5 -4q66 -12 135.5 -8t133.5 26q31 10 58.5 25.5t45.5 34.5q20 18 27.5 33.5t7.5 29.5q4 33 -33 82z" />
<glyph unicode="9" horiz-adv-x="1167" d="M399 1599q-4 -2 -2 -1t0 1h4l5 3q8 4 10 6q43 16 93 25t103 5t104.5 -25.5t92.5 -56.5q41 -33 69.5 -69.5t51.5 -77.5t37 -82t24 -84q10 -41 14.5 -85t8.5 -81q4 -78 0 -155q-4 -80 -15.5 -161t-37.5 -161q-25 -80 -63 -156.5t-91 -144.5q-16 -25 -50 -60.5t-55 -56.5 q-94 -72 -192 -124t-201 -93q8 14 -6 23.5t-16 21.5q0 6 6 13.5t23.5 18.5t47 26.5t76.5 37.5q-4 4 -6 9.5t-6 9.5q-35 -16 -63 -25q-72 -23 -122 -24.5t-71 8.5q-23 14 4 40t109 71q92 51 183 119.5t159 166.5q57 82 92 187q-47 -25 -99.5 -45.5t-111.5 -32.5 q-41 -10 -88 -12.5t-98 8.5q-51 10 -99.5 36.5t-83.5 63.5l15 14q-23 25 -41.5 51.5t-32.5 53.5q-4 10 -12 26l-7 15l-2 6v2q0 2 1 0t-3 4v2l-2 4q-4 12 -7 25.5t-7 28.5q-25 113 -6 227q20 115 86.5 211t159.5 155q49 33 96 54q6 4 12 5t12 5l7 2h2q-2 0 -1 1t-3 -1h2l4 2 l12 4q14 6 27.5 10t27.5 9q57 16 123 11t125 -34q59 -31 100 -75t70 -93q31 -49 50.5 -101.5t31.5 -105.5q0 16 3 13l7 -7q-10 53 -29.5 106.5t-48.5 102.5q-29 51 -71.5 97.5t-102.5 76.5q-59 31 -127.5 37t-128.5 -10q-14 -4 -28.5 -9t-26.5 -9q-6 -2 -14 -7l-6 -2l-5 -2 l2 2h-2l-24 -12q-25 -10 -49.5 -22.5t-46.5 -28.5q-94 -61 -162 -155.5t-92 -209.5q-12 -57 -13.5 -114.5t9.5 -114.5l12 -55l4 -15l2 -6v-4l2 -2q2 -8 1 -6t-1 0h2q2 -8 4 -14.5t6 -14.5q23 -57 64 -110q-16 23 -29.5 43t-23.5 43q-12 20 -19 43l-2 6l-2 2v2v2q0 2 -2 4 l-2 10q-2 6 -4 11.5t-2 11.5q-25 82 -21 178q4 92 35 179t88 159q55 70 129 123q18 12 36.5 24.5t39.5 22.5q10 4 19.5 9t19.5 9zM733 717q4 8 4 14q-53 -29 -108.5 -53.5t-120.5 -40.5q-35 -8 -71 -12t-75 0t-77.5 18t-73.5 41q-35 25 -58.5 56.5t-39.5 66.5q-10 16 -17 33 l-6 18l-2 4v2q-2 0 -2 2v2l-2 9q-4 18 -8 35.5t-6 35.5q-16 102 6 209q25 109 90 199q33 45 73 81t85 64q23 16 46 27.5t46 21.5t48 18.5t52 12.5q-16 -2 -30.5 -6t-30.5 -8q-20 -8 -29 -13l-8 -2q2 2 0 0t-4 -2l-15 -6q-29 -10 -54.5 -25.5t-51.5 -31.5q-49 -35 -92 -80 t-74 -98q-63 -115 -70 -240q-2 -31 0 -62.5t9 -62.5q2 -29 12 -59l4 -15v-2l2 -2v2v-4v-2l2 -2l2 -8q8 -20 12 -29q14 -29 32 -58.5t44 -53.5q53 -55 125 -78t137.5 -13.5t122.5 25.5q88 27 172 72zM762 920q-47 -33 -95.5 -61t-99.5 -50q-70 -33 -142.5 -42t-119.5 24 q-31 23 -51 53q-23 35 -33 74q-25 86 -12 174q12 86 61 156.5t121 113.5q-72 -41 -122 -110.5t-62 -155.5q-8 -43 -4 -87t16 -89q4 -16 13.5 -37t19.5 -37q20 -33 53 -55q47 -33 119 -25t143 37q51 23 99.5 49.5t95.5 56.5v11zM629 881q41 25 74.5 47t58.5 37v39.5t-2 39.5 q-2 23 -3 47.5t-5 43.5q-12 84 -47 149q-35 68 -80 88q-18 10 -41 14.5t-58 -4.5q-53 -16 -101 -41.5t-85 -66.5t-60.5 -90t-29.5 -105q-6 -51 4 -112q2 -6 3 -13.5t3 -13.5l4 -14v-2l2 -9q10 -27 23 -45q25 -39 55 -53q16 -8 39 -12t51 0q39 4 92.5 25.5t102.5 50.5z" />
<glyph unicode=":" horiz-adv-x="495" d="M354 1196q0 -2 -1 1t1 -7v-2q0 -4 1 -6t1 -6q0 -12 -2 -27.5t-10 -32.5q-10 -29 -39 -57q4 2 8 -8q29 23 45 57q16 33 17 68q-2 4 -2 14v2q-2 12 -1 8t1 0h-2v4l-2 6q0 10 -9 27q-8 25 -28 47q-18 23 -41 35t-45 20q-23 6 -45.5 8.5t-46.5 -1.5q39 6 74.5 0.5t70.5 -27.5 q39 -23 63 -66q10 -23 17 -41v-6l2 -2v-2q2 -14 1 -10t-1 0q2 -4 2 -10q0 -16 -2 -27q-2 -27 -17.5 -56.5t-37.5 -47.5q-23 -18 -44.5 -25.5t-39.5 -11.5q-37 -6 -74 0q-16 4 -36.5 11t-43.5 26q-8 4 -20.5 20t-18.5 29q-10 29 -6 59l-4 4q2 4 2 5t2 6q6 29 21.5 56t37.5 44 q47 37 99 26q16 -4 33.5 -9t33.5 -15t31.5 -25.5t22.5 -36.5q-14 51 -60 72q-39 20 -82 19q-23 0 -46 -7.5t-46 -25.5q-23 -16 -39 -43t-24 -53q-10 10 -14.5 26.5t3.5 36.5q10 23 26.5 41t33.5 33q18 12 37.5 20t35.5 13q2 -4 3.5 -11.5t3.5 -11.5q43 16 87 5t78 -52 q8 -10 15.5 -21.5t11.5 -23.5l6 -25v-4l2 -4v-2zM197 1163v2h-2zM203 1159q0 2 2 4h-2v-2v-2zM238 1139l-2 2l2 -2l2 -2l-2 2v0zM25 428q-10 10 -14.5 27.5t3.5 36.5q23 47 60 73q35 25 73 33q2 -4 3.5 -10t3.5 -10q43 16 87 4.5t78 -52.5q8 -10 15.5 -21t11.5 -24l6 -24v-6 l2 -2v-2q0 -4 -1 0t1 -7v-2q0 -4 1 -6t1 -6q0 -14 -2 -29.5t-10 -31.5q-12 -33 -39 -56q4 2 8 -8q29 23 45 57q10 16 13.5 34t3.5 34q-2 4 -2 12v2v2q-2 10 -1 7.5t1 -0.5v2h-2v2l-2 8q0 8 -9 24q-8 27 -28 50q-37 41 -86 53q-41 14 -92 8q39 6 74.5 1t70.5 -28 q39 -23 63 -65q4 -10 8.5 -21.5t8.5 -21.5v-4l2 -4v-2q2 -12 1 -8t-1 -1q2 -4 2 -12q0 -14 -2 -24q-2 -27 -17.5 -57.5t-37.5 -47.5q-23 -18 -44.5 -26.5t-39.5 -12.5q-39 -6 -74 2q-16 4 -36.5 11.5t-43.5 25.5q-8 4 -20.5 19.5t-18.5 27.5q-10 31 -6 62q-2 0 -2 1t-2 1 q2 4 2 6t2 6q6 29 21.5 56.5t37.5 43.5q23 16 49.5 23.5t49.5 3.5q16 -4 33.5 -10t33.5 -17q16 -10 31.5 -25.5t22.5 -33.5q-6 23 -22.5 42t-37.5 30q-20 10 -39.5 14t-42.5 4q-23 -2 -46 -9t-46 -24q-23 -16 -39 -42.5t-24 -55.5zM197 418l-2 2q0 -2 2 -2v0zM203 412v2v2 l2 2q-2 -2 -2 -6zM238 393q0 -2 2 -2l-2 2l-2 2q0 -2 2 -2z" />
<glyph unicode=";" horiz-adv-x="610" d="M209 352q-2 -2 -10 6q-33 -59 -69 -114.5t-73 -120.5q53 102 105.5 191t107.5 175q4 4 7.5 9.5t5.5 9.5q37 14 53 45q8 -6 21.5 -12t23.5 -12.5t12 -15.5t-10 -21q4 -2 10 -5.5t10 -5.5l13 6q18 6 37.5 5.5t35 -9t24.5 -21.5t7 -32q-8 -45 -41 -84t-53 -84 q-16 -33 -31.5 -62.5t-38.5 -52.5q-35 -35 -57.5 -74.5t-52.5 -74.5q-10 -14 -10 -35.5t-15 -25.5q-12 -4 -33 2q6 25 15.5 50t21.5 48q16 29 37 55.5t43 52.5q-27 -23 -45 -50t-35 -58q-14 -23 -25.5 -46.5t-21.5 -47.5q-10 4 -17 6t-16 2q-2 -2 -2 -6q-2 -4 -2 -13 q-4 -2 -8 -3t-8 -3q-20 -4 -41 2t-37 17l-8 8l-8 8l6 8q23 43 38 84t44 82q23 27 38 57.5t31 59.5q-45 -61 -82.5 -132t-85.5 -147q-18 25 -12 47q25 51 49 99q4 -2 9.5 -4t9.5 -4q8 37 27.5 66.5t39 57t38 55t28.5 62.5zM258 1085q-10 29 -6 60l-4 4q2 4 2 5t2 5 q6 29 21.5 56.5t37.5 44.5q47 37 99 26q16 -4 33.5 -9t33.5 -15t31.5 -25.5t21.5 -36.5q-14 51 -59 72q-39 20 -82 18q-23 0 -46.5 -7t-45.5 -26q-23 -16 -39 -42.5t-25 -53.5q-10 10 -14 26.5t4 37.5q10 23 26.5 41t33.5 32q18 12 37.5 20.5t35.5 12.5q2 -4 3 -11t3 -11 q43 16 87.5 5t78.5 -52q8 -10 15.5 -21.5t11.5 -23.5l6 -25v-4l2 -4v-2q0 -2 -1 1t1 -7v-2q0 -4 1 -6.5t1 -6.5q0 -12 -2 -27.5t-10 -31.5q-10 -29 -39 -58q4 2 8 -8q29 23 45 58q16 33 17 67q-2 4 -2 15v2q-2 12 -1 8t1 0h-2v4l-2 6q0 10 -9 27q-8 25 -28 47q-18 23 -41 35 t-45 20q-23 6 -45.5 8t-47.5 -2q39 6 75 1t71 -27q39 -23 63 -66q10 -23 17 -41v-6l2 -2v-2q2 -14 1 -10t-1 0q2 -4 2 -11q0 -16 -2 -26q-2 -27 -17.5 -56.5t-37.5 -48.5q-23 -18 -44.5 -25t-39.5 -12q-37 -6 -74 0q-16 4 -37 11.5t-43 25.5q-8 4 -20.5 20.5t-18.5 28.5z M446 1124q2 -2 3 -2l-3 2l-2 2zM412 1147v-2q0 2 2 4h-2v-2zM403 1151l3 -2v2h-3z" />
<glyph unicode="&#x3c;" d="M29 748q27 25 62.5 44t74.5 37.5t79 37t77 40.5q53 33 106 61.5t111 51.5q80 29 156.5 69.5t154.5 73.5q14 6 28.5 17.5t29 24t26.5 20.5t22 8q12 2 19.5 -4t11.5 -15q-82 -61 -164 -108q-53 -29 -108.5 -53.5t-112.5 -46.5q57 16 112.5 42.5t108.5 57.5q43 23 85 47.5 t83 50.5q4 -8 9.5 -15t11.5 -11l24 18q14 0 21 -2q27 -4 37 -23.5t10 -42.5q0 -8 -4 -24l-15 -8q-66 -35 -127 -75t-133 -75q-53 -23 -104 -52.5t-100 -53.5q119 53 235.5 118.5t239.5 122.5q-4 -16 -12.5 -30.5t-24.5 -24.5q-78 -49 -152 -88q-2 4 -5 9t-5 9 q-49 -37 -100.5 -63.5t-103.5 -50t-104 -49t-100 -60.5q6 0 7 -10q102 55 201.5 105.5t205.5 105.5q-141 -78 -274 -149.5t-273 -143.5q4 -2 5 -3t6 -3q-2 -4 -5.5 -9t-5.5 -10q57 -25 108.5 -57.5t100.5 -67t98.5 -66.5t106.5 -56q-2 4 6 8q-104 63 -201.5 126.5 t-201.5 129.5q166 -98 321.5 -193.5t315.5 -199.5q6 -4 17 -11.5t17 -11.5q37 -53 97 -88q-10 -6 -14.5 -20.5t-12.5 -23.5t-20.5 -9t-36.5 20q-4 -4 -7 -10t-6 -10q4 -4 7.5 -9.5t7.5 -9.5q14 -25 18 -48t-3 -39.5t-24.5 -23.5t-48.5 3q-35 12 -71.5 33.5t-73.5 47t-75 51 t-76 46.5q-55 33 -110.5 64.5t-105.5 72.5q-68 57 -145.5 104.5t-146.5 100.5q-12 8 -31 16.5t-37 15.5t-32.5 14t-18.5 15q-16 16 0 35q8 -4 16 -7t17 -7l-3.5 7t-5.5 7t-9 5t-9 5q2 2 3 4.5t3 4.5q-6 18 2 26q-6 2 -13 4t-11 4l-7 13q-2 2 -2 3t-2 3q-2 6 -2 14 q-39 10 -50 37t24 60zM262 475q113 -70 207 -147q-47 43 -99.5 78.5t-107.5 68.5q-33 20 -65.5 38.5t-65.5 37.5q-8 -4 -10 -4q35 -16 70.5 -35t70.5 -37zM606 430q-72 49 -145.5 95t-149.5 93q-2 0 -4 -2q23 -14 47.5 -28.5t46.5 -30.5q47 -35 101.5 -66.5t103.5 -60.5z " />
<glyph unicode="=" horiz-adv-x="1335" d="M113 428q-12 4 -15.5 11t-5.5 18q98 18 201 24q123 2 246 -12q-121 23 -246 12q-51 0 -100.5 -4t-100.5 -10q0 10 -1 18.5t-5 16.5q-6 0 -12 -2q-4 -2 -9.5 -3t-9.5 -3q-4 4 -9 5t-9 5q-23 14 -24 35.5t10 44.5q4 4 7 10t7 12h18q78 4 152 13.5t158 5.5q57 -4 118.5 -2 t118.5 2q-135 8 -272 4t-279 -6q10 12 25.5 21t36.5 13q92 10 180 13q0 -4 1 -10.5t1 -10.5q61 10 121.5 9t119 -4t118 -5t118.5 6q-6 4 0 11q-119 0 -233.5 4t-239.5 0q193 8 373 6t366 -8h20.5t20.5 -2q31 -12 63 -17.5t62 -7.5q-4 -10 -1 -23.5t2 -25.5t-12 -18.5 t-42 -2.5v-22q8 -2 20 -10q25 -12 41.5 -29.5t19.5 -34t-9.5 -32t-40.5 -21.5q-37 -8 -79 -8t-86 2t-89 4t-88 0q-66 -2 -127.5 -2t-124.5 8q-86 14 -173 12t-173 4q-16 0 -35 -3t-37 -7t-33.5 -6t-23.5 2zM354 1030q57 -6 119 -3t119 3q-135 8 -273.5 4t-279.5 -6 q29 29 61 35q90 8 181 12q2 -4 2 -10v-10q61 10 121.5 9t120 -4t117.5 -5t120 6q-4 2 -3 5t1 5q-119 0 -233.5 4t-237.5 0q193 8 372 6t365 -8h22.5t20.5 -2q31 -12 61.5 -17t61.5 -7q-4 -10 -1 -23.5t3 -26t-11.5 -18.5t-41.5 -2q-2 -4 -2 -11.5v-11.5q12 -2 22 -10 q25 -12 41.5 -29.5t18.5 -35t-9.5 -31.5t-42.5 -23q-37 -8 -78.5 -8t-85.5 3t-89.5 5t-88.5 0q-63 -2 -125.5 -2t-123.5 8q-86 14 -174.5 12.5t-174.5 4.5q-16 0 -34.5 -3t-37 -7t-33.5 -6.5t-24 2.5q-18 6 -18 28q98 18 199 25q123 2 247 -13q-123 20 -247 13 q-51 0 -100.5 -4t-98.5 -11q0 10 -1 18.5t-5 16.5l-13 -4q-12 -4 -18 -4q-10 2 -18 10q-23 14 -24 36t9 42q8 16 15 23l16 2q78 4 152.5 13t158.5 5z" />
<glyph unicode="&#x3e;" d="M1102 428q-29 -25 -63.5 -44t-73.5 -37.5t-79 -37t-77 -41.5q-53 -33 -106.5 -61.5t-110.5 -50.5q-80 -29 -157 -70t-154 -74q-14 -6 -28.5 -17t-29 -23.5t-28 -20.5t-21.5 -8q-12 -2 -19.5 4t-11.5 14q82 61 164 109q53 29 108.5 53t112.5 47q-57 -16 -112.5 -43 t-108.5 -57q-43 -23 -85 -47.5t-83 -51.5q-4 8 -9 15.5t-11 11.5l-25 -18q-14 0 -20 2q-27 4 -37 23.5t-10 41.5q0 8 4 25l14 8q66 35 127 75t133 74q53 23 104.5 52.5t100.5 54.5q-119 -53 -235.5 -118.5t-239.5 -123.5q4 16 12 30.5t25 25.5q78 49 151 88q2 -4 5 -9.5 t5 -9.5q49 37 100.5 63.5t103.5 50t104.5 49.5t99.5 60q-6 0 -6 11q-102 -55 -201.5 -105.5t-206.5 -105.5q141 78 274.5 149.5t272.5 143.5q-4 2 -5 3t-5 3q2 4 5 9t5 9q-59 25 -109.5 57.5t-99.5 67.5t-98 66.5t-107 56.5q2 -4 -6 -8q104 -63 201.5 -127t202.5 -129 q-166 98 -321.5 193t-315.5 200q-6 4 -17.5 11t-17.5 11q-37 53 -96 89q8 6 13 20t13.5 23.5t20.5 9.5t37 -21q4 4 7 10.5t5 10.5q-4 4 -7 9t-7 9q-14 25 -18.5 48.5t2.5 40t24.5 22.5t48.5 -2q35 -12 72 -34t73.5 -47.5t74.5 -51t77 -45.5q55 -33 110.5 -65t104.5 -73 q68 -57 145.5 -104t147.5 -100q12 -10 30.5 -17.5t37 -14.5t33 -14.5t18.5 -15.5q16 -16 0 -35q-8 4 -16.5 7.5t-16.5 7.5q2 -4 3 -7.5t5 -7.5t9 -5t10 -5q-2 -2 -3.5 -4t-3.5 -4q4 -8 4 -14.5t-6 -12.5q6 -2 13.5 -4t11.5 -4l6 -12q2 -2 2 -3t2 -3q2 -6 2 -15 q39 -10 50.5 -36.5t-23.5 -59.5zM868 700q-113 70 -206 148q47 -43 99 -79t107 -69q33 -20 66 -38.5t65 -36.5q8 4 11 4q-35 16 -71 34.5t-71 36.5zM524 745q72 -49 145.5 -95t149.5 -93q2 0 4 2q-23 14 -47 28.5t-47 30.5q-47 35 -101.5 66.5t-103.5 60.5z" />
<glyph unicode="?" horiz-adv-x="1073" d="M553 178q0 -4 -1 0t1 -6v-2v-12q0 -33 -10 -62q-6 -16 -17.5 -30.5t-21.5 -24.5q6 2 6 -8q14 10 26.5 25.5t20.5 31.5q10 16 12 33.5t2 34.5v12v2v2q-2 10 -2 7t0 -1v2v2l-2 9q-4 16 -8 24q-8 27 -29 49q-41 41 -86 53q-43 14 -94 9q39 6 75 1t73 -28q41 -25 61 -65 q14 -25 16 -43l3 -5v-4v-2q4 -12 3 -8t-1 0v-12q2 -10 0 -25q-2 -27 -17.5 -57.5t-38.5 -46.5q-23 -18 -44 -26.5t-40 -12.5q-41 -6 -73 2q-18 4 -38 11t-42 26q-8 4 -20.5 19.5t-18.5 27.5q-10 31 -6 61q-2 0 -4 2q0 4 1 6.5t1 6.5q6 29 21 56.5t40 43.5q45 33 98 27 q16 -4 34 -10.5t34 -16.5t31.5 -25.5t21.5 -33.5q-6 23 -22.5 42t-36.5 29t-41 14.5t-43 4.5q-23 -2 -45.5 -9.5t-44.5 -23.5q-23 -16 -39.5 -43t-24.5 -55q-10 10 -14 27.5t4 35.5q18 47 59 74q35 27 74 33q0 -4 2 -10.5t4 -10.5q41 16 86 5t80 -52q16 -23 25 -45 q4 -8 8 -25v-6v-2zM393 145v2v-2v0zM399 139l2 2v2v2q0 -4 -2 -6zM424 154h2h-2zM436 121q0 -2 2 -2l-2 2q-2 0 -2 2q0 -2 2 -2zM846 1585q29 -35 47 -71.5t31 -73.5q10 -37 16 -72t6 -76q0 -80 -28 -155q-23 -51 -51.5 -93.5t-61.5 -76.5q-33 -37 -66.5 -67t-68.5 -56 q-72 -53 -140.5 -95t-130.5 -81q-20 -14 -41.5 -36t-31.5 -38q-10 -20 -11.5 -23.5t-7.5 -7.5q-10 -18 -28 -20q-4 14 -3.5 24.5t5.5 24.5q4 12 15 26.5t26 28.5q29 29 63.5 54.5t71.5 50.5q47 31 95 61.5t95 65.5t93 76.5t87 95.5q-41 -53 -87 -93t-93 -75t-95 -67t-95 -64 q-37 -25 -73 -49.5t-67 -51.5q-14 -14 -25 -27.5t-18 -27.5q-14 -27 -6 -53q-10 -2 -18 -2t-14 -9q-2 0 6 -17t18 -28q4 -10 5 -17t3 -13q6 -29 -6 -41q-20 -20 -61 -4q-18 6 -41 22q-4 10 -9.5 19.5t-9.5 19.5q-10 23 -14 51.5t0 57.5t13.5 53t21.5 43q25 39 52.5 65.5 t55.5 49.5q55 45 111.5 81.5t114.5 73.5q84 49 152.5 121t86.5 150q-14 -45 -42.5 -86t-67.5 -78q-41 -37 -86 -70t-95 -65q-49 -35 -99 -67t-103 -73q-27 -23 -53.5 -47t-49.5 -65q-10 -20 -18 -45t-10 -54q-4 -53 16 -102q-12 16 -23.5 38.5t-15.5 51.5t0 59.5t16 57.5 q16 33 34 55.5t36 40.5q16 18 34.5 33.5t35.5 27.5q35 27 66.5 48.5t62.5 44.5q4 -4 7 -9.5t7 -9.5q82 66 159 122t124 122q49 63 49 137q-2 16 -5 38t-9 40q-10 37 -35 63q0 -6 -3 -6t-8 -2q10 -10 16.5 -25.5t12.5 -33.5q4 -16 8 -36.5t4 -37.5q0 -66 -41 -127 q-41 -63 -115.5 -118.5t-160.5 -110.5q66 45 126 89t103 93q23 23 39.5 47.5t26.5 48.5q18 45 12 99q-4 29 -12 56.5t-21 45.5q-12 18 -24 27.5t-31 15.5q-37 14 -97.5 1t-119.5 -44q-10 -6 -25.5 -15.5t-25.5 -17.5q-23 -8 -42.5 -18t-35.5 -25q-35 -29 -45 -57 q-10 8 -23.5 10t-25.5 6q-10 4 -10 22.5t36 57.5q-4 4 -8 7t-8 7q-18 -12 -31 -24q-12 -10 -23.5 -20.5t-21.5 -20.5q-16 -16 -27.5 -29.5t-21.5 -21.5q-8 -6 -18 -2q-10 0 -17 18q-6 20 -3 52t22 69q41 84 108.5 140.5t151.5 97.5q43 20 89 34.5t97 22.5t106.5 7t114.5 -21 q87 -33 148 -103z" />
<glyph unicode="@" horiz-adv-x="1904" d="M1798 1141q8 -84 8 -167t-12 -169q-10 -88 -39 -174q-16 -45 -40.5 -91t-72.5 -89q-23 -23 -51 -39.5t-61 -26.5q-10 -4 -31 -8l-8 -2h-6h-2l-4 -2h-19q-18 -2 -37.5 1t-38.5 7q-39 10 -68.5 31.5t-51.5 46.5q-23 23 -37.5 46t-26.5 46q-4 10 -8 19.5t-8 19.5 q-4 -4 -5 -8t-5 -9q-29 -41 -67 -79.5t-97 -67.5q-59 -31 -127 -33q-35 -2 -66 4t-59 17q-41 16 -82 41q-23 16 -45.5 33.5t-42.5 39.5q-41 45 -63.5 93.5t-32.5 85.5q-31 145 18 282q4 10 6 17.5t6 17.5t9.5 19.5t11.5 19.5q23 35 55 63q31 29 63.5 46.5t65.5 29.5 q66 23 126 32t120 13q33 2 63.5 3t61.5 -1q-4 0 -3 1t7 -1h50.5t49.5 -2q-2 -2 -3 -2t-3 -2q29 -2 71 -4t97 -6v-4v-4v-8h2v-3v-6q0 -4 -1 -8t-1 -8q0 -8 -1 -15.5t-1 -17.5v-24v-50q4 -4 8 -5t8 -3q35 -18 -16 -30q2 -43 5 -86t9 -84q6 -49 15.5 -95.5t25.5 -87.5 q6 -20 14.5 -34.5t16.5 -24.5l6 -6q2 2 4 2t6 2q4 4 11.5 12t17.5 25q16 29 27.5 70.5t17.5 88.5q8 47 10 96.5t0 98.5q0 49 -4 99.5t-14 90.5q-4 12 -4 17q-2 4 -2 8l-4 10q-4 10 -8.5 20.5t-8.5 20.5q-10 23 -20 41.5t-23 36.5q-47 72 -114 121q-92 70 -221.5 83 t-262.5 -24q-131 -35 -250.5 -110.5t-210.5 -180.5q-90 -106 -133 -234t-26 -259q16 -133 81.5 -256t157.5 -225q35 -37 78 -73t96 -65q53 -31 110.5 -49t117.5 -26q59 -8 114.5 -4t102.5 12t84 19.5t61 17.5q68 23 82 22.5t8 -16.5q-74 -39 -153.5 -63.5t-163.5 -30.5 q-164 -12 -320 57q-76 35 -141 84t-123 113q-55 63 -101 132.5t-79 145.5q-41 94 -53.5 192.5t4.5 196.5q18 98 64 185.5t112 162.5q66 74 148.5 134.5t174 101.5t188.5 62.5t193 17.5q-94 4 -190 -15.5t-187.5 -59.5t-173 -99.5t-149.5 -132.5q-68 -76 -115 -165t-65 -188 q-18 -98 -5 -197.5t54 -195.5q31 -76 77 -145.5t101 -132.5t119.5 -113.5t140.5 -85.5q74 -35 155 -51.5t163 -12.5q84 4 163.5 27t155.5 59q-8 -12 -10 -23t20 -7l21 10q10 4 22.5 11t26.5 18q29 16 59.5 38.5t51.5 38.5l92 62q76 49 88 41q10 -10 -7.5 -45t-54.5 -82 q-20 -23 -42.5 -47.5t-51.5 -50.5q-23 -16 -48.5 -32t-49.5 -30q-117 -66 -250 -100.5t-272 -24.5q-141 8 -269.5 63.5t-232.5 147.5q-53 47 -97 98.5t-85 106.5q-82 113 -134 244q-25 68 -39 139.5t-16 144.5q0 150 53 291q39 98 100.5 185.5t140.5 161t171 132t193 99.5 q102 41 210.5 59.5t219.5 7.5q106 -8 206.5 -48t178.5 -111q-92 82 -207 122q-59 23 -121.5 33t-124.5 12q-127 2 -245.5 -30.5t-229.5 -87.5q-111 -57 -206 -136t-171 -182q-74 -100 -120 -220t-50 -249t32 -252t97 -229q31 -53 67 -102.5t77 -96.5t86 -89t98 -77 q102 -72 224 -111.5t249 -39.5q127 -2 247 31.5t226 91.5q-78 -55 -190.5 -103.5t-260.5 -56.5q-174 -4 -339 59q-80 33 -152 79t-133 102q-63 57 -113 118q-49 57 -94 129q-45 68 -79 143t-56 156q4 0 10 2.5t10 2.5q-33 113 -32.5 230.5t34.5 227.5q35 113 95.5 209 t138.5 174q78 80 168 141.5t190 104.5t208 67.5t220 20.5q111 -2 222.5 -37t203.5 -106q47 -35 85 -79t69 -91q16 -25 29.5 -49.5t23.5 -51.5q12 -27 23 -51q4 -12 9 -28.5t9 -30.5q12 -57 17.5 -109.5t9.5 -105.5t2 -107.5t-6 -107.5q-6 -55 -16.5 -110.5t-31.5 -113.5 q-23 -63 -63 -114q-23 -29 -52.5 -53.5t-68.5 -40.5q20 8 27.5 10t5.5 -1t-8 -7t-11 -9q41 16 71 43t52 56q23 29 37.5 58.5t24.5 57.5q23 57 33 112.5t16 111.5q6 53 7 106t-1 107q-4 53 -9 105t-18 112q-2 6 -3 13t-5 15q-4 12 -4 17q-2 6 -6 14q-10 31 -20 51 q-12 27 -24.5 52.5t-29.5 48.5q-31 49 -68.5 94t-84.5 82q-92 74 -204 110.5t-224 40.5q-113 4 -219.5 -17t-206.5 -62q-203 -82 -365 -236q-78 -76 -142.5 -168t-105.5 -203q-39 -104 -49 -217.5t12 -226.5q-35 176 7 348q23 90 60.5 171t88.5 153q104 143 244.5 244.5 t304.5 160.5q80 29 166 45.5t176 16.5t179 -19.5t173 -62.5t152.5 -109.5t116.5 -144.5q25 -39 43 -80t34 -82q10 -29 14.5 -50.5t8.5 -43.5q4 -23 6 -43t4 -43zM1087 1024q2 2 3 6q-10 0 -17.5 -1t-17.5 -1q-57 -4 -113.5 -10t-103.5 -23q-51 -16 -74 -39 q-12 -10 -15.5 -17t-13.5 -36q-10 -45 -5 -93t28 -85q20 -37 57 -57q20 -14 36.5 -18.5t27.5 -2.5q23 0 53 31q37 35 65 90q31 57 52.5 122.5t37.5 133.5zM1110 1161q2 6 2 19q-20 -2 -45 -2t-53 -2q-37 -4 -83 -7.5t-102 -15.5q0 -4 2.5 -10t2.5 -10q80 12 151 12 q33 0 63.5 -2t59.5 -6v10q2 4 2 14z" />
<glyph unicode="A" horiz-adv-x="1404" d="M276 776q-72 -168 -134 -344t-128 -346q-6 20 -8 43t4 47q18 59 37 115.5t39 111.5q4 -2 10 -3t10 -3q18 82 48 157t62 147.5t61.5 146.5t50.5 153q-4 -4 -6.5 -2t-6.5 5q-53 -152 -111.5 -294.5t-115.5 -297.5q86 242 173 482.5t173 475.5q4 10 9.5 27.5t9.5 27.5 q27 35 44 74t29 80q8 -8 23.5 -8t26 -5t12.5 -21.5t-15 -55.5q6 0 13.5 2t15.5 4q4 4 5 6t5 6q35 47 69 58.5t44 -23.5q43 20 61 -82q10 -59 19.5 -133t22 -152.5t29.5 -158.5t44 -152q25 -70 52.5 -137.5t56.5 -136.5q27 0 32 -8q14 -10 11 -33q-8 0 -14.5 1t-12.5 1 q0 -4 1 -5t1 -5q14 0 23 -2q-2 -8 -3 -16.5t3 -16.5h22q4 -4 6 -7t4 -7q12 -20 9.5 -42t-13.5 -38q55 -135 129 -266.5t142 -260.5q14 -25 35.5 -54.5t43 -57t39 -52t21.5 -38.5q6 -20 2 -27.5t-14 -11.5q-55 76 -108.5 152.5t-100.5 154.5q-57 98 -108.5 197.5t-94.5 203.5 q39 -104 91 -203.5t112 -197.5q47 -80 96 -157t102 -154q-10 -4 -17 -7.5t-11 -13.5q4 -8 12 -16q4 -8 11 -15.5t12 -13.5q4 -10 5 -17.5t3 -13.5q4 -37 -18.5 -44t-51.5 1q-8 4 -16.5 8.5t-18.5 8.5l-8 12l-8 12q-70 113 -144.5 224.5t-144.5 240.5q-41 88 -92 180.5 t-92 180.5h-2q96 -219 220 -427t243 -409q-23 14 -45.5 32.5t-42.5 45.5q-43 68 -85 134.5t-83 133.5q4 2 9 5t9 5q-66 92 -115 186.5t-94 192.5q-23 49 -45 103h-20q113 -244 249 -482q-143 240 -258 482q-113 2 -219 -10.5t-213 -34.5q-4 -2 -13 -3.5t-13 -3.5 q-33 10 -68 5q-8 -20 -15 -40t-18 -38q-8 -20 -13 -47t-11 -52.5t-11.5 -47t-13.5 -29.5q-10 -14 -18 -14.5t-19 3.5q16 68 35 135.5t41 133.5q4 8 5 15t5 15q-4 -8 -5 -15t-5 -15q-25 -66 -45 -131.5t-41 -133.5q-8 4 -15 8.5t-18 0.5q-2 -6 -4 -15q-4 -16 -4 -26 q-6 -8 -16 -19q-25 -20 -44.5 -11t-33.5 32l-7 14t-7 16l8 21q35 96 62.5 193.5t68.5 199.5q33 72 59 150.5t55 150.5zM877 387q4 -4 5 -10t5 -10h-2q-2 4 -4 10t-4 10zM569 362q66 10 128.5 11.5t127.5 -2.5q-2 4 -2 7t-2 7q-66 0 -128 5t-126 -17q2 -3 2 -11zM856 369 q-6 8 -8 16h-19q2 -6 7 -14q12 0 20 -2zM834 420q-4 0 -10.5 1t-10.5 1q0 -2 1 -3t1 -5h21q0 2 -1 3t-1 3zM803 422q-31 2 -62.5 0t-60.5 -4q31 -2 62.5 -2h64.5q-2 2 -2 3t-2 3zM719 575q12 -4 20 -4q-4 2 -10 2t-10 2zM768 567q-4 2 -9 2t-9 2v-2q4 -2 10 -2t10 -2z M725 664q0 -8 -3 -7.5t-7 0.5q4 -12 9 -23t9 -24q4 0 8 -1t9 -1zM455 688q-12 -27 -24.5 -52.5t-24.5 -53.5q20 4 40.5 7t40.5 9q47 10 95.5 16.5t95.5 -0.5q12 -2 23.5 -2t23.5 -2q-41 104 -75 213t-58 224q-4 -10 -6 -17.5t-6 -17.5q-29 -84 -57.5 -165t-67.5 -159z M391 639q-10 -16 -17 -32.5t-16 -33.5l2 2q8 16 15.5 32t15.5 32zM291 418q-4 -8 -8 -25h2q2 8 6 21v4z" />
<glyph unicode="B" horiz-adv-x="1300" d="M-33 1554q-35 14 -56.5 32t-25.5 34q-4 23 11.5 36t66.5 17q117 4 261.5 -18.5t289.5 -44.5q53 -10 107.5 -21.5t111.5 -34.5q29 -10 57.5 -23t61.5 -36q16 -12 32.5 -26.5t33.5 -36.5q16 -20 28 -50t17 -65v-23v-12l-2 -6v-2v-2q0 -6 1 2t-1 6q0 -12 -2.5 -23.5 t-6.5 -21.5q-12 -37 -32 -66q-18 -27 -37 -44t-37 -33q-35 -29 -71 -50.5t-70 -40.5q-31 -16 -62 -30.5t-59 -26.5q8 -2 14 -3t14 -3q0 -10 -4 -23q63 -8 126 -20t124 -33q61 -23 123.5 -50.5t122.5 -82.5q33 -33 55 -72q23 -47 27 -96q2 -53 -13.5 -94t-35.5 -74t-43 -59.5 t-45 -50.5q-25 -25 -50.5 -47.5t-52.5 -45.5q10 4 9 0t-1 -8q59 43 105 88q25 25 47 51.5t45 61.5q20 33 36.5 76t14.5 96q0 55 -26 104q-10 23 -24.5 41.5t-31.5 32.5q-33 31 -63.5 51.5t-63.5 36.5q-31 16 -61.5 27.5t-61.5 21.5q-61 23 -121.5 37.5t-121.5 28.5 q96 -20 191 -45t196 -76q27 -12 51.5 -28.5t50.5 -38.5q25 -23 48.5 -56t35.5 -76q14 -43 11 -86t-15 -77q-12 -35 -29.5 -63t-33.5 -50q-72 -92 -158 -153.5t-178 -106.5q-94 -45 -189.5 -76t-193.5 -53q-16 -4 -44 -9t-44 -10q-70 0 -136.5 -5t-132.5 -13q6 12 -2 24.5 t-7 24.5t21.5 21.5t86.5 15.5q0 4 -1 10t-3 10q-10 2 -21.5 2.5t-21.5 2.5q-53 4 -88 17t-42.5 29.5t13 34t78.5 31.5q12 4 24 6t23 7q2 47 1 92t-5 90q4 2 11 2h11q-10 66 -15 130t-8 127.5t-8.5 127t-15.5 129.5q0 2 -1 4t-1 4q-10 0 -14 2h-2q18 -131 28.5 -257 t14.5 -261q-6 133 -20.5 262t-33.5 260l-18 12q-27 16 -23 35q2 10 10.5 19.5t18.5 17.5q-23 160 -43 326q-2 10 -4 26.5t-4 26.5q8 61 6 117q-25 4 -48.5 8t-47.5 6q6 10 3 24.5t0 27t21.5 16.5t67.5 -4q0 4 1 11t1 11q-17 2 -33 12zM309 188q-2 35 -3 69t-3 69 q-4 84 -6 165.5t-4 165.5q-2 -82 2 -163.5t8 -167.5q0 -35 1 -69t1 -69h4zM963 547q2 -2 2 1t-7 11q-10 16 -40 37q-29 18 -67 33.5t-79 27.5q-82 27 -169 45.5t-173 38.5q-23 4 -48.5 6.5t-53.5 4.5v-23q2 -117 12 -237.5t2 -237.5q-2 -12 -1 -26.5t3 -30.5q10 2 19.5 3 t19.5 5q84 18 165 43.5t150 64.5q106 57 181 127q18 18 35.5 37t27.5 35q12 16 14.5 26.5t6.5 8.5zM899 651q25 -14 46.5 -29.5t35.5 -31.5q-14 16 -34.5 31.5t-45.5 29.5q-51 29 -108 47q-59 20 -121 35t-125 25q-111 20 -221 37v-7q55 -6 110.5 -13t110.5 -17 q61 -12 122.5 -26.5t118.5 -35.5q29 -10 56.5 -21.5t54.5 -23.5zM416 924q2 0 4 -2l12 6h-4q-8 -4 -12 -4zM670 881q-41 10 -81 17t-81 15q-2 0 -4 -1t-4 -1q59 -10 118.5 -22t122.5 -29q57 -16 118 -36.5t120 -49.5q31 -16 60.5 -35.5t58.5 -48.5t47 -69q16 -45 14 -86 q4 53 -18 100q-10 23 -25.5 41t-32.5 35q-33 29 -66.5 49t-68.5 37q-70 31 -138 49.5t-140 34.5zM879 1176q-23 -29 -47.5 -45.5t-47.5 -32.5q-25 -16 -48 -29.5t-48 -26.5q-92 -47 -184 -86q47 18 92 39t92 45q23 12 47.5 24.5t48.5 29.5q23 16 47.5 34.5t47.5 47.5z M764 1288q-2 -4 -5 -9t-9 -11q-23 -29 -66 -56q-39 -29 -85 -51t-93 -45q-53 -23 -106.5 -43t-108.5 -39q2 -2 2 -8q66 25 131 52.5t133 56.5q41 16 79 37.5t73 48.5q16 12 29.5 25.5t21.5 25.5q6 12 6 16v6v2v2v-2v-2q-2 -2 -2 -4v-2zM739 1290q2 -2 2 -3t-2 3zM737 1292 v-2v2v2v-2v0zM575 1356q6 -4 4.5 -6t-4.5 -4q39 -10 75 -23.5t59 -30.5q2 2 2 4l4 4v-2v-4l-2 -2q0 -2 1 -1t1 3v-4q0 -8 2 -10q2 -4 2 -6l6 6l4 4q8 8 8 10q-2 2 -14 11q-25 18 -65 31.5t-83 19.5zM453 1364q-51 10 -104.5 18.5t-106.5 14.5q12 -74 19 -158t24 -166 q41 16 81 31.5t78 32.5q2 -4 4.5 -10.5t4.5 -10.5q41 23 79.5 43.5t77.5 40.5q31 18 60.5 37.5t48.5 36.5q0 2 -10 8q-6 -6 -14.5 -12t-18.5 -15q-16 -10 -32.5 -20t-35.5 -21q-35 -20 -74.5 -38.5t-80.5 -34.5q63 29 122.5 59.5t104.5 65.5q6 6 12 11t10 9q-2 2 -4 3t-4 3 q-23 10 -51.5 20.5t-58.5 20.5q-31 10 -63.5 17.5t-67.5 13.5zM158 422q2 72 -8.5 149.5t-18.5 149.5q10 -141 21.5 -283.5t3.5 -279.5q2 0 4 1t6 1q0 63 -4 127.5t-4 134.5z" />
<glyph unicode="C" d="M96 258q-23 61 -38 123.5t-29 122.5q-4 14 -6.5 28.5t-4.5 28.5q-4 23 -6 39t-4 35q-2 66 0 133q8 129 35 255t82 251q29 59 67.5 119.5t94.5 113.5q59 53 131 92q35 16 79 29.5t95 11.5q16 0 40.5 -3t49.5 -13q25 -6 45.5 -16.5t34.5 -18.5q49 -41 79.5 -84t55.5 -84 t45.5 -82t38.5 -79q-14 6 -23.5 -8.5t-21.5 -16.5q-12 -4 -28.5 19.5t-57.5 101.5q-8 -8 -21 -13q6 -16 11.5 -28t9.5 -25q20 -59 22 -102t-6 -62q-10 -23 -38.5 -2t-69.5 88q-23 35 -47.5 71t-51.5 63t-47 36q-10 4 -18 5.5t-21 -1.5q-10 -2 -28.5 -7t-34.5 -15 t-31.5 -22.5t-32.5 -28.5q-31 -33 -55 -74t-43 -86q-29 -68 -46 -141.5t-28 -147.5q-4 -39 -8 -76.5t-6 -72.5q0 -16 1 -34.5t-1 -37.5q4 -10 3 -17.5t1 -15.5v-2v4v-2l2 -4v-12l2 -19q10 -55 20.5 -108t26.5 -102q14 -51 36 -94.5t46 -69.5q25 -23 47 -31q10 -2 26.5 -2 t35.5 8q39 10 82 36t84 58q31 23 66.5 60t66.5 76q33 37 59.5 68.5t42.5 43.5q23 20 33 19.5t14 -11.5q-80 -109 -172 -202q-47 -47 -95 -89t-101 -73q-68 -37 -125 -37q-53 2 -96 51q-43 47 -68 118t-41 146q12 -74 37.5 -145.5t66.5 -120.5q45 -49 99 -51q55 0 127 39 q53 29 102 70.5t96 84.5q90 90 177 199q4 -10 9 -17t15 -5q10 12 19 24q8 10 15 21.5t13 21.5l17.5 17.5t17.5 11.5q41 29 53.5 7t5.5 -62q-4 -10 -5 -23.5t-5 -28.5q-10 -8 -16 -16t-13 -18q-63 -78 -128.5 -150t-141.5 -141q-39 -35 -81 -67t-95 -60q-51 -29 -115 -43 q-33 -6 -67.5 -5t-69.5 11q-51 16 -89 48t-64 67q-29 39 -48.5 76.5t-35.5 76.5q-31 80 -49.5 158t-34.5 149q16 -86 36.5 -175t59.5 -179q20 -43 49 -87t70 -81q49 -43 108 -57q61 -18 119 -6q59 8 106.5 30.5t88.5 48.5q80 55 147 117q68 59 129 125t119 133 q-12 -35 -32.5 -72.5t-53.5 -76.5q-41 -45 -83 -87t-89 -83q-45 -41 -97.5 -79t-117.5 -69q0 4 -3 11.5t-6 11.5q-43 -23 -97 -36t-115 -1q-61 10 -109.5 44t-79.5 71q-33 39 -53.5 78.5t-36.5 80.5q-16 39 -27.5 79t-21.5 79q-10 41 -17.5 79t-15.5 77q-8 43 -10 86t0 86 q0 84 8 164t25 163q-4 -10 -7.5 -7t-5.5 7q-18 -82 -28.5 -162.5t-12.5 -164.5q0 -41 2 -84t13 -86q6 -39 14 -77t18 -77q20 -78 49 -157.5t87 -159.5q31 -39 76.5 -76t107.5 -53q59 -16 113.5 -10t101.5 24q-35 -14 -75 -21.5t-87 -2.5q-47 4 -93 23.5t-81 47.5 q-35 29 -59.5 59.5t-44.5 63.5q-37 66 -60 127z" />
<glyph unicode="D" horiz-adv-x="1372" d="M27 23q-23 18 -38.5 36.5t-21.5 32.5q-18 35 -12 45t16 10q39 -76 117 -118q39 -20 79 -27.5t79 -7.5q78 0 148.5 20.5t135.5 48.5q78 35 152 78t143 95q35 27 68 54t63 58q33 31 63 66t56 75q-27 -41 -56.5 -73.5t-60.5 -63.5q-33 -31 -65.5 -58.5t-67.5 -53.5 q-68 -51 -141.5 -96.5t-153.5 -80.5q-66 -29 -135 -47t-147 -18q-37 0 -76 8t-76 29q-37 18 -65.5 47t-46.5 63q10 0 18 2.5t12 14.5q-2 0 -16 28.5t-18 49.5q0 33 2 43q8 35 26 39q12 2 27 -9q-2 23 -2 43.5t-2 42.5h22q-12 78 -14 153t-1 149.5t1 149.5t-12 150 q-2 -4 -11 0q6 -152 7.5 -296t7.5 -297q-12 238 -19.5 466t-5.5 467v56q12 41 17.5 81t5.5 81q10 -6 23.5 -2t25.5 1.5t19 -15.5t3 -54h23q4 20 8 29q8 20 23 43q-12 2 -23 10q-29 16 -57.5 29.5t-59.5 27.5q10 2 11.5 11.5t2.5 18.5t5 16t18.5 7t41 -10t75.5 -35 q2 4 5 10.5t5 10.5q-29 14 -49 31q-55 39 -85 70.5t-29 50t35 20.5t106 -23q180 -61 387 -184q104 -59 204.5 -130t192.5 -157q66 -61 125 -137t98 -174q20 -47 30.5 -98.5t12.5 -104.5q2 -104 -32 -205q-10 -33 -24.5 -63.5t-31.5 -60.5q-18 -33 -38.5 -62t-43.5 -55 q-45 -51 -92 -94t-98 -82q-102 -78 -214 -136.5t-241 -85.5q-47 -10 -110.5 -18t-133.5 8q-71 17 -120 56zM86 264q-4 53 -8 108.5t-2 114.5q4 72 -1 151t-9 150q-2 -129 3 -258t9 -258zM219 393q2 -102 12 -207h9q-6 51 -11.5 102.5t-9.5 104.5q-4 80 -2 160t6 160 q-8 -78 -8 -159t4 -161zM246 137v10h-10v-10h10zM264 778q-10 -111 -5 -226.5t1 -225.5q0 -31 8 -71t11 -69q10 0 17 1t17 3q43 8 87 23.5t87 38.5q4 -4 6.5 -10t4.5 -11q61 35 119.5 75t111.5 83t101.5 91t80.5 98q31 53 50.5 113.5t15.5 119.5q-4 123 -88 229q4 -10 0 -9 t-8 1q76 -109 77 -221q4 -55 -12 -112.5t-45 -110.5q-29 -47 -74 -94.5t-98 -90.5q-53 -41 -110.5 -78.5t-116.5 -66.5q94 47 180 111.5t154 140.5q35 43 55 76q10 16 20 41q4 10 8.5 21t8.5 22q31 86 20 174q-10 86 -63.5 168t-130.5 153q-78 72 -171.5 134.5t-193.5 119.5 q-16 10 -46 24.5t-46 24.5l-43 31q6 -45 6 -94t-2 -100.5t-2 -103.5t4 -103q4 -80 7 -160t-3 -160zM946 578q16 31 27.5 61.5t17.5 60.5q-18 -72 -57 -139q-18 -29 -44 -59.5t-54 -59.5q-57 -57 -123 -105t-138 -89t-145.5 -68.5t-144.5 -32.5h-11q-4 -8 -8 -10q12 2 25.5 3 t25.5 3q82 16 165 54.5t167 89.5q59 35 115.5 81t103.5 99q23 27 43.5 54.5t34.5 56.5z" />
<glyph unicode="E" horiz-adv-x="1157" d="M18 43q-25 -4 -47 0t-35.5 15.5t-13.5 29.5t19 43q23 29 61 57q4 39 6 78t6 78h21q-4 57 -1 113.5t8 113t10 111.5t3 113q-4 4 -8 6t-8 6q-4 -117 -9 -228.5t-16 -228.5q6 119 9.5 234.5t7.5 232.5q-25 29 2 62q4 72 7 142.5t11 143.5q0 10 1 23.5t3 23.5q4 10 8.5 20.5 t8.5 20.5q-16 -2 -35 -10q0 10 -8.5 22.5t-11.5 23.5t3.5 20.5t32.5 15.5q-4 12 -8 21q-6 0 -11 1t-9 1q-49 8 -71 41.5t19 66.5q53 37 129 56.5t148 50.5q51 23 104.5 39t108.5 22q78 8 156.5 23.5t156.5 11.5q14 0 31.5 5t35 8t31 5t21.5 -4q10 -4 13 -12t3 -19 q-45 -4 -88 -11t-88 -13q-53 -6 -108.5 -12.5t-110.5 -12.5q106 6 219 25q45 4 88 7t88 7v-18t4 -17q4 0 11 2q4 0 9 1.5t9 1.5q6 -2 14 -11q16 -16 16.5 -38.5t-9.5 -43.5q-4 -10 -13 -18h-12q-61 4 -120.5 -6t-127.5 -15q-47 -2 -96 -15t-94 -23q111 20 220 37.5t220 5.5 q-10 -10 -20.5 -19.5t-26.5 -11.5q-35 -2 -69.5 -6t-69.5 -8q0 10 -4 22q-47 -16 -94.5 -23.5t-94.5 -14.5t-94 -18.5t-92 -35.5q4 -2 4 -10q92 31 182 50t189 30q-117 -16 -225.5 -46t-219.5 -67q2 -4 2 -14q6 -70 -5 -152t-15 -168q45 14 89 23.5t89 7.5q63 -4 125.5 2 t122.5 0q12 0 25.5 3t25.5 7t22.5 5t16.5 -3q12 -8 16 -31q-35 -6 -68.5 -11t-68.5 -9q-86 -6 -176 0q45 -6 89 -5t87 5q35 2 68.5 4t68.5 6q2 -10 3 -17t5 -16q4 2 9 2q8 0 12 2q6 -2 14 -10q16 -16 19.5 -36.5t-0.5 -41.5q-4 -4 -5 -10t-6 -12l-10 2q-55 -2 -106 -10.5 t-109 -5.5q-41 2 -82 -5.5t-78 -11.5q90 4 184.5 12.5t192.5 4.5q-14 -29 -39 -35q-33 -2 -63.5 -4t-61.5 -7q0 10 -4 23q-41 -12 -81 -15t-79.5 -4t-78.5 -5.5t-76 -22.5q4 -2 4 -10q74 18 149.5 24t161.5 10q-115 -10 -217 -25t-196 -44q-2 -16 -3 -31.5t-4 -32.5 q-14 -84 -18 -171t-16 -173q57 27 115.5 45.5t119.5 24.5q86 6 174 16.5t172 -0.5q14 0 34 2t38 4.5t34.5 3.5t24.5 -6q10 -6 12.5 -14t2.5 -18q-49 -2 -97.5 -4.5t-97.5 -6.5q-59 0 -118.5 -3t-120.5 -7q59 0 119.5 3t119.5 7q98 2 193 0q-2 -10 -3 -18t3 -16h12q4 0 9 1 t9 1q6 -4 15 -13q16 -18 13 -40.5t-15 -41.5q-8 -12 -15 -18l-14 2q-66 10 -130.5 6t-135.5 -6q-51 2 -104.5 -8t-100.5 -23q117 20 235.5 28.5t235.5 -13.5q-25 -25 -53 -27q-76 2 -150 0q0 4 -1 10t-1 11q-53 -10 -103 -15.5t-100 -9.5q-51 -6 -99 -17.5t-95 -37.5 q4 -2 4 -11q94 35 189.5 49.5t199.5 18.5q-322 -18 -586 -166q-4 -4 -14 -9t-14 -9q-53 -6 -99 -41q-4 10 -14 19t-17.5 19.5t-3 21.5t28.5 24q-4 4 -7 9t-5 9q-6 -2 -11.5 -3t-11.5 -1zM201 322q0 -8 -1 -15.5t-1 -15.5q2 10 2 31q6 70 13 139t17 139q-14 -68 -20 -137 t-10 -141zM78 676q-10 -117 -14.5 -232.5t-20.5 -230.5q4 2 5 3t5 3q4 47 6 95t7 102q10 61 10 130t2 130z" />
<glyph unicode="F" horiz-adv-x="1042" d="M33 1329q-49 8 -70.5 42t19.5 67q53 37 128.5 56t147.5 50q51 23 104.5 39t108.5 23q78 8 157 23.5t156 10.5q14 0 32 5.5t35 8.5t30.5 5t21.5 -4q10 -4 13.5 -12.5t3.5 -18.5q-45 -4 -88.5 -11t-88.5 -14q-53 -6 -108 -12t-111 -12q106 6 219 24q45 4 88 7.5t89 7.5 v-18.5t4 -16.5q4 0 10 2q4 0 9 1t9 1q8 -4 15 -10q16 -16 16 -39t-10 -43q-4 -10 -12 -18h-13q-61 4 -121.5 -6.5t-126.5 -14.5q-47 -2 -96 -15.5t-94 -23.5q111 20 220.5 37.5t219.5 5.5q-10 -10 -20 -19.5t-27 -11.5q-35 -2 -69.5 -6t-69.5 -8q0 10 -4 23 q-47 -16 -94.5 -23.5t-95.5 -14.5t-94 -18.5t-91 -36.5q4 -2 4 -10q92 31 182.5 50.5t188.5 29.5q-117 -16 -225.5 -46t-219.5 -67q2 -4 2 -14q6 -72 -7 -160t-13 -178q45 14 89 23.5t89 7.5q63 -4 126 2t122 0q12 0 25.5 3t25.5 7t22.5 5t16.5 -3q12 -8 16 -30 q-35 -6 -68.5 -11.5t-68.5 -9.5q-86 -6 -176 0q45 -6 89 -5t87 5q35 2 69 4t68 6q2 -10 3.5 -17t5.5 -15q4 2 8 2q8 0 12 2q6 -2 14 -11q16 -16 19.5 -36.5t-0.5 -40.5q-4 -4 -5 -10.5t-5 -12.5l-11 2q-55 -2 -106 -10t-109 -6q-41 2 -82 -5.5t-77 -11.5q90 4 184 12.5 t192 4.5q-14 -29 -38 -35q-33 -2 -64 -4t-61 -6q-2 4 -2 11t-2 11q-41 -12 -81 -15t-80 -4t-79 -5.5t-76 -22.5q4 -2 4 -10q74 18 149.5 24.5t162.5 10.5q-115 -10 -217.5 -25.5t-198.5 -44.5q0 -25 -6 -45q-16 -96 -19.5 -197.5t-21.5 -199.5q-2 -18 -1 -41t1 -45.5t-1 -41 t-8 -26.5q-6 -12 -14 -14t-18 0q2 59 3 115.5t5 115.5q6 70 13 139.5t18 139.5q-14 -68 -20.5 -137.5t-10.5 -141.5q-4 -57 -9 -114.5t-10 -114.5q-23 8 -34 2v-35q-4 -8 -15 -18q-20 -18 -41.5 -13.5t-38.5 21.5q-12 12 -18 20l4 17q14 80 15 160.5t12 168.5q10 61 10 130 t2 130q-12 -147 -18.5 -297.5t-36.5 -291.5q-10 16 -17.5 32.5t-5.5 36.5q4 47 7 94.5t8 94.5h20q-8 111 6 216t14 216q-12 8 -16 12q-4 -111 -9 -218.5t-15 -219.5q6 115 9 225.5t7 222.5q-25 29 2 60q2 150 18 307q0 10 1 23.5t3 23.5q4 10 8.5 20.5t8.5 20.5 q-16 -2 -35 -10q0 10 -8 22.5t-11 23.5t2 20t31 16q0 4 -2 10t-4 10q-6 0 -11 1t-9 1z" />
<glyph unicode="G" horiz-adv-x="1525" d="M51 387q-33 92 -41 182q-10 92 -5 181.5t24 179.5q18 88 49 173t78 167q23 41 51.5 80t58.5 73q35 37 73 70t85 59q16 10 39.5 20.5t48.5 20.5q27 10 52.5 16.5t41.5 8.5q74 8 141.5 -2t129.5 -27q63 -16 120.5 -38.5t110.5 -47.5q-8 -2 -10 -8t-2 -13v-15.5t-4 -12.5 q-6 -10 -48 2q-23 4 -56.5 17.5t-90.5 31.5q0 -4 -2 -10t-4 -10q41 -16 70 -33q74 -37 114.5 -75t48.5 -60q20 -51 -172 12q-55 16 -112.5 29.5t-112.5 15.5q-57 2 -107.5 -11t-97.5 -48q-23 -16 -44 -37t-44 -49q-41 -45 -76 -111q-66 -127 -88 -262q-16 -98 -11 -196.5 t34 -184.5q12 -39 35 -80q23 -45 49 -78q51 -66 112 -92q41 -18 96.5 -11t114.5 36t115.5 75t108.5 99q63 66 118 143q8 23 15.5 43.5t17.5 42.5q-39 -2 -75.5 -3t-73.5 7q-53 10 -110.5 7.5t-113.5 5.5q-20 2 -45.5 -9.5t-38.5 -1.5q-10 4 -12 12.5t-4 18.5q35 4 66.5 9.5 t64.5 9.5q41 0 80 -1t80 -10q-41 10 -80 12.5t-80 -1.5q-33 -2 -65.5 -3t-65.5 -6q-2 8 -3 16.5t-5 16.5q-2 -2 -6 -2q-4 -2 -13 -2q-6 2 -14 10q-16 16 -18 38t2 42q4 8 8 21l12 -2q51 -2 100.5 7t104.5 5q39 -4 80 0t80 4q-92 8 -184.5 0t-184.5 0q14 27 37 33 q31 4 61.5 5t59.5 3q0 -4 1 -10t1 -11q41 12 82 12.5t81 -2.5t80 -4t80 9q-4 2 -2 4t2 6h-159.5t-161.5 -4q117 10 231.5 13t233.5 -11q2 4 2 6t2 6l2 -4q8 -6 20 -10q4 -2 8.5 -2t8.5 -2h6q-23 10 -43 33q8 23 14 22q10 -4 18.5 -7t16.5 -7q0 -4 -1 -10.5t-1 -10.5 q12 4 22.5 0t20.5 -10t20.5 -8t22.5 6q-2 4 -1 6t1 4q-37 0 -82 23q35 -10 66.5 -12t62.5 -7h6q6 -25 17 -24q0 -14 -2 -33q-2 -16 -6.5 -36.5t-8.5 -45.5q2 -6 2 -22q8 -4 7.5 -3t-7.5 3q0 -25 -4 -48.5t-14 -33.5q-6 -6 -12 -6q-18 -59 -47 -121t-72 -111q-25 -39 -51 -70 q-4 -4 -6 -8t-7 -8q-12 -14 -24 -28.5t-25 -28.5q-6 -6 -12 -13.5t-12 -15.5q-31 -31 -63 -60.5t-66 -58.5q-29 -23 -57.5 -43t-61.5 -41q-41 -23 -85 -42t-93 -33q-49 -12 -103.5 -14.5t-107.5 7.5q-55 10 -104.5 36t-90.5 59t-72.5 69.5t-56.5 77.5q-51 76 -84 170z M1292 868q-8 6 -16 9q8 -4 10 -7q4 0 6 -2zM1212 485q-2 -4 -2 -6t-2 -6l13 19q0 2 4 10q-4 -4 -6.5 -8.5t-6.5 -8.5zM1182 387q-4 -10 -6 -18.5t-5 -18.5q4 4 6.5 8t6.5 9q2 10 4 18t6 18q-8 -12 -12 -16zM1071 532l-4 -8q6 8 11 15.5t12 15.5q0 2 1 3t1 3 q-4 -8 -10.5 -15.5t-10.5 -13.5zM989 221q2 4 2 6t2 6q-16 -12 -22 -20q-4 -8 -4 -12q8 6 22 20zM948 389q-74 -76 -161 -134t-177 -75q88 16 175 72.5t161 130.5q29 25 55 59q0 2 1.5 3t1.5 4q-14 -16 -28 -31t-28 -29zM618 25q-59 -10 -122.5 -2t-116.5 34q63 -35 137 -40 t139 12q68 16 127.5 46.5t112.5 67.5q18 14 35.5 27.5t36.5 30.5v10q-66 -55 -129 -96q-49 -31 -105 -55.5t-115 -34.5zM25 610q0 -16 -3.5 -13t-7.5 7q10 -121 52 -231q10 -29 23 -56.5t28 -54.5q16 -25 31.5 -49.5t35.5 -48.5q37 -47 87.5 -89t115.5 -69q63 -29 133 -32 t131 12q63 14 118.5 38.5t104.5 55.5q45 29 95 67l6 21q-23 -18 -46.5 -35.5t-49.5 -34.5q-47 -33 -102.5 -57.5t-117.5 -38.5q-61 -14 -128.5 -11t-129.5 27q-63 25 -113 66t-87 88q-20 25 -35.5 49.5t-32.5 48.5q-14 27 -27.5 53.5t-23.5 55.5q-23 55 -36 113.5t-21 117.5 z" />
<glyph unicode="H" horiz-adv-x="1388" d="M16 930q0 -147 -4 -286.5t-6 -287.5q-4 229 0 465t10 465q0 10 1 25.5t1 25.5q14 39 19.5 77t5.5 77q10 -4 24.5 0t26.5 2t18.5 -15.5t2.5 -52.5h20q4 8 5 14.5t5 12.5q12 31 30 50.5t35 23.5t31.5 -10.5t22.5 -51.5q8 -45 8 -101t-3 -115.5t-5 -120t0 -113.5 q0 -41 1 -81t-1 -81q29 6 58.5 11t58.5 14q59 16 118.5 26t121.5 8q84 -4 170 -1t167 -11h21q-6 86 -10 188.5t-8 192.5q0 10 -1.5 25.5t-1.5 25.5q12 41 16.5 80t2.5 80q10 -4 24.5 0t26.5 3t18.5 -14.5t4.5 -52.5h22q2 6 3 13.5t3 13.5q12 31 28.5 51.5t34 24.5t33 -10.5 t23.5 -49.5q8 -43 11 -98t4 -115.5t3.5 -120t8.5 -112.5q8 -78 13 -157t1 -156q-6 -109 -1 -222.5t-5 -222.5q0 -20 2 -44.5t4 -49.5t3 -45.5t-5 -30.5q-4 -16 -12 -18t-19 0q-4 66 -6 128t-6 128q0 154 6 311q-6 -78 -7 -155.5t1 -155.5q0 -66 1 -128.5t-1 -125.5 q-8 2 -16.5 2t-16.5 -4v-15q0 -6 1 -13t1 -11q-8 -16 -12 -21q-18 -23 -39.5 -18.5t-40.5 20.5q-4 4 -10 9.5t-10 11.5l2 18q8 90 2 180.5t-2 188.5q4 57 0 117.5t-9 120.5h-2q4 -154 7.5 -306.5t-13.5 -300.5q-10 16 -18 34t-10 40v105.5t-2 105.5h22q-12 84 -12 164v160 q-10 0 -17 2q6 -160 7 -318q-2 80 -5.5 159t-7.5 159q-25 0 -47 1t-45 1q-2 4 -2 11v11q-53 -10 -105.5 -10h-103.5t-102 -5t-103 -24q4 -2 4 -12q102 20 200.5 26.5t205.5 2.5q-164 0 -319.5 -22.5t-311.5 -61.5q-4 -2 -9 -3t-9 -3q-4 -78 -5 -157t-8 -155q0 -18 3.5 -42.5 t7.5 -48t5 -43t-3 -30.5q-4 -14 -12.5 -17t-18.5 -3q-14 125 -18 250q0 61 2 122.5t8 123.5h-2q-8 -61 -10 -123t2 -123q0 -61 2 -123.5t6 -124.5h-18.5t-16.5 -4q0 -6 2 -14q2 -6 2 -13.5t2 -11.5q-4 -14 -10 -20q-16 -25 -38 -24t-42 17q-4 4 -10 9.5t-13 9.5v20 q0 92 -6 183.5t-2 191.5q4 63 3 132t-1 134q-10 -160 -8 -321.5t-2 -321.5q-27 35 -33 76q-4 55 -5 109.5t-3 107.5h23q-10 76 -8 148.5t6 144.5t7 143.5t-5 145.5q-5 -4 -13 0zM1042 715v-13v13zM1016 717h-19v-8q4 0 9.5 -1t9.5 -1v10zM1006 864h-17v-4h17v4zM997 922 q-4 -6 -6 -5l-6 3q2 -6 2 -21q4 0 6 1t6 1q0 4 -1 9.5t-1 11.5zM907 864q-59 2 -117.5 3t-117.5 5q59 -6 117.5 -8t117.5 0q18 -2 37 -2t37 -2v4h-74zM838 721q-51 4 -105.5 -1t-103.5 -11q90 4 180 7t180 -5v6q-37 2 -73.5 1t-77.5 3z" />
<glyph unicode="I" horiz-adv-x="473" d="M88 948q-2 -6 -5 -4t-5 2q-2 -147 -7 -288.5t-10 -292.5q0 236 4.5 459t14.5 456v53q14 41 20 79t9 79q10 -6 24 -2t25.5 2t18.5 -15.5t1 -52.5h11.5t11.5 -2q4 16 8 29q12 31 30.5 50.5t35 22.5t32 -12.5t21.5 -52.5q8 -45 7 -97t-4 -106.5t-6 -111t-1 -111.5 q2 -80 1 -158.5t-12 -156.5q-14 -111 -15 -223.5t-11 -221.5q-2 -20 1 -44.5l6 -49t4 -44t-3 -30.5q-4 -14 -12.5 -17t-18.5 -3q-6 66 -10 129t-4 127q2 78 6 156.5t14 156.5q-12 -78 -17 -155.5t-3 -157.5q-2 -63 -1 -126.5t3 -127.5q-8 2 -16.5 2t-16.5 -4q2 -6 2 -14 v-14.5t2 -12.5q-2 -8 -10 -20q-16 -25 -38.5 -23t-43.5 18l-20 21l2 20q2 94 -3.5 186.5t1.5 194.5q6 72 5 149t1 146q-10 -166 -11.5 -338t-11.5 -338q-10 16 -19 35t-12 41q-2 57 -2 111.5v109.5h23q-10 76 -7 150t8 147.5t8 146t-5 148.5z" />
<glyph unicode="J" horiz-adv-x="1021" d="M70 156q-10 37 -22.5 86t-22.5 96t-15.5 88t-1.5 61q4 29 11.5 34t17.5 1q12 -127 37.5 -247.5t72.5 -241.5q14 -35 32 -72t40 -72q23 -35 54.5 -69.5t82.5 -57.5t109 -16q29 4 53.5 12.5t46.5 20.5q51 31 78 69.5t49 73.5q-23 -35 -49.5 -71.5t-75.5 -67.5 q-45 -27 -98 -33q-55 -8 -109 14q-51 23 -82.5 56t-56.5 67q-23 35 -40 72l-34 74q-45 121 -67.5 241.5t-30.5 243.5q10 -4 18.5 -5t14.5 7q-2 14 -2 29q-2 12 -2 24.5v22.5q6 25 14 37q14 31 35 26q23 -6 45 -41l18 -36v-33q0 -78 11.5 -158t31.5 -160q10 -39 21.5 -77.5 t28.5 -75.5q16 -39 34.5 -74t40.5 -63q33 -45 68 -52q18 -4 37 2q4 2 10 3.5t10 5.5q8 4 17 12q16 12 31.5 36.5t27.5 53.5t21.5 58.5t19.5 58.5q-20 -68 -53 -133q-16 -29 -33.5 -51.5t-34.5 -28.5q-27 -10 -43 -10t-37 12q-20 12 -39.5 35.5t-35.5 52.5q-33 59 -54.5 129 t-36.5 141q-16 72 -22 143.5t-4 139.5q12 -27 22.5 -58.5t16.5 -68.5q12 -92 33.5 -181t56.5 -167q-4 -2 -10.5 -5t-10.5 -6q14 -27 28.5 -51t31.5 -43q35 -37 53 -41q4 -2 8 -3t10 1q2 0 15 4q4 2 8 3t4 4q8 4 23.5 21t27.5 42q27 49 45.5 108.5t30.5 122.5t19.5 130 t7.5 133q-4 -10 -6.5 -7.5t-4.5 5.5q-4 -66 -13 -129.5t-21 -124.5t-28.5 -121t-41.5 -107q-10 -23 -23.5 -41t-21.5 -22l-8 -4q-8 -4 -13 -4q-10 -2 -14 0q-14 0 -41 32q-14 16 -26.5 40t-24.5 50q18 -41 42 -72.5t40 -41.5l10 -5t8 -1q4 2 7.5 2t9.5 4q2 2 6 2v2q-2 0 6 4 q16 16 35 53q10 16 17 37t16 43q27 88 43 188q10 47 16 97.5t10 99.5q2 51 6 98v48.5t-2 52.5q-4 102 -12 205.5t-20 209.5q-2 18 -5.5 49t-5.5 50q4 76 0 149.5t-12 149.5q12 -8 24.5 0t24.5 7t22.5 -25.5t14.5 -98.5q4 0 10 1t11 1q2 14 2 26.5t2 24.5q6 61 19 99.5 t29.5 46.5t34 -17.5t31.5 -91.5q16 -80 29.5 -175t24 -198.5t17.5 -211t13 -214.5q4 -78 0 -159q-2 -39 -6 -78l-8 -78q-10 -78 -25.5 -154.5t-44.5 -154.5q-23 -53 -47 -109.5t-74 -115.5q-12 -16 -27.5 -31t-37.5 -29q-10 -8 -19.5 -12t-19.5 -8t-20.5 -7.5t-20.5 -7.5 q-41 -14 -92 -11t-92 26q-41 18 -70 44.5t-51 53.5q-23 29 -38 55.5t-30 55.5q-27 55 -44 109.5t-27 107.5z" />
<glyph unicode="K" horiz-adv-x="1210" d="M25 696q-4 152 -9.5 301.5t-7.5 307.5v19t-1 29.5t-1 30v19.5q12 41 17.5 82t5.5 82q10 -6 23.5 -2t25.5 3t19 -14.5t3 -54.5h23q2 6 3 13.5t5 13.5q12 33 28.5 53t34 23.5t33 -11t23.5 -51.5q8 -45 10 -104.5t1 -123t-1 -128t6 -119.5q2 -35 4 -67.5t4 -67.5 q55 49 105.5 111.5t98.5 129t93 136t91 135.5l24 33q53 39 88 92q6 -8 19.5 -13.5t22.5 -12.5t9 -19.5t-20 -36.5q4 -4 9 -7t9 -5l19 12q25 14 48 18t38.5 -3t21.5 -25.5t-4 -47.5q-12 -35 -34.5 -76.5t-49 -86.5t-55.5 -89.5t-53 -82.5q-55 -84 -117 -152q10 -37 22.5 -73 t24.5 -70q-8 -4 -20 -9q27 -47 45 -96t36.5 -98t40 -96t54.5 -92q0 6 10 6q-51 94 -90 187t-74 194q59 -154 131 -297.5t150 -292.5l16 -33q6 -61 35 -113q-10 -2 -21.5 -11t-22.5 -14t-21.5 0t-20.5 34q-4 -2 -9 -5.5t-10 -5.5v-20q0 -27 -8 -47.5t-22.5 -31.5t-33 -9 t-36.5 22q-45 51 -76.5 128t-74.5 147q-31 51 -59 102t-44 109q-23 78 -55.5 157.5t-48.5 159.5v2q-41 -37 -84 -68.5t-90 -56.5q-4 -4 -6.5 -5t-6.5 -5q-4 -92 -6 -183t-12 -180q-2 -20 -1 -46.5t3 -52t1 -47t-7 -32.5q-6 -16 -14.5 -18t-18.5 0q2 68 1 135.5t1 132.5 q4 66 6 130.5t6 129.5q0 -2 -2 -2q-6 -66 -8 -129t-2 -129l-12 -264q-10 2 -18.5 3t-16.5 -3v-41q-4 -8 -12 -20q-20 -23 -42 -17t-40 25q-4 4 -9.5 10t-9.5 12l4 21q12 92 11.5 183t5.5 196q4 37 5 76.5t-1 80.5h-6q-2 -137 -5 -272t-26 -264q-25 35 -25 78q4 53 5.5 107 t3.5 108h22q-6 66 -6 128t2 123q-10 6 -12 15q0 -127 -6 -258q2 70 1 136.5t-1 133.5q-6 20 -4 39q0 4 1 6t1 6zM467 838q2 0 3 1t3 1l-2 2q-2 0 -2 -1t-2 -1v-2zM608 909q-4 -2 -5 -4t-5 -4q14 -43 30.5 -87t33.5 -91q12 -49 35.5 -98.5t45.5 -96.5q-37 94 -74.5 188.5 t-60.5 192.5zM506 737q18 -55 36.5 -110.5t35.5 -110.5q-14 57 -32 111.5t-40 109.5q-4 16 -10.5 31.5t-10.5 32.5l-2 -2q4 -16 10.5 -31t12.5 -31zM514 1182q-109 -145 -240 -256v-17q68 61 135.5 121t114.5 146q-4 -2 -6 1t-4 5zM444 1028q-41 -41 -81.5 -81t-86.5 -75v-6 l5 4q47 29 86.5 73t76.5 85zM270 686q0 -2 -2 -2q10 6 19.5 13.5t19.5 13.5q35 25 67 50t64 52l-2 2l-129 -104zM231 659q0 -2 -1 -3t-1 -3q0 2 2 2v4zM76 745v-16v16zM35 965q-2 -6 -4 -5l-6 3q4 -66 5 -127.5t3 -124.5l8 4q2 0 4 1t4 1v16q-4 0 -16 -4q4 8 7 16.5t9 16.5 q0 49 -2 99.5t-12 103.5z" />
<glyph unicode="L" horiz-adv-x="1003" d="M16 420q2 233 -8 461.5t-12 468.5v55q12 41 16 82t4 82q10 -6 24.5 -2t26 3t18.5 -14.5t3 -54.5h23q2 6 4 13.5t4 13.5q12 33 29.5 53.5t35 23.5t31.5 -11.5t23 -51.5q8 -45 10 -97t1 -108.5t-1 -114t6 -112.5q6 -82 10 -163t-2 -163q-10 -113 -9 -231.5t-15 -230.5 q-2 -14 -1 -30t1 -32h29.5t27.5 2q45 4 89 6t89 -6q61 -14 126 -16t126 -19q23 -4 53.5 2.5t40.5 -4.5q14 -10 10 -32h-71.5t-71.5 2q-45 4 -89 9t-87 15q43 -12 87 -17t89 -7q35 -4 71 -7.5t72 -7.5q-2 -8 -3 -16t3 -17h23q8 -8 10 -12q14 -20 12 -41.5t-12 -40.5 q-4 -4 -6 -9t-6 -9l-12 4q-51 10 -102.5 10t-106.5 8q-41 10 -83 8t-81 -2q92 -8 187.5 -11t187.5 -29q-20 -25 -45 -25q-31 4 -60.5 5t-60.5 3v23q-43 -6 -84 -3t-81 8t-81 6t-82 -9q4 -4 0 -13q84 4 162 0t162 -12q-129 8 -254 5t-254 -3h-29q-23 12 -44 16.5t-44 4.5 q4 14 -1 34.5t3 30.5q0 2 -1 2t-1 2l2 21q2 4 2 12q0 4 1 6t1 4q-10 10 -14 17q0 -10 -4 -27q0 -8 -2 -12l-6 12q-14 27 -19 66q4 53 6 107l4 108h21q-8 76 -6 150.5t5 148t2 148.5t-13 151q-2 -6 -5.5 -5t-5.5 3q6 -152 6 -294t-4 -294zM203 393q-2 -35 -2 -66.5t-2 -66.5 h4v133q6 164 18 324q-10 -78 -13 -159t-5 -165zM63 795q-4 -135 -3 -273.5t-11 -273.5q2 0 3 1t3 1l2 2q4 59 4 119.5t5 126.5q6 72 2.5 148.5t-5.5 148.5z" />
<glyph unicode="M" horiz-adv-x="1798" d="M25 76q-8 16 -14.5 37.5t-4.5 44.5q16 113 25 219h2q4 0 10 -1t10 -1q-2 78 6.5 152.5t17.5 149.5t16 149.5t5 152.5q-2 -2 -6 -2q-2 0 -4 2q-10 -154 -23.5 -297t-31.5 -297q2 10 2 17.5t2 17.5q-2 -10 -3 -17.5t-1 -17.5q23 236 36 467t35 473q2 10 3.5 27.5t3.5 27.5 q16 41 24 82t12 82q6 -4 15.5 -4t18.5 1t17.5 -1t12.5 -10q10 -14 2 -51h6q0 -6 4 -11q2 -2 10 -2q-2 4 -2 7.5t-2 7.5h11l6 12q4 12 8 16q-2 4 -3 8.5t-3 8.5l-2 4q0 10 4 22v2q10 29 32.5 31t45.5 -8q6 -4 12 -7l14 -7l4 -21q23 -92 57 -180t62 -188q18 -72 48 -145 t55 -140q-53 164 -111.5 328.5t-93.5 330.5q16 -12 28.5 -27.5t22.5 -37.5q16 -53 33.5 -105.5t36.5 -105.5q-12 -4 -21 -8q33 -70 57.5 -141.5t47 -143.5t47 -142.5t61.5 -140.5q0 8 10 4q-55 143 -104 280.5t-96 283.5q61 -174 125.5 -342t130.5 -342q96 197 183 392 t200 394q4 10 13 24.5t15 24.5q31 29 56.5 62.5t48.5 68.5q6 -8 17 -12t20.5 -9t13.5 -15.5t-6 -28.5q2 0 4 1t4 1v14q0 6 -1 13.5t-1 13.5q4 8 12 20q18 23 41 19t41 -21q6 -6 19 -22l-2 -19v-14q8 -6 14 -14q0 8 1 14t1 14q10 -16 18.5 -33.5t10.5 -40.5q0 -106 6 -210 h-11.5t-11.5 -3q12 -74 16.5 -145.5t7.5 -143t11 -143t27 -143.5q2 4 5 4t5 -2q-23 145 -34 283.5t-15 285.5q12 -227 41.5 -446t58.5 -453q2 -10 4 -26.5t4 -26.5q-8 -41 -8 -80t4 -80q-10 4 -23.5 -2t-25.5 -6t-21.5 12.5t-9.5 53.5q-4 0 -10 -1t-10 -1q-4 -20 -6 -29 q-8 -33 -23.5 -54.5t-32 -26.5t-33 7t-28.5 47q-12 43 -19.5 94.5t-13.5 105.5t-12 110.5t-16 109.5q-14 78 -25.5 158t-11.5 160q0 53 -3 108t-8 111q-2 -6 -4 -11.5t-4 -11.5q-33 -72 -65.5 -144.5t-73.5 -142.5q-29 -47 -55.5 -97t-53.5 -103q-14 -27 -27.5 -52.5 t-27.5 -50.5q-6 -12 -13 -25.5t-13 -25.5l-9 -12l-4 -6v-2h-2q4 6 3 4t-1 0l-2 -2q-6 -16 -14 -27q-8 -16 -16.5 -37.5t-18.5 -44.5q4 -25 10 -50.5t17 -47.5q-10 0 -20.5 -7t-22 -11.5t-21.5 1t-18 29.5q-16 -10 -29 -4v-6q0 -72 -32.5 -94.5t-73.5 43.5q-47 82 -81 193.5 t-79 215.5q-33 76 -62.5 153t-52.5 157q-10 43 -23.5 87t-29.5 89q-2 -72 -7 -141.5t-18 -141.5q-20 -113 -30.5 -231.5t-34.5 -231.5q-4 -20 -4 -46.5v-52.5t-3 -47.5t-10 -31.5q-10 -23 -32 -14q4 63 9 125.5t9 124.5q-8 -61 -14 -123t-17 -125q-8 4 -16 6t-16 -2 q-2 -8 -2 -17v-24q-4 -6 -7.5 -11t-7.5 -10q-10 -10 -18 -12q-16 -6 -32.5 1t-29.5 24q-10 8 -18 24l6 19q16 92 22.5 186t22.5 199q12 63 16.5 134t8.5 136q-18 -166 -34.5 -331.5t-53.5 -321.5zM1440 1399q-4 -6 -5 -12.5t-5 -12.5q2 -59 5 -118.5t3 -122.5q-2 -72 7 -147 t17 -144q-10 139 -20 280.5t-2 276.5zM1298 1137q-2 0 -2 -4q2 -57 3 -113.5t1 -116.5q2 59 1 117t-3 117zM770 193l4 8q-2 -2 -4 -2v-6zM807 575q37 61 67.5 132t61.5 137q-41 -76 -78 -152t-76 -153q-2 -4 -4 -7.5t-4 -7.5q0 -2 2 -4q8 14 14.5 27.5t16.5 27.5zM887 424 q37 72 75.5 141.5t79.5 139.5q-45 -66 -82.5 -136.5t-72.5 -144.5l-17 -31l-2 -2v-2v-2q0 2 -1 0t1 2l-4 -6l-6 -16q-4 -8 -8 -15.5t-8 -15.5q2 -2 2 -4q4 10 8 17t8 18l6 14l4 8h-2v-2v2h2l2 4zM987 1057q-59 -125 -115.5 -242t-117.5 -237q4 -4 5 -10.5t3 -10.5 q27 63 57.5 123.5t63 120t62.5 122t52 130.5q-6 -4 -10 4zM342 1135q16 -55 32.5 -110.5t31.5 -113.5q-12 57 -29 113.5t-35 114.5v-4zM256 627q-12 -66 -20.5 -130.5t-16.5 -131.5q10 66 18.5 131t18.5 131z" />
<glyph unicode="N" horiz-adv-x="1337" d="M6 1327q-20 29 -34.5 50.5t-16.5 37.5q-6 18 -1 25.5t15 11.5l86 -129l4 2l-79 129q10 4 17 6t11 13q-4 8 -10 16q-4 6 -9 13t-9 14q-4 10 -4.5 16t-0.5 12q0 35 21.5 41t50.5 -2q6 -4 14.5 -7t16.5 -7q4 -6 6 -11.5t6 -11.5q55 -104 123 -201.5t133 -209.5 q45 -78 103.5 -159t111.5 -155q-121 180 -241.5 363.5t-215.5 369.5q43 -23 76 -67q37 -59 74 -117.5t74 -118.5q-4 -2 -9.5 -5t-9.5 -7q61 -76 112.5 -154.5t101.5 -157.5t104.5 -157t120.5 -149q-2 8 8 8q-117 152 -218.5 302t-203.5 312q141 -215 286.5 -415.5 t303.5 -405.5q0 47 -6 96q-6 86 -12.5 168t-2.5 168q6 117 1 240t5 241q0 20 -3 48t-6 54.5t-3 48t6 34.5q8 27 31 18l12 -276v-169t-4 -169q8 84 8 168t-4 170q0 70 -1 138t-1 136q10 -2 18.5 -2t16.5 4q-2 8 -2 16v27q4 14 10 21q18 25 41 19.5t41 -22.5q4 -4 9 -10 t12 -12l-3 -21q-8 -98 -1.5 -194t4.5 -203q-4 -76 2 -156.5t10 -154.5q-2 178 -9.5 357t11.5 351q10 -16 18 -36.5t11 -42.5v-113.5t2 -114.5h-21q10 -80 11 -156.5t1 -154.5t3.5 -155.5t17.5 -157.5q2 6 4 5l6 -3q-10 160 -15 308t-7 306q8 -244 23.5 -481.5t19.5 -491.5 v-57q-8 -29 -12.5 -59.5t-8.5 -61.5q4 -8 10.5 -14t10.5 -13q-6 0 -12.5 -6t-10.5 -12v-4h-2q-8 -10 -18.5 -14t-28.5 12q-16 0 -23 24q-4 4 -8 9.5t-8 11.5q-2 -2 -6 -5t-8 -5q0 -2 -2 -2q2 -2 2 -6q6 -8 14 -29q16 -39 19.5 -69.5t-7 -45t-34 -9.5t-60.5 38q-43 41 -87 93 t-87 109.5t-88 117t-90 114.5q-66 82 -129.5 165t-116.5 173q-37 63 -78 125.5t-82 126.5q12 -186 28.5 -374.5t8.5 -389.5q-2 -10 -2 -25.5t-2 -25.5q-14 -39 -22.5 -76t-12.5 -76q-10 6 -24.5 4t-25.5 1t-17 15.5t2 49.5q-4 2 -11.5 2t-11.5 2q-2 -12 -10 -25 q-16 -29 -34.5 -44t-37 -16t-32 13.5t-15.5 46.5q-4 41 -2 87t5 94.5t5 98.5t-4 99q-6 72 -12 144.5t-4 146.5q6 102 -2 208.5t2 211.5q0 18 -2 42.5t-5 48.5t-4 43t5 30q4 12 16 16zM375 815q-35 66 -73 128.5t-79 123.5v-4q39 -61 76 -123t76 -125zM217 1079q-2 0 -2 -2 q4 -8 8 -14v4zM225 979q-4 6 -7 12t-7 13q10 -119 9 -235t22 -239q2 6 10 2q-8 117 -15.5 226.5t-11.5 220.5zM195 727q-2 80 -6.5 161t-8.5 163q0 4 -4 4q2 -14 2 -27.5v-28.5q-4 -66 4.5 -136t12.5 -136zM178 1137l-4 8v-2q4 -4 4 -8v2zM33 1292q-4 4 -5 6t-5 7 q2 -55 5 -110.5t7 -111.5q0 -74 1 -147.5t-1 -147.5q6 72 5 146t-5 149q-2 53 -3 104.5t1 104.5z" />
<glyph unicode="O" horiz-adv-x="1579" d="M16 549q-2 10 -3 21.5t-1 23.5q-4 45 -5 89t1 89q6 92 23.5 181t54.5 182q6 14 16.5 35.5t22.5 43t24.5 42t22.5 34.5q90 106 213 172q29 16 58.5 28.5t58.5 22.5q8 4 14 6.5t16 6.5q27 8 68 18q4 0 9 -1t9 -1q6 2 19 2q-4 0 -4 -4q6 0 12 -1t12 -1q139 -12 271 -51 q68 -23 133 -54.5t125 -78.5q59 -49 104 -113.5t72 -136.5q51 -143 41 -303q-8 -109 -43 -217.5t-94 -206.5q-61 -98 -146.5 -176t-189.5 -121q123 49 218 141t155 209q61 115 88.5 244t11.5 262q-8 66 -25.5 131.5t-52.5 124.5q-33 61 -80 112.5t-104 90.5 q-113 78 -237 111.5t-242 47.5q49 8 108 7.5t131 -17.5q86 -23 169 -61.5t155 -100.5q72 -61 122 -143t72 -168q-4 -2 -10 -4t-10 -2q39 -119 38 -238.5t-34 -232.5t-93.5 -213t-146.5 -180q-84 -80 -192 -133q-29 -12 -55.5 -22.5t-57.5 -20.5q-61 -16 -121 -19 q-121 -8 -238.5 26t-222.5 105q14 -12 8.5 -12h-10.5q102 -74 220 -109.5t241 -27.5q63 4 121 18q33 10 60.5 20.5t56.5 22.5q106 51 194 133q86 82 146.5 181.5t95.5 209.5q35 111 41 231t-23 240q45 -186 9 -372q-16 -92 -50 -177t-86 -163q-51 -78 -117.5 -143.5 t-148.5 -114.5q-41 -25 -84 -43.5t-94 -32.5q-92 -25 -192 -21q-199 10 -365 119q-80 53 -144.5 131t-101.5 172q-10 25 -17 49.5t-11 49.5q-4 12 -5.5 24.5t-3.5 26.5zM756 1384q0 -6 -2 -10q66 -10 129 -27.5t121 -46.5q156 -76 219 -231q37 -96 39 -198.5t-25 -201 t-80 -186.5t-127 -153q74 63 127 149t82 187q29 98 25 202q-4 53 -13.5 103.5t-27.5 97.5q-29 78 -84.5 136.5t-130.5 99.5q-57 31 -120.5 49t-131.5 30zM524 1442q-14 -4 -30.5 -10.5t-34.5 -16.5q2 -4 4 -9t6 -9q18 6 37.5 11t36.5 9q33 6 60.5 7t49.5 -1q14 0 35 -4 q0 4 -6 8q-14 0 -31 3q-14 0 -29.5 1t-29.5 1h-21q-14 4 -25.5 5t-21.5 5zM258 729q-2 -74 6 -143q6 -61 31 -111q35 -78 102.5 -133t151.5 -84t170 -25q23 2 44 5.5t38 7.5q23 4 42 11t40 17q57 25 107 68t91 97.5t71 118t46 130.5q16 68 18.5 136.5t-8.5 136.5 q-25 139 -106 229q-31 35 -85 64.5t-114 45.5q-59 18 -112.5 27.5t-79.5 20.5h-2q-18 -6 -43 -14.5t-58 -20.5q-47 -16 -92 -43t-86 -66q-78 -78 -123 -205q-23 -61 -35 -129.5t-14 -140.5z" />
<glyph unicode="P" d="M88 1548q-43 16 -69.5 36t-29.5 37t18.5 30.5t74.5 17.5q131 4 294 -27.5t326 -82.5q59 -20 118 -48t118 -71q29 -23 55.5 -49.5t48.5 -61.5q23 -35 39.5 -75t20.5 -83q10 -57 -3.5 -121.5t-47.5 -113.5q-35 -51 -76 -85t-82 -60q-84 -49 -166 -75t-162 -40 q-29 -6 -65.5 -16.5t-72.5 -18.5t-65.5 -13t-44.5 -1h-4q2 -29 3 -57.5t1 -59.5v-115.5t-4 -111.5q0 -20 3 -48t8.5 -55.5t7.5 -51.5t-2 -34q-4 -16 -12.5 -19t-18.5 -3q-10 63 -16.5 138t-8.5 140q-2 41 -1 81t1 81q2 43 1 85t-1 83q-2 -41 -2 -82v-84q-2 -41 -1 -82t3 -82 q0 -66 3.5 -139.5t11.5 -138.5q-23 4 -33 -4q0 -6 2 -15q2 -6 2 -14t2 -12q-4 -16 -8 -23q-14 -27 -35.5 -25.5t-44.5 15.5q-8 6 -22 20l-2 21q-4 98 -13.5 203.5t-5.5 210.5q2 18 2 36.5v38.5q0 16 -1 35t-3 37q-4 39 -9 76t-9 71q4 -41 7 -84t5 -84q2 -10 2 -21v-22 q0 -8 1 -19t1 -21v-86q2 -88 3 -186.5t3 -186.5q-12 16 -22.5 35.5t-14.5 44.5q-4 59 -6 125.5t-6 121.5q4 0 11 1t11 1q-4 39 -7 77t-3 75q-2 35 -3 72t-3 71q-4 72 -12 146t-29 149q-2 -6 -10 -2q10 -76 20.5 -147.5t16.5 -143.5q4 -35 5 -71.5t3 -67.5v-151q0 31 -1 60.5 t-1 57.5l-2 29v8v2v2v15l-6 55q-4 55 -10.5 111.5t-16.5 113.5q-14 115 -29.5 233t-21.5 244v28t-2 30q12 43 18 86t11 86q6 -4 14 -3t17 2t17.5 0t14.5 -9q8 -2 17.5 -2t19.5 -2l2 -3v11.5t2 11.5h-2zM981 913q-49 -49 -104 -79q-53 -33 -109.5 -55.5t-112.5 -41.5 q-86 -25 -172 -41t-172 -26v-11q86 14 172 33t172 45q55 16 110.5 38t111.5 54q27 16 53 36t51 44q25 27 45.5 58.5t30.5 70.5q-10 -37 -30.5 -68.5t-45.5 -56.5zM905 1153q18 -84 -45 -149q-33 -33 -79 -57.5t-97 -45.5q-90 -35 -185.5 -52.5t-193.5 -23.5q0 -10 2 -16 q217 25 430 111q41 16 80 40.5t62 55.5q25 33 30 67q2 8 2 16.5v16.5zM311 1395q-12 4 -30.5 6t-32.5 4q4 -76 5 -161t17 -169q10 -55 18.5 -111.5t14.5 -113.5q16 8 45 14q147 18 273 62q4 -12 8 -21q45 18 85 39t74 43q35 23 57.5 46.5t31.5 47.5q10 23 5 55.5t-26 61.5 q-20 29 -54 53.5t-75 40.5q6 -6 -4 -10q39 -20 69.5 -44t47.5 -50q18 -25 23 -52.5t1 -48.5q-12 -45 -78 -88q-33 -23 -72.5 -39t-82.5 -32q66 23 124 56.5t85 68.5q12 18 16 32.5t2 32.5q-6 43 -37 80q-35 39 -92 70.5t-125 56.5q-68 23 -141.5 40.5t-151.5 29.5z" />
<glyph unicode="Q" horiz-adv-x="1640" d="M18 578q-2 10 -3 21t-1 24q-4 45 -5 89t1 89q6 92 23.5 181t54.5 181q6 14 16.5 36t22.5 43.5t24.5 42t22.5 34.5q90 106 213 172q29 16 58.5 28.5t58.5 22.5q8 4 14 6t17 6q27 8 67 19q4 0 9 -1t10 -1q6 2 18 2q-4 0 -4 -4q6 0 12 -1t12 -1q139 -12 271 -51 q68 -23 133 -54.5t125 -79.5q59 -49 104 -113.5t72 -135.5q51 -143 41 -304q-8 -109 -43 -217t-94 -206q-49 -76 -115 -146l2 -4q90 90 150 203q61 115 88.5 243.5t11.5 262.5q-8 66 -25.5 131t-52.5 125q-33 61 -80 112t-104 90q-113 78 -237 112t-242 48q49 8 108 7 t131 -17q86 -23 169 -61.5t155 -100.5q72 -61 122 -143t72 -168q-4 -2 -10 -4t-10 -2q39 -119 38 -239t-34 -232q-33 -111 -91.5 -210.5t-142.5 -179.5q4 -8 9 -12q82 80 139 176.5t92 204.5q35 111 41 230.5t-22 240.5q45 -186 8 -373q-16 -92 -50 -177t-85 -163 q-27 -39 -55.5 -74.5t-63.5 -68.5q37 -51 82 -97t80 -100q16 -20 46.5 -38.5t32.5 -36.5q4 -10 -1 -17.5t-13 -15.5q-31 29 -61.5 57.5t-59.5 57.5q-35 39 -67.5 77.5t-61.5 79.5q27 -43 59.5 -82t69.5 -75q29 -31 56.5 -60.5t56.5 -60.5q-6 -6 -12.5 -11.5t-10.5 -13.5 q4 -2 9 -6q4 -4 6 -7t6 -5q2 -6 2 -19q-2 -23 -18.5 -38t-36.5 -21q-6 0 -23 -4l-8 12q-39 47 -84 87t-86 93q-25 35 -56.5 66t-60.5 59h-2q68 -80 143.5 -156.5t135.5 -162.5q-16 0 -30.5 3t-25.5 13q-25 27 -50 52.5t-50 52.5q4 4 8 7t8 7q-51 37 -88 81t-73 89 q-4 -2 -8.5 -3t-8.5 -3q41 -43 79 -86t79 -90q-41 45 -82 87t-82 85q-29 -16 -59.5 -26.5t-65.5 -20.5q-92 -25 -192 -21q-199 10 -365 119q-80 53 -144.5 131t-101.5 172q-10 25 -17 49.5t-11 48.5q-4 12 -5.5 25t-3.5 27zM975 78l2 2l-12 12q-53 -23 -105 -39 q-61 -16 -121 -18q-121 -8 -238.5 25.5t-221.5 105.5q14 -12 8 -12h-11q102 -74 220 -110t241 -28q63 4 121 19q33 10 60.5 20.5t56.5 22.5zM932 109q4 0 12 4q-8 -4 -12 -4zM952 117q4 2 9.5 4t9.5 4q-4 -2 -9.5 -4t-9.5 -4zM985 84q4 2 7 3t7 3q-4 4 -5 7t-5 7l-8 -4 l-8 -4zM1024 104q-4 4 -5 6.5t-5 4.5q6 -5 10 -11zM758 1413q0 -6 -2 -10q66 -10 129 -27.5t121 -46.5q156 -76 219 -231q35 -92 39 -192.5t-20.5 -197t-75 -183.5t-119.5 -152q68 61 116.5 144t75.5 177q29 98 25 203q-4 53 -13.5 103.5t-27.5 97.5q-29 78 -84.5 136 t-130.5 99q-57 31 -120.5 49.5t-131.5 30.5zM526 1470q-14 -4 -30.5 -10t-34.5 -16q2 -4 4 -9t6 -10q18 6 37.5 11.5t36.5 9.5q33 6 60.5 7t49.5 -1q14 0 35 -4q0 4 -6 8q-14 0 -31 2q-14 0 -29.5 1t-29.5 1h-21q-14 4 -25.5 5t-21.5 5zM260 758q-2 -74 6 -144 q6 -61 31 -110q35 -78 102.5 -133.5t151.5 -83.5q84 -29 170 -25q39 4 74 10l-62 68q-4 4 -11 13t-11 14q-8 29 -22.5 50t-31.5 40q10 4 18.5 15t17.5 19.5t20.5 6.5t25.5 -25l17 16l-6 19q-4 25 0 45t15 33.5t28.5 16.5t40.5 -9q25 -16 48 -40t45.5 -50.5t45 -54 t49.5 -52.5q63 63 109.5 145.5t68.5 174.5q16 68 18.5 136.5t-8.5 135.5q-25 139 -106 230q-31 35 -85 64.5t-114 45.5q-59 18 -112.5 27.5t-79.5 19.5h-2q-18 -6 -43 -14t-58 -21q-47 -16 -92 -42.5t-86 -65.5q-78 -78 -123 -205q-23 -61 -35 -129.5t-14 -140.5z" />
<glyph unicode="R" horiz-adv-x="1308" d="M70 1540q-82 35 -93 70q-6 23 13.5 36t75.5 15q129 2 289.5 -25.5t326.5 -64.5q59 -16 120.5 -35.5t125.5 -56.5q31 -20 62.5 -45t60.5 -66q31 -41 45 -90q4 -12 6 -25.5t2 -27.5l2 -13v-2v-4v-4v-6q0 -8 -1 -14t-3 -15q-4 -37 -18.5 -68.5t-30.5 -56.5t-36 -44t-38 -37 q-37 -35 -75 -61t-77 -48l-8 -4l-8 -4q6 -14 11 -28.5t9 -29.5q-8 -4 -20 -8q27 -47 45 -96t36.5 -98t40 -96.5t54.5 -92.5q0 6 10 6q-51 94 -90 187.5t-73 193.5q59 -154 130.5 -297t149.5 -292l16 -33q6 -61 35 -113q-10 -2 -21 -11t-22.5 -14.5t-21.5 0t-21 33.5 q-4 -2 -9 -5t-9 -5v-20q0 -27 -8.5 -47.5t-22.5 -32t-32.5 -9t-36.5 22.5q-45 51 -77 128t-75 146q-31 51 -58.5 102.5t-43.5 108.5q-23 76 -53.5 152t-49.5 154q-23 -10 -44 -17.5t-44 -13.5q-45 -16 -103.5 -42t-99.5 -38q10 -92 21.5 -182t21.5 -187q0 -10 1 -26.5 t3 -26.5q-10 -43 -11 -85t3 -83q-10 4 -24.5 -1t-26.5 -4t-19.5 14.5t-7.5 54.5q-4 0 -10 -1t-10 -1q-4 -16 -8 -29q-10 -35 -25.5 -55.5t-32 -25.5t-33 9.5t-26.5 48.5q-12 45 -17.5 97.5t-9.5 107.5t-9 112.5t-15 112.5q-14 80 -25.5 160t-13.5 164q-2 113 -15.5 230.5 t-9.5 234.5q0 20 -5 47t-8 51.5t-5 46t4 31.5q0 8 6 14q0 8 -1 18.5t4 16.5t19.5 9.5t43.5 -1.5q0 2 -1 3.5t-1 3.5q8 16 10 18q-8 4 -10 4zM72 883q2 80 -3.5 160.5t-13.5 164.5q-4 59 -7 115.5t-5 116.5q-4 0 -5 1t-5 1q6 -59 12 -116.5t10 -117.5q6 -82 10.5 -162.5 t6.5 -162.5zM236 827v-6v6zM281 825q-2 4 -2 13q-8 0 -17 -4v-15zM283 670q4 2 8 3t8 3q0 2 -1 4t-1 4q-4 -2 -8 -2t-8 -2q2 -4 2 -10zM297 610q2 6 4 5l6 -3q0 8 -4 25q-4 0 -6 -1t-6 -1zM307 678q72 27 143.5 53.5t141.5 56.5q-72 -29 -142.5 -53t-142.5 -47v-10zM618 956 q2 0 3 5q-2 -2 -3.5 -2.5t-3.5 -2.5q-80 -37 -161.5 -65.5t-165.5 -50.5q0 -8 2 -13q84 27 164.5 58.5t164.5 70.5zM629 803v2q-2 -2 -4 -2h4zM653 727q18 -55 37 -110.5t35 -110.5q-14 57 -31.5 111.5t-40.5 109.5l-12 37q0 -2 -2 -2q4 -8 7 -16.5t7 -18.5zM756 862l8 4 q-2 0 -2 2l-8 -4q2 0 2 -2zM891 518q-29 76 -60.5 151.5t-56.5 153.5l-4 -2q10 -27 19.5 -53.5t19.5 -54.5q12 -49 35.5 -98.5t46.5 -96.5zM1012 1049q-47 -55 -98.5 -90t-104.5 -64q-4 -2 -6 -4t-6 -4l2 -2q2 2 10 6q53 29 104.5 65t98.5 93zM831 1079q37 31 58.5 65 t17.5 56q0 -29 -28 -63q-12 -18 -31 -35t-41 -33q-29 -23 -58.5 -41t-62.5 -35q4 0 6 -1t4 -1q37 18 71.5 39.5t63.5 48.5zM231 1397q4 -47 7.5 -94.5t7.5 -94.5q-4 0 -11.5 -1t-11.5 -1q16 -86 22.5 -169t12.5 -169q12 4 14 4l2 2q-10 80 -16 161t-12 165q16 -166 37 -323 q68 23 134 46t130 52q4 -12 8 -21q45 25 88 48.5t84 48.5q39 23 74 49t57 53q18 25 23 43v2v4q0 2 -1 4t-1 6q-2 4 -4.5 9.5t-6.5 11.5q-16 23 -53 43t-82 33q4 -4 2 -6.5t-4 -4.5q41 -16 75 -36.5t46 -38.5q8 -8 8 -17q2 -2 2 -6v-2v-2q0 -4 -2 -12t-12 -21 q-18 -25 -51 -51.5t-72 -48.5q-78 -47 -168 -84q70 31 134.5 67.5t111.5 77.5q23 20 37 40t14 30v2q0 6 -2 8q0 6 -16 23q-14 16 -40 30.5t-57 28.5q-31 12 -65.5 23.5t-69.5 21.5q-72 18 -149.5 31.5t-157.5 26.5q-12 2 -31 4t-35 4zM195 1407q-4 2 -6.5 2t-6.5 2 q4 -72 11.5 -143.5t11.5 -149.5q0 -63 8 -130.5t18 -133.5h2q-12 139 -26 278.5t-12 274.5z" />
<glyph unicode="S" horiz-adv-x="1277" d="M33 336q-29 66 -43.5 123t-12.5 86q-2 41 6.5 48t18.5 3q12 -88 39 -174t74 -164q47 -80 116.5 -144.5t155.5 -99.5q104 -47 219 -57t228 25q55 16 107 44.5t99 73.5q45 43 75 104.5t32 131.5q-2 -66 -32 -127.5t-75 -104.5q-45 -45 -97 -73.5t-107 -44.5 q-111 -35 -226.5 -27t-222.5 55q-86 37 -154.5 101.5t-111.5 142.5q-47 78 -71.5 162t-35.5 170q10 -4 18.5 -6t14.5 10q-4 20 -6 39q-2 16 -4 32.5t-2 30.5q2 16 4 28.5t6 23.5q8 29 17.5 38t20.5 3.5t21.5 -19.5t20.5 -35q6 -12 12 -24.5t13 -28.5v-22.5t2 -22.5 q8 -106 41.5 -205.5t99.5 -177.5q68 -74 164 -115q100 -41 213 -41q78 0 156.5 32t125.5 91t41 133q-4 35 -17 70t-36 68q25 -39 39 -80t10 -80q-2 -39 -20.5 -74t-50.5 -63q-66 -57 -158 -79t-185 -7q-96 16 -173.5 62t-127.5 120q-51 74 -75.5 164t-30.5 182 q29 -68 61 -164q35 -113 102.5 -191.5t170.5 -109.5q-2 -4 -3 -11t-3 -11q78 -20 155.5 -18.5t147.5 28.5q70 25 114.5 72t49.5 102q2 57 -33 125q-10 16 -21.5 30.5t-23.5 30.5q-14 16 -26.5 28.5t-29.5 26.5q-66 55 -145.5 106.5t-161.5 104.5q10 -10 5 -10h-9 q78 -57 156 -108.5t141 -104.5q16 -14 28.5 -25.5t24.5 -25.5q12 -16 22.5 -29.5t20.5 -29.5q37 -59 37 -113q0 -49 -39 -94t-104 -72q-66 -27 -140.5 -29t-146.5 21q115 -35 227 -6q53 12 99.5 38.5t70.5 61.5q23 35 26 73t-19 85q-10 23 -24.5 44t-37.5 48 q-16 16 -39.5 36.5t-50.5 41.5q-53 41 -112.5 81t-120.5 83q-61 45 -123 94t-119 115q-29 33 -55.5 71.5t-44.5 85.5q-20 47 -28.5 102.5t1.5 110.5q4 27 13 52.5t20 48.5l10 22q2 4 4 9t6 10q6 10 12.5 21t14.5 22q29 41 68.5 77.5t91.5 61.5q18 8 42.5 17t53.5 14 q29 4 54.5 5t43.5 -1q72 -10 131.5 -38t112.5 -67q51 -41 93 -90t71 -117q-8 6 -14.5 3t-10.5 -9t-9 -12t-11 -6q-10 0 -37 32q-12 18 -34 47t-63 66q-4 -4 -7 -8t-7 -8q27 -29 43 -56q31 -51 35 -92q4 -33 -5 -51t-20 -24q-10 -10 -18 -5q-2 0 -8 7q-4 2 -10 8 q-8 10 -17.5 24.5t-32.5 38.5q-25 29 -61.5 53.5t-79.5 38.5q-88 29 -145 -10q-31 -23 -56 -63q-16 -25 -21 -43.5t-7 -36.5q0 -16 4 -34.5t14 -39.5q23 -43 66 -84q59 -61 138 -116.5t163 -114.5q43 -29 86 -60.5t88 -68.5q10 -10 22.5 -20.5t22.5 -22.5q6 -4 11 -10.5 t11 -12.5q4 -4 6.5 -7t6.5 -7l4 -4q2 -2 2 -3t2 -3q39 -49 69 -107q23 -41 36.5 -88t17.5 -100t-8.5 -106.5t-38.5 -98.5q-53 -94 -134 -147.5t-167 -77.5q-86 -25 -175.5 -26t-173.5 21q-84 20 -159.5 62.5t-132.5 103.5q-43 43 -88 106.5t-74 129.5z" />
<glyph unicode="T" horiz-adv-x="1224" d="M-25 1491q-25 14 -40 32.5t-17 36t11.5 31t43.5 19.5q37 6 80 4t87 -6t90 -8.5t89 -4.5q66 -2 129.5 -3t126.5 -11q86 -16 176.5 -15t178.5 -7q14 0 34.5 4t39 8t35 5t24.5 -3q12 -4 15 -12.5t3 -18.5q-51 -8 -102 -13t-102 -7q-121 -2 -252 16q61 -12 123.5 -16t128.5 0 q51 0 102 3t102 7q0 -10 1 -18.5t5 -14.5q6 2 13 2q12 0 18 2q6 -2 11.5 -4t9.5 -4q20 -16 20 -37.5t-10 -42.5q-4 -6 -8 -11t-8 -11h-17q-78 -2 -154.5 -9.5t-160.5 -3.5q-37 4 -75 4h-77v-6q117 -4 234.5 -2t234.5 0q-12 -12 -26.5 -21t-34.5 -14q-47 -4 -92 -5t-93 -3 q0 4 -1 10.5t-1 10.5q-57 -10 -112.5 -9t-108.5 5v-13q53 -4 106.5 -5t110.5 1q-55 -2 -110.5 -3t-108.5 1q-4 -84 -16.5 -174t-12.5 -180q-2 -82 -4 -163t-12 -161q-14 -111 -11 -226.5t-1 -225.5q0 -20 5 -45t10 -49.5t8 -44t-1 -29.5q-4 -16 -11 -20.5t-17 -4.5 q-12 66 -21.5 130.5t-13.5 129.5q-4 80 -1 161t11 161q-23 -162 -10 -322q2 -131 24 -260h-18t-14 -6q2 -6 4 -14q2 -6 2 -14.5t2 -12.5q0 -6 -2 -12t-4 -10q-14 -27 -36 -28t-44 13q-6 4 -12.5 9.5t-12.5 11.5l-2 20q-10 98 -22.5 195.5t-7.5 204.5q4 76 0.5 155.5 t-0.5 153.5q-10 -174 -4 -353.5t18 -357.5q-14 14 -25.5 33.5t-15.5 44.5q-12 119 -19 233h10.5t10.5 2q-12 80 -12 157t5 154t8 153.5t-3 156.5q-2 -6 -4 -5l-6 3q-4 -156 -9.5 -304.5t-1.5 -307.5q-10 248 -3 482t30 480q2 10 3 27.5t3 27.5q4 10 7 18.5t8 18.5 q-76 4 -150 9.5t-150 9.5q-8 2 -21 3t-22 1q-31 16 -62.5 22.5t-63.5 8.5q4 10 2 24.5t0 26.5t13 17t44 -1v23q-4 4 -10.5 5t-10.5 5zM412 1360q-20 0 -31 -2q6 -4 0 -10q6 0 13 -1t14 -1q2 4 2 7t2 7z" />
<glyph unicode="U" horiz-adv-x="1290" d="M131 240q-35 72 -54.5 140.5t-31.5 139.5q-25 139 -32 275.5t-3 275.5q0 25 1 64t3 61q16 94 29.5 186.5t26.5 186.5q8 -12 23.5 -5t26.5 2t15 -37t-10 -122q4 -2 10 -2h10q4 16 8.5 30.5t8.5 28.5q16 66 37.5 106t40.5 50q23 14 34 -17.5t9 -121.5q-4 -100 -10.5 -215 t-10.5 -238t2 -246t33 -235q16 -80 45 -154t68 -114q20 -23 36.5 -33t38.5 -15q43 -10 115 11q94 27 162 98q33 37 57.5 85t42.5 101q35 111 44 233t14 245q0 43 -6.5 100t-13.5 112.5t-12 102.5t-1 72q2 33 10 39t18 2q18 -147 32 -294t9 -292q-4 -88 -16 -174t-41 -164 q-27 -80 -71 -144.5t-107 -105.5q63 37 108 101.5t72 144.5q29 78 40 165t15 177q6 143 -4 288.5t-26 292.5q23 -12 35 3q-2 18 -5 34q-2 14 -4 29.5t-4 26.5q2 16 3 27.5t3 21.5q14 51 37 40.5t45 -46.5q6 -10 12.5 -22.5t14.5 -27.5l2 -45q8 -104 17.5 -207.5t13.5 -211.5 q4 -109 1 -221.5t-26 -233.5q-20 -84 -51 -171t-86 -165q-55 -82 -137 -137q-82 -53 -170 -76q106 25 196 90q45 35 81 76t65 88q55 94 82.5 195.5t38.5 201.5q23 203 12.5 396.5t-21.5 377.5q16 -35 28.5 -77.5t18.5 -96.5q10 -127 15.5 -252.5t-0.5 -255.5h-11.5t-11.5 3 q-2 -92 -14 -182.5t-43 -180.5t-86 -173t-139 -142q-41 -29 -86 -50.5t-93 -35.5q-47 -16 -99 -23.5t-107 2.5q-57 8 -109.5 36t-91.5 67t-66.5 81.5t-50.5 85.5q4 -14 0 -11t-8 5q20 -47 47 -90t68 -84q39 -41 92 -69.5t112 -36.5q59 -10 112.5 -4t100.5 22q47 14 92.5 36 t86.5 52q86 59 142 142.5t89 171.5q33 90 48.5 179t23.5 181q-4 -72 -14.5 -141.5t-30.5 -141.5q-18 -72 -49 -141.5t-80 -132.5q-47 -66 -113 -116t-139 -79q-37 -14 -76 -25t-82 -16q-43 -4 -89 0.5t-93 20.5q-45 16 -84 44t-68 60q-31 33 -53.5 68t-38.5 70z" />
<glyph unicode="V" horiz-adv-x="1394" d="M20 1325q2 43 -4 83t-16 81q10 -2 22.5 5t24.5 9t22.5 -10t16.5 -51q4 0 10 2t10 4q0 6 1.5 13t1.5 14q8 70 42.5 89t67.5 -46q18 -41 33.5 -88.5t31 -99.5t31 -105.5t37.5 -102.5q29 -72 58.5 -144.5t50.5 -150.5q27 -92 63.5 -184t67.5 -184q86 229 167 450t183 451 q4 10 12.5 27.5t12.5 27.5q31 35 53 73t43 79q6 -10 21.5 -12.5t25.5 -9.5t9 -23.5t-23 -53.5q4 -2 10 -4t10 -4q4 6 10.5 11.5t10.5 11.5q27 27 51 38t41.5 7t24 -24.5t-4.5 -59.5q-12 -47 -34.5 -98.5t-48 -104.5t-50 -109.5t-43.5 -113.5q-31 -82 -59.5 -163t-67.5 -159 q-53 -109 -97 -226.5t-97 -225.5q-8 -20 -15.5 -47t-15.5 -53.5t-16.5 -48t-16.5 -29.5q-10 -14 -18 -13.5t-19 4.5q23 68 46.5 136.5t45.5 134.5q33 80 67 159.5t71 157.5q-41 -76 -74 -154.5t-64 -162.5q-27 -66 -51 -132.5t-49 -132.5q-8 4 -15 8.5t-18 2.5q-2 -6 -4 -15 q-2 -6 -4 -14t-4 -12q-10 -12 -18 -19q-27 -16 -46.5 -3.5t-29.5 34.5q-4 8 -5 14.5t-5 16.5l10 18q4 12 10 24.5t10 24.5v2l-6 19q-4 -6 -6 -11.5t-4 -11.5v-4l-2 2q-4 -10 -9 -19t-10 -20q-6 29 -4 56q-18 14 -30 41q-23 51 -42.5 101t-41.5 99q14 4 20 11 q-37 68 -63.5 136t-51 138t-50 139.5t-60.5 136.5q0 -6 -3 -6h-7q55 -141 106 -273t107 -273q-90 217 -175.5 426.5t-154.5 439.5q-4 10 -8.5 26.5t-8.5 26.5zM596 338q2 2 2 6t-2 6q0 -4 -2 -6q2 -2 2 -6zM651 479q35 72 61.5 152t53.5 151q-41 -96 -77 -193t-75 -196l2 -4 q8 23 16.5 45t18.5 45zM807 1014q-53 -143 -105.5 -279.5t-109.5 -277.5q4 -6 5 -13.5t5 -13.5q20 76 50 147.5t59.5 142.5t58.5 142.5t49 149.5q-4 -4 -6 -2t-6 4zM549 457q-59 147 -103 297q18 -76 45 -150t58 -147q6 -14 11 -27.5t11 -28.5v2q-6 14 -11 27t-11 27z M381 496q-20 68 -51 138.5t-58 135.5q49 -145 110.5 -289.5t109.5 -287.5q4 12 8 18q-29 70 -59.5 138.5t-59.5 146.5z" />
<glyph unicode="W" horiz-adv-x="1878" d="M20 1362q2 43 -2 85t-12 83q12 -4 24.5 3t25 8t21.5 -11t13 -53q10 0 23 4q0 18 2 28q6 33 19 55.5t29.5 28.5t34 -5t31.5 -44q33 -82 53.5 -189.5t59.5 -211.5q29 -76 53.5 -152t40.5 -155q8 -35 15.5 -70t17.5 -72q41 154 85 307.5t101 311.5q4 10 9.5 25.5t9.5 25.5 q27 33 46 68.5t36 72.5q6 -6 15 -9t18.5 -5t16.5 -7t7 -18q4 -2 5 -2t5 -2t9.5 -4t11.5 -6l4 -4l2 -4q43 37 77 26.5t21 -75.5q-4 -16 -8 -30.5t-8 -31.5q14 -43 27.5 -85t27.5 -83q-12 -4 -20 -8q33 -70 54 -140.5t40.5 -141t42 -141t55.5 -140.5q0 6 3 5t7 -1 q-49 141 -92 277.5t-88 281.5q51 -150 101.5 -295t97.5 -295q57 205 122.5 403.5t151.5 401.5l25 58q31 37 53.5 77.5t42.5 81.5q6 -10 21.5 -11t25.5 -7t9 -23.5t-23 -58.5q12 -4 20 -8q6 6 11.5 12t9.5 12q27 29 52.5 42.5t42.5 9t23.5 -26t-3.5 -62.5q-14 -49 -37 -102 t-47.5 -109.5t-48 -116t-42.5 -118.5q-29 -86 -55 -170t-61 -168q-47 -117 -82 -242t-76 -241q-6 -23 -10 -51.5t-8 -57.5q2 -6 4 -13t4 -16h-13q-6 -41 -16 -53q-8 -14 -16 -16t-19 2q4 14 5 26.5t3 24.5l-8 4q-2 -12 -4 -24.5t-6 -24.5l-18 6q-8 0 -15 -2q0 -8 -2 -16 q-4 -20 -4 -29q-4 -6 -8 -11t-8 -9q-23 -23 -43.5 -13.5t-34.5 31.5q-4 6 -8 13.5t-8 15.5l8 22q0 6 2 8q-2 4 -4 6.5t-4 6.5q0 4 -5 8q-4 -16 -8 -27q-4 16 -8 36t-2 40q-29 78 -50.5 170t-53.5 178q-29 76 -54.5 151t-42.5 152q-12 53 -28.5 108.5t-32.5 110.5 q-16 -61 -33.5 -123.5t-42.5 -123.5q-41 -98 -68.5 -208t-68.5 -210q-6 -18 -10 -43t-9.5 -49.5t-10.5 -44t-13 -27.5q-8 -12 -16.5 -13t-18.5 3q4 23 9 42t10 40q0 10 -3 16q-2 -6 -3 -11t-3 -11q0 -6 2 -11h-4q-4 -16 -9 -30.5t-9 -28.5q-4 0 -8 4l-6 -12q-12 -18 -27 -21 v-2q-4 -6 -8 -9t-8 -7q-25 -16 -44.5 -7t-33.5 29q-4 6 -7.5 12.5t-7.5 14.5l9 18q0 2 1 3.5t1 3.5q-4 4 -6.5 7t-6.5 7q-4 -12 -6 -16q-10 25 -10 51q0 4 -4 12q-6 53 -16.5 103.5t-20.5 101.5q4 2 10 3t10 3q-25 70 -43 139.5t-35.5 140t-38 141t-53.5 140.5q0 -6 -3 -5 t-7 1q47 -141 87 -277.5t71 -277.5q-27 111 -59.5 218.5t-67.5 216t-70 220t-65 228.5q-4 10 -7.5 26.5t-5.5 26.5zM1217 477q23 70 41 142.5t40 140.5q-25 -66 -45 -134.5t-41 -136.5q2 -4 2.5 -6t2.5 -6zM1307 287q25 86 52 171t60 169q-35 -80 -62.5 -166t-49.5 -174 q-4 -16 -8.5 -31.5t-8.5 -32.5v-8q4 16 8.5 35t8.5 37zM1331 1004q-37 -113 -71.5 -222.5t-69.5 -220.5q2 -8 6 -20q35 117 77 227.5t70 232.5q-4 -4 -6 -1.5t-6 4.5zM909 1270q0 -2 -4 -10q16 -47 32.5 -93.5t31.5 -97.5q16 -72 42.5 -143.5t49.5 -139.5q-35 121 -76 242 t-76 242zM829 1042q-2 0 -2 -2q16 -57 31.5 -113.5t28.5 -113.5q-10 59 -26 115.5t-32 113.5zM496 588q14 47 25 96t26 94q-16 -43 -28.5 -87t-26.5 -89q4 -8 4 -14zM676 664q-31 -72 -54.5 -146t-43.5 -149q-6 -18 -11.5 -37t-11.5 -37q0 -2 2 -4q4 18 9 37.5t12 40.5 q23 74 46 147.5t52 147.5zM559 991q-23 -80 -43 -155.5t-43 -153.5l6 -25q27 82 52.5 163t39.5 169q-4 -4 -6 -2t-6 4zM469 516q-2 -2 -2 -4t1 -4t1 -4l2 2q-2 4 -2 10zM449 596q0 -6 4 -23q0 2 1 3.5t1 3.5q-2 6 -6 22v-6zM446 610q-8 39 -15 76t-15 76q6 -39 13 -78 t17 -78v4zM381 233q-4 -6 -5 -13t-5 -13q0 -10 1 -20.5t1 -20.5q4 10 6 19.5t6 19.5q-2 8 -2 14t-2 14zM324 510q-10 70 -34 142.5t-46 140.5q33 -123 66.5 -248t49.5 -248q4 12 7 16q-10 47 -21.5 95.5t-21.5 101.5z" />
<glyph unicode="X" horiz-adv-x="1335" d="M397 821q-109 -168 -206 -346t-203 -342q-2 23 2 46.5t16 47.5q31 57 61.5 113.5t63.5 112.5q4 -2 9 -5.5t10 -5.5q53 125 123.5 232.5t138.5 220.5q-4 4 -5 8t-6 8q-68 -113 -134 -223t-132 -227q66 117 129.5 230.5t130.5 228.5q-102 143 -202 294q-6 10 -17.5 28 t-19.5 28q-16 49 -39 93t-49 85q12 0 21 12.5t19.5 17.5t26 -6.5t37.5 -54.5q4 4 9 7t9 6q-4 10 -6 17t-4 15q-12 39 -11 69t13.5 43t35 6t52.5 -40q68 -76 132.5 -181.5t136.5 -205.5q41 61 82 122.5t86 125.5q6 10 18 25.5t18 25.5q39 33 72 68.5t62 72.5q4 -10 18 -15 t23.5 -13.5t5.5 -25.5t-37 -52q8 -8 16 -12q8 4 14.5 9t12.5 9q33 23 60.5 31t44 1t18.5 -29.5t-19 -61.5q-25 -47 -59.5 -95.5t-73.5 -100.5t-77 -106.5t-68 -109.5q-14 -23 -27.5 -46.5t-26.5 -45.5q23 -35 45.5 -69t43.5 -68q68 -119 149.5 -235t149.5 -234 q12 -23 31.5 -47.5t39 -48t33.5 -45t16 -33.5q6 -18 1 -25.5t-15 -11.5q-47 66 -93 130t-93 130q-53 82 -105.5 163.5t-101.5 165.5q45 -84 97 -165.5t110 -163.5q45 -66 89 -132.5t87 -131.5q-8 -4 -15.5 -7.5t-11.5 -11.5q4 -6 10 -14q4 -6 9.5 -13.5t9.5 -11.5 q2 -10 3 -16t1 -12q0 -33 -21.5 -40.5t-48.5 -0.5q-10 2 -30 10l-13 22q-57 96 -122.5 187.5t-131.5 195.5q-45 74 -101 150t-106 147q113 -174 233 -344t214 -346q-43 20 -76 62q-37 57 -72.5 111t-72.5 108q8 8 16 12q-86 102 -152.5 209.5t-138.5 212.5q-4 -4 -5 -7 t-5 -7q72 -102 139.5 -204t139.5 -208q-72 104 -142.5 203.5t-142.5 199.5q-74 -104 -139.5 -220t-137.5 -222q-12 -20 -24 -48t-23.5 -54.5t-22.5 -48t-22 -29.5q-12 -14 -21 -13.5t-18 9.5l69 138t71 136q47 82 96 161t102 157q-55 -74 -103 -154t-95 -164 q-39 -66 -75 -133.5t-73 -134.5q-16 16 -31 16l-18 -43q-6 -6 -12 -9t-10 -7q-29 -16 -45.5 -1t-24.5 40q-2 8 -3 16t-3 16l12 21q57 94 106.5 191.5t112.5 199.5q47 72 91 152.5t85 152.5z" />
<glyph unicode="Y" d="M41 1421q-4 4 -8 11.5t-6 11.5q0 25 -8.5 44t-18.5 36q10 4 20.5 14t20.5 16.5t19.5 4t17.5 -22.5q4 4 9 7t9 5v19q0 20 7.5 39.5t19.5 32t29.5 14.5t35.5 -13q23 -18 41.5 -44.5t34 -55.5t30.5 -58.5t34 -56.5q25 -41 46 -80.5t32 -82.5q10 -37 23 -72t28 -70 q86 109 167 217.5t173 216.5q4 6 11 14.5t11 14.5q51 25 86 68q6 -10 18.5 -17.5t20.5 -15.5t8 -19.5t-20 -29.5q4 -2 8 -6t8 -9q6 4 19 9q23 8 44 7t35.5 -11.5t19.5 -26.5t-5 -39q-25 -55 -77 -107.5t-91 -113.5q-31 -43 -60.5 -85t-68.5 -79q-53 -49 -101.5 -108.5 t-103.5 -108.5q-4 -4 -7 -8t-7 -11q-4 -29 -7 -57.5t-8 -56.5q-4 0 -11 1t-11 1q2 -55 -4 -106.5t-14.5 -102.5t-13.5 -102.5t1 -104.5q2 4 4 3t6 -1q4 104 15.5 202.5t27.5 203.5q-20 -164 -29 -321t-16 -318q-2 -6 -2 -17.5v-19.5q-14 -27 -18 -53.5t-4 -55.5 q-10 4 -24.5 1t-27 -2t-18.5 10.5t-2 37.5h-22q-2 -6 -4.5 -11l-4.5 -9q-12 -23 -29.5 -37t-35 -17t-31.5 7t-22 39q-16 66 -7 148.5t7 160.5q0 59 2 115.5t16 111.5q18 78 26.5 159t28.5 157q2 8 2 19v22l-43 86q4 4 9.5 6t9.5 6q-29 37 -45.5 76t-29.5 76.5t-30.5 75.5 t-44.5 71q0 -6 -8 -6q39 -72 69.5 -145.5t67.5 -153.5q-59 123 -114.5 234.5t-114.5 215.5zM508 881q0 6 2 10l-7 -7l-7 -7v-13q8 13 12 17zM492 1085q35 33 64.5 74t57.5 78q-35 -41 -69.5 -82t-69.5 -82l2 -4q5 6 15 16zM559 948q35 41 71 79t75 75q-41 -35 -76 -74 t-70 -80q-4 -4 -6 -7t-6 -7v-2q8 12 12 16zM664 1374q-49 -68 -100.5 -130t-104.5 -126q4 -8 6 -14q25 35 53.5 65.5t56 62.5t53 64.5t44.5 73.5q-2 -2 -8 4zM475 702q-12 -49 -15 -103t-7 -103q10 76 19 153.5t22 155.5q-2 -2 -5 -2q-4 -25 -7 -49.5t-7 -51.5zM444 1038 q2 -2 2 -4v2v2h-2zM436 1061q-4 4 -5 10t-5 12v-2q2 -6 4 -11t6 -11v2zM426 1083q-25 61 -43 129q12 -70 43 -131v2zM344 786q-8 -55 -18.5 -110t-22.5 -111q16 53 25.5 108.5t15.5 112.5q2 10 3 20.5t3 20.5q0 2 -2 2q-2 -10 -2 -21.5t-2 -21.5zM293 1032q-10 41 -31.5 79 t-38.5 73q23 -55 47.5 -110.5t51.5 -115.5q2 2 2 5h2q-17 28 -33 69z" />
<glyph unicode="Z" horiz-adv-x="1398" d="M1122 1411q2 -6 2 -16h13q-10 -12 -31 -27q-70 -82 -131.5 -163t-136.5 -173q-55 -63 -107.5 -138t-99.5 -142q123 156 241.5 311.5t247.5 298.5q0 -47 -30 -90q-39 -53 -78 -95t-76 -94q-4 4 -9 6.5t-9 6.5q-45 -78 -98.5 -146.5t-107 -136.5t-105.5 -137.5t-95 -147.5 q4 4 5 1t3 -7q100 147 201.5 280.5t208.5 274.5q-147 -203 -287.5 -399.5t-286.5 -401.5q10 4 18.5 5.5t18.5 5.5q70 14 139.5 24.5t143.5 5.5q98 -6 200.5 -10t200.5 -33q18 -4 41 -7t45.5 -6t40 -7t25.5 -12q10 -8 10 -16.5t-4 -16.5q-55 14 -112.5 23.5t-112.5 17.5 q-70 10 -137.5 17t-139.5 12q70 -8 137.5 -14.5t139.5 -14.5q57 -10 111.5 -22.5t107.5 -30.5q-4 -8 -6 -15.5t0 -17.5q6 0 12 -2q4 -2 10 -3t10 -3q10 -10 13 -17q14 -23 3 -42t-28 -34q-6 -6 -22 -14q-4 4 -7.5 4t-7.5 2q-68 29 -140.5 40t-152.5 22q-57 12 -119.5 10 t-119.5 -6q68 2 136.5 0t136 -10.5t132 -25.5t123.5 -46q-14 -6 -30.5 -10t-32.5 0q-41 12 -82 20t-82 14q0 12 4 21q-59 0 -118.5 4t-118 5t-118 -3t-118.5 -22q6 -2 5 -4.5t-1 -6.5q231 39 459 6q-180 23 -359.5 -0.5t-367.5 -64.5q-8 -2 -20.5 -4t-22.5 -6q-63 8 -133 -8 q2 10 -4.5 21t-8.5 22.5t4 20.5t31 15q2 4 4 9.5t6 11.5q-2 0 -2 4q-6 0 -12 1t-12 1l-4 2q-4 0 -7 2q-4 -4 -8 -6l-8 -4q-25 -16 -46.5 -19.5t-32.5 6t-11 32t16 57.5q25 49 58.5 100t72.5 104.5t79 106.5t75 108q53 80 107.5 158t115.5 150q88 98 170 200.5t168 200.5 q10 12 20.5 27.5t22.5 31.5q-166 -12 -328.5 -24t-330.5 -19q-8 -2 -20.5 -2h-20.5q-61 23 -123 17q4 10 1 24.5t-3 26.5t11 18.5t42 4.5q-2 4 -2 11v11q-6 4 -12 4t-11 4q-25 12 -40 28.5t-19 34t6 33t39 23.5q33 10 73 13t82 3h85t86 7q59 8 119.5 14t121.5 2 q82 -8 169 -2t169 2q14 0 34 4t38 8t33.5 5t25.5 -3q20 -6 17 -28q-49 -8 -97.5 -14.5t-97.5 -10.5q-119 -8 -241 0q59 -8 119.5 -7t121.5 7q49 2 98.5 5t98.5 7q-2 -8 -1 -17t5 -15q6 0 12 2q4 0 9.5 1t9.5 1q12 -8 16 -11q20 -16 20.5 -37.5t-10.5 -41.5q-4 -6 -16 -23 l-14 2h-13zM844 1393q-55 4 -113.5 -3.5t-114.5 -11.5q68 0 135.5 4t137.5 9q0 2 2 4q-12 -2 -23.5 -3t-23.5 1zM459 1323q104 10 201.5 14t199.5 9q2 6 10 18q-53 -10 -104 -11t-102.5 -1t-103.5 -3t-103 -16q8 -4 2 -10zM799 1196q29 37 58.5 76t57.5 78h-2q-2 2 -2 10 l-3 -6t-1 -6q-29 -37 -54.5 -76t-53.5 -76q-59 -76 -118.5 -140.5t-121.5 -135.5q63 68 123 133t117 143zM948 1393q0 2 2 4h-10l-2 -2q2 0 4 -1t6 -1z" />
<glyph unicode="[" horiz-adv-x="819" d="M2 1413q6 23 9 42.5t7 41.5q-2 18 0 33q2 4 2 6t3 6v35q4 -2 12 -2q10 18 24 20q16 2 33 4.5t33 4.5q10 2 19.5 3t19.5 3q0 -6 2 -11q4 4 8 6.5t8 6.5q-4 -2 -14 -2q4 0 9 1t9 1q4 2 13 2q49 4 100 7t98 -1q53 -2 103.5 -4t101.5 -6h23q31 -23 67 -23q-2 -10 -1 -23.5 t1 -23.5t-6 -16t-24 -2v-21q4 -2 6 -4t6 -4q14 -12 22.5 -27.5t10.5 -32t-5.5 -29.5t-23.5 -20q-23 -8 -46.5 -8t-50 2t-52 5t-50.5 1q-37 -2 -70.5 -1t-64.5 10q-23 6 -44 7t-44 1q0 -68 -1 -140.5t5 -142.5q6 -82 10 -163t-2 -162q-10 -113 -9 -232t-15 -231 q-2 -18 -1 -42t3 -46q39 4 76.5 4t74.5 -2q53 -2 103.5 -4t101.5 -7h23q31 -23 67 -22q-2 -10 -1 -23.5t1 -23.5t-6 -16.5t-24 -2.5v-20q4 -2 6 -4t6 -4q14 -12 22.5 -27.5t10.5 -32t-5.5 -30t-23.5 -19.5q-23 -8 -46.5 -8t-50 2t-52 5t-50.5 1q-37 -2 -70.5 -1t-64.5 9 q-43 12 -88 8t-92 1q-8 0 -18.5 -4.5t-20.5 -7.5t-18.5 -4t-14.5 3q-12 4 -16 27q29 6 55.5 12t54.5 10q68 6 133 -6q-33 10 -65.5 10.5t-67.5 -4.5q-29 -2 -55.5 -5t-54.5 -7q-4 20 -8 29q-2 -2 -7 -2q-4 0 -7 -1t-5 -1q-4 2 -6 4t-6 4q-14 16 -18.5 35.5t-0.5 36.5 q0 2 1 4t1 4q-4 14 -8 43q4 53 6 107.5t5 107.5h20q-8 76 -6 150.5t5 148.5t2 148.5t-13 150.5q-2 -6 -5 -5t-6 3q6 -152 6.5 -294t-3.5 -294q2 233 -8.5 461.5t-12.5 468.5v55zM248 193q27 0 53.5 3t52.5 1q-27 4 -53.5 4t-52.5 -2v-6zM455 233q-49 2 -102.5 4.5 t-106.5 0.5v-11h33.5t33.5 -2q37 -4 72 -6t70 4q-6 4 0 10zM254 1440q16 -2 32.5 -3t32.5 -5q-16 4 -32.5 6t-32.5 4v-2zM240 1569q29 0 57.5 3t56.5 1q-29 4 -58.5 4t-57.5 -2q0 -4 2 -6zM455 1610q-59 4 -123 5t-129 -3q8 0 18 -10q23 4 46.5 3t45.5 -3q37 -4 72 -6.5 t70 3.5q-6 5 0 11zM209 401q-2 -41 -3 -81.5t-3 -81.5h6v163q6 164 18 324q-10 -78 -13 -159t-5 -165zM203 223h6v13h-6v-13zM201 193h8v4h-8v-4zM125 1567q-8 -2 -16.5 -2h-16.5q0 -2 1 -4t1 -5q10 0 31 5q4 0 6 1t6 1q0 2 2 4h-14zM70 803q-4 -147 -4 -296t-17 -292 q4 2 5 2t5 2h4q4 70 4.5 139.5t4.5 147.5q6 72 3 148.5t-5 148.5zM47 188q-2 -6 -2 -14h14q0 8 2 14h-14z" />
<glyph unicode="\" horiz-adv-x="1331" d="M1038 70q-10 8 -23.5 31.5t-27.5 52t-30.5 58.5t-30.5 52q-88 117 -174 247t-181 247q-66 86 -124 175t-115 181q-39 63 -83 127t-86 126.5t-80 121.5t-63 119q-23 51 -16 82q2 25 27 24q37 -4 100 -59q6 -6 12.5 -13.5t14.5 -13.5q4 2 9 5t9 5q-31 43 -35 62.5t6.5 27 t24.5 10.5t21 13q49 -90 129 -166q8 -10 19 -29.5t19 -29.5q176 -264 343 -515t341 -515q-115 168 -222 324.5t-218 324.5q-2 -2 -3 -5t-7 1q49 -90 104.5 -171t113.5 -161t114.5 -162t105.5 -172q4 2 9.5 5t9.5 7q41 -61 79.5 -123.5t77.5 -127.5q16 -29 21.5 -57.5 t7.5 -55.5q-61 102 -124.5 195.5t-129.5 189.5q-66 98 -129 191.5t-129 185.5q53 -78 108.5 -165t112.5 -165q41 -55 76 -110.5t70 -108.5q33 -53 64.5 -107.5t64.5 -113.5q4 -6 7 -12.5t7 -12.5q0 -18 -4 -39q-4 -18 -13.5 -31.5t-21.5 -17.5q-18 -4 -39 14q-6 4 -22 21 q-4 12 -11.5 30.5t-9.5 18.5q-10 2 -16 -4t-13 -12q-41 76 -86 148.5t-94 143.5q47 -72 91 -147.5t81 -151.5q-10 -8 -18.5 -7.5t-20.5 14.5z" />
<glyph unicode="]" horiz-adv-x="919" d="M797 827q-10 -113 -9.5 -231.5t-15.5 -230.5q-2 -20 0 -47t3 -52.5t0 -47t-7 -32.5q-8 -23 -29 -18q-2 -12 -7 -18.5t-23 -2.5q0 -4 -1 -10t-1 -10q4 -2 6 -4t6 -4q14 -12 23.5 -27.5t10.5 -32t-6.5 -30t-23.5 -19.5q-20 -8 -45 -8t-50.5 2t-52 5t-51.5 1 q-37 -2 -70.5 -1t-64.5 9q-41 12 -86 8.5t-94 0.5q-16 0 -37.5 -11.5t-34.5 -1.5q-10 4 -14 27q29 6 55.5 12t52.5 10q70 6 134 -6q-33 10 -66 10.5t-68 -4.5q-27 -2 -54 -5t-56 -7q-4 20 -8 29q-2 -2 -7 -2q-4 0 -6 -1t-4 -1q-6 2 -12 8q-16 16 -19.5 35.5t-1.5 36.5 q4 12 7 20h10q43 0 86 9.5t92 9.5q35 -2 71 2t70 2q-41 4 -82 3t-81 -5q-41 -4 -80 -6.5t-80 -0.5q10 27 28 31q27 4 52.5 7t52.5 8q4 -12 4 -21q35 12 73 14t72 -2q37 -4 72 -6t70 4q-2 4 -1 6t1 5q-66 4 -139.5 6t-147.5 -6q57 8 115.5 11t113.5 -1q27 0 51.5 -1t49.5 -3 q4 53 5 106t3 107h20q-8 76 -6 150.5t5 148t2 148.5t-13 151q-2 -6 -5 -5t-5 3q6 -152 6 -294.5t-4 -293.5q2 233 -8.5 461.5t-12.5 468.5v24q-16 2 -31.5 2h-31.5q-37 -2 -71 -1t-64 9q-43 12 -88 8.5t-92 0.5q-8 0 -18.5 -4.5t-21 -7.5t-18.5 -4t-14 3q-12 4 -17 27 q29 6 55.5 12t55.5 11q68 6 133 -7q-33 10 -65.5 10.5t-67.5 -3.5q-29 -2 -55.5 -5.5t-55.5 -7.5q-4 20 -8 29q-2 -2 -6 -2t-7 -1t-5 -1q-4 2 -6 4t-6 4q-14 16 -18.5 35.5t-0.5 36.5q4 12 6 20h8q45 0 87.5 9.5t91.5 9.5q35 -2 71.5 2t71.5 2q-41 4 -82 3t-82 -5t-81 -6.5 t-81 -0.5q14 27 31 31q27 4 52.5 7t52.5 8q0 -12 4 -21q35 12 71.5 14t73.5 -2t72 -6t69 4q-6 4 0 11q-68 4 -140.5 6t-145.5 -6q57 8 115.5 11t113.5 -1q53 -2 103.5 -4t101.5 -6h22q20 -14 41 -21q6 -2 13.5 -2h13.5v-2q25 33 52.5 27.5t39.5 -62.5q8 -45 10 -97t1 -108.5 t-1 -114t6 -112.5q6 -82 10.5 -163t-1.5 -163zM600 541q6 72 3 148.5t-5 148.5q-4 -147 -4 -299t-16 -299h12q4 72 5 146.5t5 154.5zM737 436q6 164 19 324q-10 -78 -13.5 -159t-5.5 -165q-2 -55 -4 -111.5t-6 -111.5h10v223z" />
<glyph unicode="^" horiz-adv-x="1378" d="M111 205q-25 -16 -47.5 -20.5t-40 3t-24.5 25.5t3 47q12 37 34.5 73t48.5 73.5t51.5 75.5t45.5 77q31 55 64 110.5t73 104.5q57 68 103.5 145.5t99.5 147.5q8 12 16.5 30.5t15.5 37t14 33t16 18.5q18 12 37 0q-4 -8 -8.5 -16.5t-8.5 -16.5q8 2 17 8q2 4 4 9.5t4 9.5 q4 -2 5 -3t5 -3q14 8 25 -3q4 14 10 25q8 4 10 6l8 4q4 2 15 2q10 39 35.5 50.5t60.5 -23.5q25 -29 43 -63.5t36.5 -73.5t38 -79t42.5 -77q31 -53 59.5 -106.5t50.5 -110.5q29 -80 71 -156.5t73 -154.5q6 -14 18 -28.5t23.5 -29t19.5 -28t8 -23.5q2 -18 -18 -29 q-61 82 -109 164q-29 53 -53.5 108.5t-46.5 113.5q18 -57 43.5 -112.5t56.5 -109.5q23 -43 47.5 -86t50.5 -84q-18 -8 -26 -18l18 -25q2 -6 1 -11t-1 -9q-4 -27 -23.5 -37t-41.5 -10q-6 0 -12.5 1t-14.5 3l-8 14q-35 66 -74 127.5t-74 132.5q-23 53 -52 104.5t-56 100.5 q53 -119 118.5 -235.5t125.5 -239.5q-39 10 -58 37q-47 80 -88 151q4 2 9.5 5.5t9.5 5.5q-37 49 -63.5 100t-50.5 103.5t-49.5 104.5t-60.5 99q0 -6 -10 -6q57 -102 106.5 -201.5t104.5 -206.5q-78 141 -149.5 274.5t-141.5 272.5q-2 -4 -3 -5t-3 -5l-10 5l-10 5 q-25 -59 -57.5 -109t-66.5 -99.5t-67 -98.5t-57 -106q6 2 10 -7q61 104 125 201.5t129 202.5q-98 -166 -193.5 -321.5t-199.5 -315.5q-4 -6 -11.5 -17.5t-11.5 -17.5q-55 -39 -86 -96q-6 8 -20 13t-24.5 13.5t-10.5 20.5t21 37q-4 4 -9.5 7t-9.5 5q-4 -4 -10 -7t-10 -7z M610 862q-35 -47 -65.5 -101t-61.5 -104q49 72 95.5 146t93.5 149q0 4 -2 4q-14 -23 -29 -47t-31 -47zM528 1001q-35 -53 -69.5 -105t-75.5 -101q41 47 77 99t68 107q20 33 39 66t37 66q0 2 -4 10q-16 -35 -34 -71t-38 -71z" />
<glyph unicode="_" horiz-adv-x="1271" d="M766 123q-119 2 -233.5 8t-239.5 8q193 2 373 -5t366 -17q8 -2 20.5 -2h20.5q31 -16 61.5 -21.5t63.5 -7.5q-4 -10 -2 -24.5t1 -25.5t-12 -18.5t-42 -1.5q-2 -4 -2 -11v-11q6 -2 11 -4t11 -6q49 -27 56.5 -66t-52.5 -53q-37 -6 -78.5 -5t-86 5t-89.5 8t-88 2 q-63 0 -125.5 1t-124.5 11q-86 16 -174 16.5t-172 10.5q-16 0 -34.5 -3t-37 -7t-33.5 -5t-24 3q-12 4 -15 12t-3 18q98 16 199 19q61 0 122.5 -5t122.5 -16q-59 14 -120.5 18.5t-124.5 2.5q-51 0 -100.5 -2t-98.5 -6q0 10 -1 17t-5 15l-31 -6q-6 4 -10 5t-8 6 q-23 16 -23 37.5t10 41.5q4 6 17 23h16q78 2 152.5 8t156.5 0q59 -6 121 -4t119 -2q-135 12 -273.5 11t-279.5 3q29 29 63 35q92 6 181 6q0 -4 1 -11t1 -11q61 10 121.5 8t119 -8t117 -9.5t119.5 3.5q-4 4 -3 6z" />
<glyph unicode="`" horiz-adv-x="514" d="M399 1464q-4 -8 -10 -13t-14 -9q-10 16 -19.5 32.5t-19.5 32.5q-10 23 -20.5 43.5t-18.5 42.5q6 -23 16.5 -44t22.5 -42q8 -16 15 -33.5t14 -35.5q-8 -4 -15.5 -9.5t-13.5 -9.5q0 -2 2 -4q0 -2 1 -3t1 -3q-2 -4 -8 -10q-14 -16 -33.5 -25.5t-36.5 -13.5l-18 -6v6 q0 25 -12.5 44t-22.5 44q-4 20 -18.5 34.5t-26.5 28.5q23 -39 46 -75.5t19 -83.5q-25 -4 -28 2q-4 12 -9.5 23.5t-11.5 23.5q4 2 9.5 6t9.5 6q-16 10 -25.5 26.5t-19 34t-21.5 33t-33 25.5q0 -4 -8 -8q55 -53 88 -121q-29 49 -71.5 92t-83.5 96q-6 2 -11 13q2 31 -12 51 q8 4 19.5 13t21.5 16.5t17.5 8.5t11.5 -12q4 4 9 7.5t9 7.5q0 6 2 10q10 29 41 53.5t53 20.5q12 -4 21.5 -13.5t16.5 -20.5t16.5 -23.5t21.5 -20.5q16 -14 31.5 -29.5t23.5 -38.5q10 -31 31 -58.5t27 -64.5q4 -12 18 -24.5t6 -22.5z" />
<glyph unicode="a" horiz-adv-x="1073" d="M645 1028q-2 4 1 0t-7 8l2 -2q0 -2 1 -2t1 -2zM266 784q74 35 148.5 49.5t144.5 10.5q23 2 51.5 3t57.5 3q0 35 -4.5 65.5t-10.5 59.5q-8 29 -14 43q0 4 -4 8q-2 4 -4 5t-4 3q-20 18 -60 29q-41 8 -98 1t-123 -24q-10 -2 -28.5 -6t-30.5 -8q-49 0 -97.5 -7t-99.5 -18 q4 12 -3 24.5t-8 25t13 22.5t64 17q-2 4 -3 11t-3 11q-10 -2 -17.5 -1t-15.5 1q-74 6 -94 41q-10 16 1 35.5t52 36.5q47 18 105.5 34.5t127.5 32.5q72 12 151 21.5t173 -6.5q70 -12 137 -58q35 -27 55 -51q4 -6 13 -14l4 -4v-2h2q10 -16 7 -11.5t-1 0.5v-2l6 -8 q10 -16 16 -33q29 -66 37.5 -124t5.5 -111q-4 -147 -23.5 -289.5t-57.5 -273.5q-8 -33 -12.5 -77t-12.5 -79q4 -4 9 -5t9 -5q16 -12 9 -35t-52 -51q-49 -31 -115.5 -51.5t-144.5 -24.5t-161.5 12.5t-159.5 61.5q-55 33 -101.5 82t-70.5 114q-27 63 -28 134t24 135 q35 88 100 150t139 97zM569 258q4 0 9.5 -1t9.5 -1q14 55 24.5 108.5t20.5 106.5q12 -4 22 -4q4 39 7.5 77t7.5 74h-13q-4 -35 -10 -69.5t-12 -69.5q6 35 11 70t9 69q-43 4 -85 2t-81 -10q-2 4 -3 11.5t-3 11.5q-70 -23 -126 -50.5t-91 -72.5q-37 -47 -35 -98q0 -57 43 -97 q0 6 9 7q-33 41 -34 89t27 89q29 43 83.5 71.5t121.5 38.5q-53 -10 -97 -30.5t-75 -49.5q-61 -61 -49 -133q4 -35 26.5 -64.5t57.5 -49.5q35 -23 80 -30t98 -1q10 0 23.5 2t23.5 4zM211 463q20 70 83.5 117t145.5 65q109 25 219 12q0 6 3 11q-129 6 -263 -29 q-35 -10 -66.5 -26.5t-56.5 -41.5q-27 -23 -42 -51t-23 -57zM676 666q-8 0 -10 2q-2 -4 -2 -13h12v11zM690 805v6h-14v-4v-2h14zM766 195q0 -6 -4 -19h8q2 6 3 11.5t1 11.5q10 53 20.5 108t20.5 109q18 96 34.5 191t27.5 198q-14 -98 -30 -194.5t-32 -194.5 q-22 -110 -49 -221zM721 850q0 10 -1 22.5t-1 22.5v-45h2zM717 801h4v8h-4v-8zM707 664q0 -4 -1 -7.5t-1 -7.5h8q0 8 2 13q-4 0 -5 1t-3 1zM700 614q-4 -27 -8 -52t-8 -52q-10 -66 -24.5 -128.5t-32.5 -123.5q4 2 12 2q16 72 28.5 146.5t28.5 152.5l13 55h-9zM666 956 q4 -25 7 -51t3 -55h16q0 29 -2 55.5t-6 52.5q-6 39 -18 66q-4 4 -9 12q0 4 -4 4l-2 4q2 -4 0 0.5t6 -8.5l-2 2q-8 8 -20 17q0 -4 -6 -11l7 -7l7 -7v-2q2 -2 6 -10q6 -12 9.5 -29t7.5 -33zM668 811q-47 2 -95.5 0t-97.5 -10q-47 -8 -96 -20.5t-98 -35.5q-47 -23 -92.5 -55.5 t-79.5 -79.5q37 45 80.5 77t91.5 54q47 23 96 36.5t98 23.5q49 6 97.5 7t95.5 -3v6z" />
<glyph unicode="b" d="M6 174q-4 127 0 248h21q-8 86 -4 170t10 167t9 165t-3 168q-4 -6 -6 -4l-4 4q-4 -168 -11.5 -328t-11.5 -332q4 264 10.5 518t16.5 520q0 10 1 30t1 30q14 45 20 89t8 89q10 -6 24.5 -2t26 3t18.5 -16.5t1 -60.5h11.5t11.5 -2q2 10 4 17.5t4 13.5q12 37 30.5 58.5 t36 25.5t31.5 -12.5t21 -59.5q6 -53 5 -111.5t-4 -121t-7.5 -127t-2.5 -125.5v-16.5t2 -18.5q8 4 16.5 7t18.5 7q92 23 191.5 35t210.5 -10q-2 -4 -3 -12.5t-3 -12.5q76 -8 148.5 -47t119.5 -102q51 -63 72.5 -134t27.5 -141q4 -68 -2 -133t-22 -129q-31 -129 -88 -250 q8 6 9 3t3 -7q35 59 57.5 121t38.5 127q14 63 20.5 130t0.5 134q-6 70 -29 140.5t-70 136.5t-117.5 110.5t-146.5 61.5q59 -12 116.5 -42t104.5 -75t78 -99t47 -112q33 -113 28 -219t-32 -207q-29 -100 -79 -193.5t-128 -174.5q-39 -41 -87 -76t-107 -58q-57 -25 -122 -33 t-130 3q-23 2 -56.5 11t-52.5 17q-45 25 -82 52.5t-71 56.5l-2 2q-16 -27 -38 -24t-42 22q-4 4 -10.5 10t-10.5 14v23q2 106 -2 210.5t4 221.5q8 80 8 167t3 167q-12 -190 -15.5 -383t-13.5 -385q-29 41 -31 90zM209 102q4 4 6 9h-10q0 10 -1 18t-1 18q-2 2 -3 4.5t-3 4.5 l-4 4q0 -10 1 -21.5t1 -23.5q4 -2 7 -5.5t7 -7.5zM276 1102q53 16 110.5 28.5t117.5 18.5q41 4 83 5t87 -7q45 -6 90 -22.5t86 -45.5q59 -41 101 -100t63 -125q23 -66 28 -132.5t-2 -125.5q10 72 4 147.5t-36 149.5q-16 39 -38 73.5t-52 65.5q-29 31 -66 53.5t-76 36.5 q-78 31 -155.5 35t-151.5 -4q-51 -4 -98 -14.5t-95 -20.5v-16zM229 289q10 -4 18.5 -9.5t18.5 -11.5q51 -33 104.5 -60.5t104.5 -31.5q55 -4 103 19q27 10 50 29.5t46 43.5q61 74 98 171.5t53 195.5q12 70 -1 134.5t-48 102.5q-31 39 -92 62q-55 20 -133 20q-29 0 -62.5 -8 t-68.5 -18t-63.5 -19.5t-45.5 -7.5q-23 -2 -29 6t-8 19q92 35 187.5 56.5t183.5 8.5q53 -8 96 -30.5t72 -59.5q29 -35 43 -83t14 -99q2 51 -11 99t-42 85q-59 76 -172 88q-88 14 -183 -3t-188 -50q0 12 -2 18q-2 -33 -4 -64.5t-6 -62.5q-16 -125 -18 -254t-15 -251v-35z M195 401q-2 -27 -2 -51v-51h2v102q2 178 24 357q-14 -88 -19 -176.5t-5 -180.5z" />
<glyph unicode="c" horiz-adv-x="1130" d="M674 1270q23 -2 56.5 -8.5t51.5 -12.5q76 -37 136.5 -80t113.5 -88q-14 -4 -19 -19t-16 -26q-10 -10 -30.5 -1t-73.5 50q-4 -12 -12 -20q10 -8 16 -15.5t12 -15.5q29 -37 39 -68.5t4 -50.5q-12 -47 -106 3q-51 29 -103.5 51t-105.5 22q-51 2 -105 -22q-51 -25 -96 -76 q-61 -72 -99 -166t-54 -188q-10 -66 3 -126.5t48 -95.5q33 -37 94 -53t137 -16q27 2 60.5 10t68.5 18q33 10 61.5 19.5t45.5 7.5q23 2 29 -5t6 -19q-92 -35 -184.5 -56.5t-180.5 -13.5q-53 4 -98 23.5t-74 54.5q-29 33 -44 77t-17 95q0 -49 14 -94.5t43 -79.5 q63 -70 176 -76q88 -10 181 8.5t186 48.5q0 -10 1 -19t11 -16l55 25q27 0 35 -2q41 -4 42 -29.5t-15 -54.5q-4 -8 -11.5 -16.5t-15.5 -18.5q-8 -2 -15 -4t-16 -4q-72 -23 -144.5 -41t-150.5 -29q-84 -12 -165 -4q-43 4 -88.5 17.5t-86.5 38.5q-59 35 -106 91t-70 122 q-25 66 -31 131t1 125q-10 -72 -3 -147t41 -148q16 -37 41 -71t58 -62q66 -55 143 -78q78 -25 152.5 -27t146.5 8q72 8 138.5 23.5t129.5 32.5q-20 -20 -47.5 -38t-64.5 -30q-92 -23 -187.5 -37t-201.5 2q4 12 4 25q-72 4 -145.5 36.5t-127.5 94.5q-53 59 -78.5 129.5 t-31.5 138.5q-4 68 2 133.5t22 126.5q16 63 39 125t52 121q-6 -8 -8.5 -4t-4.5 8q-68 -121 -96 -242q-16 -63 -22.5 -128.5t-0.5 -135.5q8 -68 33 -139.5t78 -132.5q51 -63 124 -101t146 -53q-59 10 -116.5 35t-106.5 66q-51 41 -85 95t-52 109q-37 113 -32 219.5t34 204.5 t79 190.5t128 170.5q39 39 85 72.5t101 56.5q53 25 116 36t124 7z" />
<glyph unicode="d" d="M240 166q-57 53 -100.5 115.5t-71.5 130.5q-63 139 -64 290q0 53 7 107.5t24 110.5q18 55 49 108t78 96q47 45 103.5 72t111.5 37q57 10 110.5 9t100.5 -11q35 -4 80 -11.5t86 -17.5q61 -16 100 -35q-4 98 -7 197.5t-5 204.5q-2 10 -2 29.5v29.5q10 47 14 91t2 91 q10 -6 24.5 -0.5t27 4t18.5 -16.5t4 -60h22q2 10 4 17t5 13q12 37 28.5 59.5t33.5 28t32.5 -11t23.5 -57.5q18 -102 15.5 -230.5t7.5 -252.5q6 -92 10 -182.5t-4 -182.5q-12 -125 -16.5 -258t-26.5 -260q-4 -29 -4 -67t-2 -70q12 -12 5 -40t-48 -75q-29 -29 -65 -57.5 t-81 -51.5t-97 -40t-111 -21t-120 7t-116 36q-53 23 -99 55.5t-87 69.5zM1036 504q-6 -53 -11 -108.5t-13 -108.5q2 2 8 2q4 53 8 107.5t8 107.5q8 92 14.5 181t14.5 181q-10 -90 -17.5 -180t-11.5 -182zM866 258l-2 -2l2 -2v4zM909 946q-4 -145 -9 -293.5t-28 -290.5 q6 6 11 9q6 61 10 124.5t10 131.5q10 76 9 158.5t-1 160.5h-2zM883 1061v27.5t-2 25.5q-4 2 -8.5 3t-8.5 3v-10q8 -4 15 -6q-6 -6 -15 -19q0 -10 2 -16q1 0 17 -8zM872 1192q-2 -6 -5 -4t-5 2v-27q8 -4 10 -8q2 0 5 -2q0 10 -1.5 19.5t-3.5 19.5zM836 952q-119 61 -246 84 q-61 10 -122.5 6t-115.5 -28q-39 -16 -68.5 -49t-45.5 -78t-19.5 -95.5t0.5 -97.5q-4 57 5 111.5t32 101.5q43 92 145 121q47 12 102.5 10t110.5 -16t109.5 -35.5t103.5 -50.5q-25 -2 -53.5 0t-56.5 12q-70 25 -137.5 37t-124.5 4q0 12 -4 25q-84 -23 -132 -72 q-49 -49 -65 -141q-16 -88 7.5 -187.5t84.5 -177.5q-2 8 1 8h7q-51 80 -73.5 173.5t-12.5 177.5q12 86 58 137q45 45 120 57q-117 -20 -155 -129q-20 -57 -17.5 -127.5t23.5 -138.5q23 -70 59.5 -132.5t85.5 -109.5q102 -96 215 -78q10 2 26.5 6.5t27.5 8.5q59 4 118 41 q6 53 11.5 103t9.5 102h20q-4 104 2.5 204.5t10.5 202.5q-4 -2 -17 -2q0 -98 -4 -196.5t-12 -198.5q6 98 8 197.5t0 197.5zM188 1087q-59 -53 -90.5 -123.5t-44.5 -142.5q14 70 46 139.5t89 122.5q57 55 129 82t144 31q109 4 206 -20.5t189 -63.5q0 4 -1 6t-1 6 q-92 35 -189.5 56.5t-203.5 15.5q-70 -4 -142 -29t-131 -80z" />
<glyph unicode="e" horiz-adv-x="1114" d="M76 133q-10 16 -7 11t1 -1h-2l-5 9q-4 10 -8 17t-8 15q-29 66 -37 124.5t-6 111.5q4 147 23.5 290.5t58.5 272.5q8 33 12 78t13 80q-10 2 -19 8q-16 14 -9 36.5t52 51.5q49 29 115.5 50.5t144.5 25.5t162 -13.5t160 -62.5q55 -33 100 -82t72 -115q27 -63 28 -133.5 t-24 -134.5q-35 -88 -100.5 -150.5t-139.5 -97.5t-148.5 -49t-144.5 -10q-23 0 -51 -2t-57 -2q0 -35 3 -65.5t11 -59.5q4 -12 7 -23.5t8 -19.5q0 -4 4 -8v-2l8 -9q20 -20 59 -28q41 -8 98.5 -1t122.5 23q10 4 29 7.5t31 7.5q47 0 96 7t100 17q-4 -12 3.5 -24.5t8.5 -24.5 t-13.5 -22.5t-63.5 -16.5q2 -4 3 -10t3 -10h16.5t16.5 -2q37 -4 60.5 -14.5t33.5 -24.5q23 -39 -53 -74q-96 -37 -234 -68q-72 -12 -150.5 -21t-172.5 7q-35 8 -70 22.5t-67 36.5q-16 10 -30 23.5t-26 28.5q-10 6 -12 14l-4 2l-2 2v2zM199 461q0 -12 1 -24.5t1 -22.5v47h-2z M252 352q-8 47 -8 109q-6 -2 -17 -2q0 -29 2 -55.5t7 -53.5q6 -39 18 -65q2 -4 4 -6.5t4 -6.5l4 -4v-2h2v-2q-2 4 0 1t-6 7h2v-2q4 -4 10.5 -7t10.5 -7q0 2 6 8l-7 7l-8 8v2l-6 12q-12 24 -18 59zM244 504q-10 0 -15 2v-8h15v6zM254 643q2 2 2 10q-8 0 -12 2v-12h10z M811 700q-37 -47 -81 -78.5t-91 -54.5t-96 -36t-99 -21q-98 -12 -194 -6v-6q96 -2 194 12q47 6 96.5 18.5t96.5 34.5q47 23 93 56.5t81 80.5zM643 737q27 23 42 51.5t24 57.5q-20 -68 -84 -116t-146 -66q-53 -12 -108.5 -14.5t-110.5 3.5q0 -4 -1 -6t-1 -4q129 -8 262 29 q70 16 123 65zM350 1051q-6 2 -20 2q-25 -104 -43 -213q-4 0 -11.5 1t-11.5 1q-4 -39 -8 -76l-8 -74q4 -2 12 -2q6 35 12.5 70t12.5 69q-6 -35 -11.5 -69.5t-9.5 -69.5q43 -4 85 -2t81 10q4 -12 4 -22q72 23 128 50.5t91 72.5q37 47 35 100q0 57 -45 96q2 -4 -8 -8 q35 -41 36 -89t-28 -89t-83 -69.5t-122 -39.5q109 18 172 80q59 55 49 131q-4 35 -26.5 66t-57.5 51q-72 41 -178 31q-10 -2 -23.5 -3t-23.5 -5zM211 694h8q4 27 8 52.5t9 54.5q23 129 55 250q-6 0 -10 -2q-16 -72 -28.5 -147t-29.5 -152zM207 662q0 -10 -2 -15h8q0 8 2 12 q-6 1 -8 3zM199 508v-8h2q2 2 2 8h-4zM43 506q14 98 29.5 193.5t31.5 193.5q20 109 50 223q0 4 4 17h-8q-4 -12 -5 -21q-10 -55 -20 -109.5t-21 -109.5q-18 -96 -34.5 -191.5t-26.5 -195.5z" />
<glyph unicode="f" horiz-adv-x="905" d="M809 1559q-10 -6 -13 -20.5t-10.5 -25t-21.5 -10.5t-45 23q-2 -4 -5 -10.5t-5 -10.5q12 -12 16 -18q20 -25 27.5 -49.5t1.5 -41t-24.5 -23.5t-49.5 3q-41 12 -81 31.5t-81 40.5q-20 10 -39.5 18.5t-40.5 14.5q-39 12 -59 6h-4q0 -2 2 -2v-2l-4 -8q-8 -12 -17.5 -38 t-19.5 -57q-23 -66 -33 -145.5t-20 -159.5q0 -6 -1 -13t1 -13q66 -2 125 1t118 3h15q18 -25 41 -21q0 -10 1 -24.5t1 -26.5t-3 -19.5t-14 -3.5v-20q2 -4 4 -5t4 -5q8 -12 15.5 -28.5t9.5 -34t-1 -32t-15 -22.5q-14 -10 -29.5 -11t-32 0l-33 2t-30.5 -3q-23 -4 -44.5 -6 t-43.5 6q-23 10 -46.5 12t-45.5 6q-4 -57 -13 -115q-16 -113 -19 -230.5t-14 -227.5q-2 -20 1.5 -46t6.5 -50.5t4 -46t-5 -31.5q-4 -16 -12.5 -19.5t-18.5 -1.5q-12 131 -12 264q4 82 10 163t16 163q-14 -80 -20 -161t-6 -165q-2 -66 -2 -131t4 -131q-10 2 -18.5 2t-16.5 -4 q0 -8 2 -16q0 -6 1 -13.5t1 -11.5q-2 -10 -10 -22q-16 -25 -38 -23t-42 19l-23 22l2 21q2 98 -2 194t4 201q8 74 8.5 153.5t2.5 151.5q-12 -174 -15.5 -350t-13.5 -350q-27 33 -33 79v230h23q-12 127 1 245.5t17 241.5q-14 20 -16 43q-4 -131 -11.5 -259t-13.5 -263 q4 242 12.5 474.5t20.5 473.5v27.5t2 28.5q27 78 27 161q8 -4 19 -2t22 2q2 8 4 15.5t4 15.5q12 31 30.5 65.5t55.5 69.5q37 33 86 53q45 14 92 15q41 0 76 -7.5t65 -17.5q31 -10 57.5 -21.5t55.5 -21.5q10 -4 23.5 -12t23.5 -12q55 -51 125 -90zM33 922q2 4 2 10t2 12h-2 q0 -6 -1 -11t-1 -11zM137 1505q12 37 30.5 80t65.5 86q-10 -4 -9 0t-1 8q-25 -20 -41 -41.5t-28 -44.5q-20 -39 -33 -82q-2 -2 -2 -4q10 0 16 -8q0 2 1 3t1 3zM287 999q23 -8 44 -5t44 3q-23 4 -46.5 4t-45.5 3v-3q0 -2 4 -2zM434 1042q-37 -4 -73.5 -2t-77.5 7v-15 q41 4 77.5 -7t73.5 5q-2 4 -1 6t1 6zM352 842q-35 18 -71 18q36 -6 71 -18z" />
<glyph unicode="g" horiz-adv-x="1271" d="M819 -399q-51 -41 -119 -70q-74 -29 -151.5 -28t-147.5 20q-70 20 -130 54t-113 75q-10 6 -24.5 18.5t-22.5 20.5q-27 39 -53.5 73.5t-55.5 67.5q12 2 20.5 14.5t18.5 19.5t24.5 1t38.5 -39l15 14q-8 14 -10 27q-23 59 -3 90q23 39 82 -4q33 -25 66 -54.5t70 -58.5 q35 -29 74.5 -50t78.5 -28q59 -10 103 0q23 4 42 11.5t42 19.5q31 16 56 50t46 77q27 55 49 127q0 18 -2 29q-8 -4 -15 -6t-18 -6q-86 -18 -175 -28.5t-187 1.5q0 4 1 11t1 11q-66 4 -134.5 27t-125.5 72t-90 116.5t-41 135.5q-10 68 -3 132t23 124q33 121 101 233 q-8 -6 -8.5 -3t-2.5 7q-76 -109 -108 -231q-16 -61 -22.5 -126t3.5 -134q10 -66 42 -133.5t89 -120.5t125 -81t135 -38q-53 8 -106 24.5t-104 51.5q-49 33 -89.5 79t-62.5 99q-25 53 -34 108.5t-9 108.5q2 102 35 201q33 98 88 183t139 153q41 33 89 59.5t104 42.5 q53 16 110.5 20.5t114.5 -4.5q18 -2 50 -9t48 -13q70 -37 137 -86l9 4q0 6 -2 14q-4 16 -5 27q8 16 13 22q16 25 38.5 22t43.5 -20q4 -4 10 -9t10 -11v-23q-2 -98 3 -193t-3 -200q-6 -74 -5 -153.5t-1 -151.5q10 174 11 350t12 350q27 -33 32 -79q2 -59 2 -115.5v-112.5h-22 q8 -68 7 -133t-6 -129.5t-9 -130t-2 -131.5q2 10 3 18.5t3 16.5q4 -6 6 -11.5t6 -13.5q2 127 6 251t8 255q-2 -139 -2 -271t-4 -268v-24q0 -10 -2 -14q0 -150 -22.5 -254.5t-49 -169t-49.5 -93.5l-22 -30q-18 -23 -33.5 -40.5t-30 -26.5t-26 -6t-21.5 26zM889 981q-4 4 -8 6 q2 -10 2 -17v-18l6 -6v35zM889 797q-2 -82 -6 -163t-15 -163q12 80 17.5 161t3.5 165v14v-14zM635 82q47 4 91 10t87 17v16q-51 -12 -103.5 -22.5t-105.5 -16.5q-74 -8 -154.5 -4t-164.5 43q-57 27 -109.5 74t-81.5 110q-29 61 -37 125t-4 123q-8 -68 2.5 -142.5 t50.5 -144.5q20 -35 48 -62.5t61 -49.5q35 -23 69.5 -37.5t69.5 -24.5q72 -18 143.5 -20t137.5 6zM813 272q0 4 1 6.5t1 6.5q-88 -29 -175 -46.5t-173 -11.5q-53 4 -99 20.5t-81 45.5q-66 59 -72 153q2 -45 18.5 -84.5t51.5 -68.5q35 -31 82 -46.5t100 -19.5q84 -8 172 6 t174 39zM791 311q16 0 24 -4q2 25 3 49.5t5 51.5q14 102 15.5 207.5t9.5 209.5q-4 2 -5 3t-5 3q-51 29 -104.5 52.5t-108.5 29.5t-110.5 -12t-100.5 -61q-66 -59 -106 -146.5t-54 -173.5q-10 -59 6 -112q14 -47 55 -82q41 -33 106.5 -47.5t137.5 -14.5q27 0 60.5 8.5 t67.5 17.5t62 16t42 5zM811 -84q-35 -74 -86 -119q51 39 84 111q2 2 2 8zM807 -342q-8 -6 -16.5 -13t-16.5 -14q8 6 16.5 12.5t16.5 12.5v2zM535 -487q47 -2 96 8t94 30q53 27 92 58q-2 4 -3 8t-3 10q-39 -33 -92 -59q-86 -39 -187 -45q6 -2 5.5 -5t-2.5 -5z" />
<glyph unicode="h" horiz-adv-x="1189" d="M889 57q-8 -14 -16.5 -15t-18.5 3q16 72 32.5 144.5t31.5 148.5q18 92 24 186q4 41 12.5 82t18.5 90q-10 -47 -19.5 -88t-13.5 -82q-4 -47 -9 -94t-13 -94q-16 -76 -36 -146.5t-38 -140.5q-8 4 -16.5 8t-18.5 0q0 -8 -2 -16t-3 -16.5t-3 -12.5q-4 -8 -17 -20 q-23 -20 -44 -10t-35 32q-4 8 -13 29l6 23q35 102 56.5 199.5t38.5 201.5q4 18 5 36.5t3 43.5q2 23 4 45t4 43q6 43 10 82t0 69q2 -37 -5 -80.5t-15 -93.5q-2 -12 -3 -24t-3 -27v-28q-2 -8 -2 -23q-2 -23 -3.5 -44.5t-5.5 -43.5q-12 -90 -39.5 -176t-60.5 -176 q-6 20 -8 43.5t4 48.5q16 59 30.5 115.5t22.5 109.5q12 -4 23 -4q2 41 4 78t4 78q2 51 10 92t14 78q12 78 -2 120q-2 8 -10 21q-4 6 -9 11t-9 11q-16 18 -45 33q2 -4 -1 -6t-5 -4q23 -16 38 -35q4 -4 7.5 -9t7.5 -11t5 -9.5t5 -7.5q14 -37 4 -108q-4 -35 -11 -77t-11 -91 q0 -16 -1 -23.5t-1 -17.5t-1.5 -18.5t-3.5 -18.5q-2 -18 -4 -36.5t-6 -39.5q8 57 12 117v31.5t3 38.5q2 20 4 36.5t4 32.5q4 33 8 61.5t4 51.5q0 43 -14 65q-37 68 -123 93q-43 12 -95.5 13t-109.5 -9q-10 -2 -25.5 -4t-25.5 -4q-33 2 -74 -5q0 -20 -1 -40.5t-3 -43.5 q-12 -129 -17.5 -265t-27.5 -265q-4 -25 -5 -55.5t-2 -59t-4 -53.5t-12 -37q-8 -16 -16 -18t-18 2q10 78 16 153.5t10 151.5q10 94 16.5 186.5t16.5 184.5q-12 -92 -19.5 -183.5t-13.5 -187.5q-12 -152 -37 -301q-8 4 -16 6t-16 -2q0 -8 -2 -16q-4 -20 -5 -29 q-4 -10 -16 -23q-23 -23 -43 -12.5t-35 31.5q-4 6 -8 13t-8 16q2 4 3 10t3 10q25 100 31 203.5t18 220.5q10 80 9 168t-1 170q-8 -193 -17 -388.5t-56 -371.5q-8 20 -13.5 42t-1.5 46q18 121 25 242q4 -2 11 -2h11q-4 86 1 170t9.5 167t5.5 168t-12 171q-2 -6 -4 -5.5 t-6 3.5q6 -172 3 -334t-17 -330q16 260 9 519t-13 532v29.5t-2 31.5q12 47 16 93t2 93q10 -6 24.5 -0.5t27 3t18.5 -17.5t4 -60h22q4 20 9 30q12 37 28.5 60.5t33.5 28t31.5 -12t22.5 -57.5q10 -53 13.5 -112.5t3.5 -124v-130t6 -129.5q0 -10 1 -20.5t1 -20.5 q29 8 57.5 13.5t57.5 9.5q72 8 148.5 5t158.5 -26q57 -16 113.5 -49t99.5 -84q23 -25 39 -51.5t32 -65.5q12 -35 16.5 -69.5t2.5 -63.5q-4 -84 -18.5 -145.5t-16.5 -114.5q-4 -72 -16.5 -140.5t-32.5 -129.5q-6 -23 -11 -52.5t-10.5 -57t-11.5 -51.5t-14 -32z" />
<glyph unicode="i" horiz-adv-x="393" d="M14 1468q0 10 -1 26.5t-1 27.5q10 41 14.5 80.5t4.5 80.5q10 -6 23.5 -1.5t25.5 3t19 -14.5t5 -52h21q10 41 27.5 67.5t37 33.5t36 -6t26.5 -52q12 -57 14 -126t4 -140q-16 -6 -22 -23q-2 -6 -2 -22q0 -2 -4 -11q-8 -4 -11 -6q-2 0 -4 -2q-6 4 -11 10.5t-13 10.5l-62 -17 l-6 -2q-18 -6 -33 8q-10 10 -18 -2q-4 -4 -7 -1t-6 9.5t-7.5 11.5t-10.5 3q-16 -8 -24 10q0 18 -2 28.5t-5.5 18.5t-5.5 19.5t-2 29.5zM12 78q-4 8 -5 23.5t-1 32t1 32.5t1 27q18 104 25 213q4 -2 11 -2.5t11 -0.5q-4 76 -1 161t6 172t2 172t-13 163q-2 -6 -4 -5l-6 3 q4 -76 6 -160t1 -170t-4 -169t-9 -156q6 88 7 185t-1 197.5t-6 200t-8 189.5q10 4 20 6t21 4q10 2 28 2q4 0 9.5 -5t9.5 -9q8 -12 14 -19q4 -6 10 -8t13 -6q6 -2 11 -3t11 -3q16 -8 27 -8q8 2 16 8q2 2 5 6t7 2h2v-8q-2 -12 0 -23q2 -6 10.5 -10t12.5 -8q12 -8 18 -10 q6 -12 10.5 -23.5t8.5 -23.5q2 -25 2 -61v-75v-74.5t-2 -60.5q-10 -117 -13.5 -238.5t-25.5 -238.5q-4 -23 -6 -55.5t-5 -66.5t-8.5 -61.5t-13.5 -37.5q-8 -14 -16 -16.5t-19 1.5q10 70 21.5 157t15.5 155q8 84 14.5 166t14.5 166l-6 -43q-4 -47 -8.5 -96.5t-8.5 -98.5 q-2 -23 -3 -47.5t-3 -46.5q-6 -68 -20.5 -154t-26.5 -153q-8 4 -16.5 7t-16.5 -1l-6 -43q-25 -39 -50.5 -31t-43.5 31q-4 6 -7 12t-7 12l4 19q23 90 35 200.5t22 212.5q10 72 8 151t-4 150q-2 -86 -5 -178t-12.5 -185t-23.5 -182t-37 -165z" />
<glyph unicode="j" horiz-adv-x="573" d="M-403 -432q6 8 8 22.5t7 25.5t14 15t32 -6q2 4 3 10.5t3 10.5l-12 12q-14 18 -20.5 37.5t-2.5 37t16.5 29t35.5 11.5q27 0 54 -7.5t56 -15.5t56.5 -14t54.5 -4q37 2 64.5 7t43.5 5q8 0 10 2q2 0 3.5 1t3.5 1l2 2h2l-2 -2q8 6 18 25q10 16 17.5 42.5t17.5 55.5 q2 10 2 25.5v30t2 26.5t8 18q4 6 10 11q6 55 14.5 119.5t14.5 125t11.5 107.5t7.5 65h11t11 -2q-4 74 -1 156t6 167t2 167t-13 155q-2 -6 -4 -5l-6 3q4 -74 6 -154.5t1 -163.5t-4 -163t-9 -151q6 84 7 179t-1 191t-6.5 192.5t-8.5 182.5q10 4 20.5 6t20.5 4t29 2q4 0 9 -5 l9 -9q8 -12 15 -16q4 -6 10 -8.5t12 -6.5q6 -2 11.5 -3t11.5 -3q16 -8 26 -6q6 0 17 6l5 5t7 3h2v-8q-4 -10 0 -20q2 -8 10.5 -12.5t12.5 -8.5q4 -2 9 -4t9 -4q6 -10 10 -22.5t9 -22.5q2 -25 2 -59.5v-72.5v-73t-2 -59q-10 -111 -13.5 -229.5t-25.5 -229.5q-2 -12 -6.5 -54 t-9.5 -97.5t-10 -117t-11 -113.5t-12.5 -89t-10.5 -43q-8 -12 -18 -16q-8 -35 -22.5 -75t-43.5 -81q-35 -49 -83 -78t-95 -41q-47 -10 -90 -12t-84 2t-80 10t-76 16q-6 2 -16 4.5t-16 6.5q-20 18 -42.5 29.5t-45.5 19.5zM338 371q-2 -23 -7 -69t-12.5 -104.5t-14.5 -123 t-15 -123.5l4 12t4 10q6 57 13 119t12.5 117t9.5 98t6 64q8 80 14 159.5t15 159.5q-10 -78 -16.5 -157.5t-12.5 -161.5zM209 768q-2 -61 -7 -157.5t-13.5 -205t-19.5 -221t-26 -207.5q4 0 5.5 -1t3.5 -1q8 68 16 143t15 143.5t12.5 126.5t9.5 91q10 68 8 143.5t-4 145.5z M184 -354q-35 -51 -88 -78q27 10 58 35q8 6 13 11l13 13q4 8 10.5 14.5t10.5 14.5q18 29 28.5 58.5t18.5 58.5q0 4 2 6h-4q-2 -10 -4 -17.5t-6 -17.5q-10 -23 -22 -48t-30 -50zM100 -211q-10 -29 -23.5 -47t-29.5 -23q16 2 30.5 20.5t24.5 45.5q0 2 -1 2t-1 2zM57 -475 q-29 -10 -55.5 -15.5t-54.5 -11.5q6 -4 0 -10q29 2 57.5 5t58.5 13q29 10 59 24.5t56 37.5q6 6 13.5 12t11.5 12l6 7l8 8q4 4 5 7t5 7q10 14 18.5 28.5t14.5 28.5q10 23 17.5 44.5t13.5 44.5q-10 0 -17 2q0 4 1 11t1 15h-2q0 -57 -22 -108q-14 -31 -33 -56q-4 -8 -9 -13 t-13 -15q-6 -4 -12.5 -10.5t-12.5 -10.5q-54 -41 -115 -57zM389 1362q-16 -6 -22 -23q-2 -6 -2 -22q0 -2 -5 -10q-8 -4 -10 -7q-2 0 -4 -2q-6 4 -11 10.5t-13 10.5l-68 -19q-18 -6 -33 9q-10 10 -18 -2q-4 -4 -8.5 2t-9.5 15t-10 16.5t-11 5.5q-16 -8 -25 10q0 18 -1 25.5 t-2 13.5t-2 14t-1 27q0 10 -1 26.5t-1 26.5q10 41 14.5 81t4.5 81q10 -6 33.5 4t46 16t39 -1t14.5 -46l88 4q12 -57 14 -125.5t4 -140.5z" />
<glyph unicode="k" horiz-adv-x="1150" d="M279 1202q2 -8 2 -22q33 10 66.5 17t70.5 11q72 8 152.5 -2t158.5 -47q57 -29 105.5 -76t74.5 -112q27 -66 26 -136.5t-30 -129.5q-35 -76 -92 -129.5t-121 -88.5q70 -78 132.5 -154.5t115.5 -172.5q4 -4 7 -12.5t7 -12.5q-2 -25 2.5 -46t12.5 -42q-10 -2 -22.5 -9 t-24 -10t-20.5 0t-13 23q-4 -2 -9.5 -4t-9.5 -6q-2 -4 -2 -7t-2 -7q-10 -37 -46 -54.5t-60 2.5q-14 12 -24.5 31t-20.5 39.5t-22.5 40.5t-28.5 39q-23 27 -44.5 52.5t-37.5 58.5q-20 45 -53 81.5t-58 79.5q-6 8 -15.5 13.5t-19.5 11.5q-23 -4 -47 0q-27 -2 -59.5 -4 t-63.5 -2q-4 -31 -8 -61.5t-8 -59.5q-4 -25 -4 -55.5t-1 -60t-4 -54.5t-12 -37q-8 -16 -16 -18t-18 2q10 78 15 154.5t9 152.5q2 10 2 19.5t2 19.5h-2q0 -10 -1 -19.5t-1 -19.5q-6 -76 -14 -150.5t-21 -152.5q-18 12 -32 6q0 -10 -2 -19q-4 -20 -5 -28q-4 -10 -16 -23 q-23 -23 -42 -12.5t-36 31.5q-4 6 -7 13t-7 15q0 8 4 21q23 100 29 204.5t16 219.5q10 82 8 170t-4 170q-4 -193 -11 -389.5t-54 -372.5q-8 18 -13.5 40.5t-1.5 47.5q8 59 13.5 119.5t9.5 122.5q4 0 11 -1t11 -1q-4 86 -1 170t6 167.5t3 168.5t-12 171q-4 -6 -6 -5l-6 3 q10 -172 8 -333.5t-14 -331.5q14 264 4 550.5t-21 561.5q0 10 -1 30.5t-1 30.5q10 47 14.5 94.5t2.5 94.5q10 -6 24.5 -1t26.5 4t18 -16.5t4 -62.5h23q2 8 3 16.5t5 14.5q12 39 28.5 62.5t34 27.5t33 -12.5t23.5 -59.5q8 -51 11 -119.5t4 -144.5t2.5 -151t7.5 -138zM225 465 h-2v-8h2v8zM236 604q0 10 2 14h-5v-14h3zM240 649q2 27 3 52.5t3 50.5q-4 -25 -5 -50.5t-5 -52.5h4zM420 461q-76 -6 -152 0v-6q39 -2 76 -1t76 5v2zM446 463q6 0 11 2q-3 -2 -11 -2zM516 401q45 -53 80 -116q-14 35 -34.5 63.5t-45.5 52.5q-6 6 -11 12.5t-11 12.5h-2z M621 502q0 2 -3 2h-4l2 -2h5zM641 514q0 -2 2 -2t10 4q4 0 9 4l-3 2q-6 -4 -18 -8zM645 467q20 -31 46 -57.5t48 -55.5q-20 31 -42.5 58.5t-47.5 56.5q0 -2 -4 -2zM840 299q-39 47 -75 94t-75 94l-12 -6q43 -45 73.5 -96t79.5 -92q1 6 9 6zM821 639q-35 -41 -75.5 -68.5 t-83.5 -48.5l2 -2q43 20 82.5 49t74.5 70zM659 686q49 43 66 100q-23 -61 -85 -105t-140 -63q-109 -25 -224 -6v-12q125 -10 242 21q4 2 7 2t7 2q6 0 9 2q69 16 118 59zM293 936q0 -29 -1 -54.5t-3 -54.5q-4 -43 -6 -88t-4 -92q92 -6 176 6q0 -8 4 -20q66 20 121 46t90 66 q37 43 37 89q0 53 -39 81q0 -6 -9 -6q29 -33 29 -74.5t-29 -78.5q-29 -39 -81 -64.5t-117 -36.5q49 10 93 28.5t73 45.5q61 57 51 117q-6 61 -74 92q-33 16 -77 20.5t-93 -4.5q-10 0 -23.5 -3t-23.5 -5q-23 4 -47 0t-47 -10z" />
<glyph unicode="l" horiz-adv-x="440" d="M8 176q8 59 13.5 118.5t9.5 119.5h22q-4 86 0 169t8.5 165.5t4.5 166.5t-13 170q-4 -6 -6 -4t-6 2q8 -170 6 -330.5t-14 -328.5q14 260 5 517t-18 529q0 10 -1 30t-1 32q10 47 14.5 93t2.5 93q10 -6 24.5 -1t26.5 3t18.5 -17t4.5 -61h22q2 8 4 16.5t4 14.5 q12 37 28.5 60.5t34 27.5t33 -12t23.5 -57q18 -104 15 -233.5t10 -258.5q6 -94 10 -186t-4 -187q-10 -129 -14.5 -264t-26.5 -264q-4 -25 -4 -55.5t-1 -59t-4 -53.5t-12 -37q-8 -16 -16 -18t-18 2q10 78 16 153.5t10 151.5q8 92 14.5 184t14.5 187q-10 -92 -17.5 -184.5 t-11.5 -186.5q-8 -76 -16 -150.5t-21 -150.5q-8 4 -15 6t-17 -2q0 -8 -3 -16q-4 -20 -4 -29q-4 -10 -16 -23q-23 -23 -42 -12.5t-36 31.5q-4 6 -7 13t-7 16q4 12 4 20q23 98 30 201.5t17 220.5q10 80 8 168t-2 168q-6 -193 -14 -387.5t-55 -368.5q-8 18 -13.5 39.5 t-1.5 48.5z" />
<glyph unicode="m" horiz-adv-x="1783" d="M1096 946q-8 -4 -21.5 -12t-23.5 -14q-35 -8 -67 -23.5t-60 -38.5q4 -18 5 -36.5t3 -37.5q6 -131 2 -261t-27 -249q-4 -23 -4 -50t-1 -54t-3 -49.5t-8 -32.5q-8 -16 -16.5 -18t-18.5 2q6 72 11 140.5t12 139.5q8 86 13 173t5 180q-4 -90 -8 -176.5t-10 -176.5 q-8 -70 -15.5 -139.5t-17.5 -136.5q-10 4 -17.5 5t-17.5 -3v-17q0 -6 -1 -14t-1 -12q-4 -6 -7 -11.5t-7 -9.5q-20 -23 -42 -15.5t-38 28.5q-4 4 -8.5 11t-8.5 13l4 23q18 98 25.5 194.5t17.5 200.5q10 74 4 152.5t-16 150.5q18 -170 5 -348t-52 -350q-10 18 -15 39.5 t-3 46.5q14 113 24 225q4 0 10.5 -1t10.5 -1q-4 80 0 154.5t0 148.5q-2 72 -15.5 142.5t-52.5 113.5q0 -4 -3 -4t-7 -2q29 -43 44 -110.5t19 -137.5q4 -72 2 -144.5t-8 -150.5q8 119 4 232.5t-30 216.5q-12 47 -33 84q-18 31 -43 47q-20 12 -55 14q-37 0 -86 -12 q-8 -2 -21.5 -6t-24.5 -8q-29 0 -57.5 -7.5t-56.5 -17.5q2 -47 2 -94t-4 -80q-10 -117 -13.5 -239t-25.5 -238q-4 -23 -4 -54.5t-1 -64.5t-4 -59.5t-12 -36.5q-8 -14 -16 -16.5t-18 1.5q10 70 15 154t9 151q8 84 14.5 166t14.5 166q-10 -82 -16.5 -164t-12.5 -168 q-6 -68 -14 -150.5t-21 -150.5l-15 7.5t-17 -0.5q-2 -8 -3 -17q-2 -6 -2 -14v-12q-27 -39 -52 -31t-44 31q-4 6 -7 12t-7 12l6 19q23 90 28 197.5t15 209.5q10 72 8 150.5t-4 150.5q-2 -86 -4 -177t-8 -183t-18.5 -180.5t-34.5 -163.5q-8 16 -13.5 35.5t-1.5 41.5 q8 53 13.5 122t9.5 122q4 -2 11 -2h11q-4 76 -1 161t6 172t2 172t-13 163q-2 -6 -4 -5l-6 3q4 -76 6 -160t2 -170t-4 -169t-10 -157q6 88 7 185.5t-1 198t-6 199.5t-8 189q10 4 20 6.5t20 4.5t29 2q4 0 9 -5l10 -10q8 -12 14 -18q4 -6 10 -8t12 -6q6 -2 11.5 -3t11.5 -4 q2 -2 6 -2h2q43 29 99.5 54.5t128.5 42.5q35 8 74.5 12t84.5 0q43 -4 88 -19.5t86 -41.5q31 -20 55.5 -45t43.5 -52q35 29 74.5 53.5t88.5 47.5q33 16 71 28.5t81 20.5t93 5t100 -22q72 -27 122 -82q45 -49 72 -104l4 -6v-2v-2h2v-2l2 -4l4 -13q4 -6 5.5 -12t5.5 -12 q4 -12 8 -24.5t8 -24.5q6 -25 11 -50.5t9 -50.5q16 -135 19.5 -270t-12.5 -262q-2 -23 -1 -51.5l2 -57t-1 -52.5t-9 -34q-6 -16 -14 -19t-18 1q4 74 5 147.5t3 147.5q4 90 4 181t-6 185q4 -92 4 -183t-2 -183q-6 -152 -19 -291q-8 2 -16 3t-16 -3q-2 -8 -2 -16v-29 q-8 -16 -13 -21q-20 -25 -41.5 -18.5t-40.5 25.5l-8 12t-8 14l2 23q14 102 16.5 202.5t6.5 210.5q6 78 -4.5 160t-26.5 154q31 -174 26.5 -360.5t-34.5 -366.5q-10 18 -16.5 40.5t-6.5 47.5q4 59 8 117.5t4 115.5q4 0 11.5 1t11.5 1q-8 82 -9 159t-9 155q-4 37 -10.5 73.5 t-16.5 71.5q-6 16 -12.5 33.5t-16.5 34.5q-6 10 -15 22t-20 21q2 -6 -8 -7q18 -23 29 -45q8 -16 13 -31.5t11 -31.5q10 -35 17.5 -70t13.5 -71q10 -72 12.5 -149t-2.5 -157q2 123 -9 241t-46 222q-10 29 -20 45q-10 25 -21 37q-20 27 -41 33q-18 8 -61 -1t-90 -34zM905 936 q4 2 6 4t7 4q-2 4 -5.5 9t-7.5 10l-8 -5q4 -10 8 -22z" />
<glyph unicode="n" horiz-adv-x="1204" d="M84 485q10 72 8 151t-4 150q-2 -86 -3 -177t-7 -183t-18.5 -180t-36.5 -164q-8 16 -13.5 35.5t-1.5 42.5q8 53 13.5 121.5t9.5 121.5q4 -2 11 -2h11q-4 76 3 166t15.5 184.5t10.5 185.5t-10 169q-2 -6 -4 -5t-7 3q4 -76 3 -166t-6 -182t-13 -181.5t-14 -162.5 q6 88 11 191.5t8 211t2 211.5t-5 195q10 4 20.5 6t20.5 4t29 2q6 0 10 -5t8 -9q8 -12 15 -19q4 -6 10 -8t12 -6q16 -4 23 -6q16 -8 26 -9q12 4 17 9l6 6t6 2h2v-8q0 -6 -1 -11.5t1 -11.5q2 -4 8 -10q37 23 80 40t90 30q74 18 162 20t176 -33q63 -25 113.5 -68.5t83.5 -95.5 q37 -53 55 -100q10 -29 18.5 -55.5t14.5 -53.5q25 -150 15.5 -295t-50.5 -274q-6 -25 -12.5 -55.5t-12.5 -60t-14 -54t-18 -33.5q-12 -16 -20.5 -15t-18.5 5q29 76 47 150.5t30 152.5q18 94 27.5 189.5t1.5 197.5q4 -100 -4 -195t-25 -192q-29 -154 -86 -295q-8 4 -15 9.5 t-17 3.5q-4 -8 -7 -17q-4 -8 -5 -16t-3 -12q-16 -12 -22 -17q-27 -16 -44.5 -0.5t-27.5 37.5q-2 6 -4 13.5t-4 15.5l10 18q43 88 64.5 186.5t38.5 206.5q14 76 8 159t-29 153q23 -84 24 -174.5t-12 -182.5q-14 -92 -41.5 -179t-68.5 -163q-4 20 -4 42t8 44q37 106 55 219 q4 -2 11.5 -2t11.5 -2q4 82 8 159t-2 151q-4 35 -12.5 70.5t-22.5 66.5q-29 70 -78 106q2 -6 -8 -10q45 -43 70.5 -103.5t35 -130t6.5 -145.5t-18 -151q18 119 12 234.5t-53 207.5q-45 92 -116 121q-35 12 -81 10t-100 -18q-10 -2 -23.5 -7.5t-23.5 -9.5q-35 -2 -68.5 -13 t-64.5 -28q-4 -41 -8 -76.5t-6 -58.5q-10 -117 -13.5 -238.5t-25.5 -238.5q-4 -23 -4 -54.5t-1 -64.5t-4 -59.5t-12 -36.5q-8 -14 -16 -16.5t-18 2.5q10 70 15 153.5t9 151.5q8 84 14.5 166t14.5 166q-10 -82 -16.5 -164t-12.5 -168q-6 -68 -14 -151t-21 -150q-8 4 -15 7 t-17 -1q-2 -8 -3 -17q0 -6 -1 -14t-1 -12q-27 -39 -52 -31t-44 31q-4 6 -7 12t-7 12l6 19q23 90 28 197.5t15 209.5z" />
<glyph unicode="o" horiz-adv-x="1327" d="M700 8q-74 -14 -150.5 -6t-146.5 39q-74 33 -129 76q-29 23 -53 46t-47 52q-47 53 -82 115.5t-57 132.5q-23 72 -28 145.5t9 149.5q14 74 46 143.5t81 128.5q16 23 47 51.5t54 44.5q90 53 180 82t182 45q-10 -12 1 -24t11 -25q-2 -6 -7 -12t-21 -12t-43 -13.5t-68 -19.5 q2 -4 4 -10.5t2 -10.5q16 4 29.5 5.5t28.5 3.5q59 4 100 -6.5t53 -24.5q31 -33 -100 -78q-76 -27 -149.5 -69t-122.5 -109q-51 -68 -64 -154q-12 -86 21 -170q23 -59 61.5 -111.5t89.5 -93.5q92 -74 209 -67q80 2 160 53t127 131q49 82 59 176q4 23 4 47.5t-2 47.5 q0 6 -1 12t-1 12q0 4 -1 6t-1 6v5l-2 4v2v0t2 -4q-4 12 -6 23t-6 22q-10 31 -36 64.5t-58 62.5q-31 29 -63 49t-44 37q-23 16 -22.5 26t10.5 17q55 -29 105 -67t87 -85q37 -49 58 -100q2 -8 4 -14.5t4 -14.5l2 -6l2 -2v-4l2 -15q4 -16 6 -29.5t2 -29.5q4 -72 -13.5 -143.5 t-57.5 -130.5q-37 -59 -92.5 -104.5t-118.5 -67.5q63 20 118.5 64t94.5 106q39 59 57 130.5t12 145.5q0 29 -6 59l-2 15l-2 4v2l-2 6q-2 8 -4 14.5t-4 14.5q-23 57 -56 102q-35 47 -84 86t-104 72q8 4 15.5 11t2.5 17q-16 6 -28 15q-12 6 -23.5 11t-21.5 9 q-10 10 -18.5 16.5t-14.5 14.5l-6 6q-27 31 -8.5 45.5t59.5 16.5q10 0 23.5 -1t29.5 -3q10 -4 18.5 -10.5t18.5 -12.5q43 -25 86 -54.5t84 -64.5q41 -37 76 -81t59 -95q6 -12 12.5 -24.5t10.5 -26.5q4 -6 5 -13.5t5 -13.5l4 -14l2 -6q2 -4 1 -3t-1 -1v-2l2 -4 q10 -47 15 -111q6 -115 -35 -227q-29 -78 -79 -149t-120 -126q-66 -55 -148.5 -89t-168.5 -36q102 2 195 43t165 109t120 157t64 189q10 49 10.5 99t-5.5 100q-4 16 -5 24l-4 12v7v2l-2 2v2q0 -2 -1 2t1 2q-4 12 -7 24.5t-7 22.5q-16 45 -43 94q-53 92 -129 155.5 t-154 110.5q37 -10 80 -26.5t88 -50.5q53 -43 99.5 -98.5t74.5 -121.5q8 -16 15.5 -32.5t11.5 -32.5q4 -8 5 -15.5t5 -17.5v-2q4 -8 3 -5t-1 1v-2l2 -4l2 -8q0 -4 1 -8.5t1 -8.5q12 -68 13 -133h-23q4 -94 -22.5 -183t-75.5 -165q-51 -76 -120 -134.5t-153 -92.5 q-84 -35 -177 -43.5t-185 20.5q-45 12 -86 32.5t-80 49.5q-37 29 -68.5 57.5t-62.5 63.5q6 -10 2 -10h-8q29 -35 60.5 -66t68.5 -59q37 -29 79 -50.5t89 -33.5q92 -29 186 -21t180 43q84 35 155 93.5t123 133t83 161.5t35 184q-6 -147 -75 -279.5t-183 -218.5 q-57 -45 -124 -76t-141 -43z" />
<glyph unicode="p" horiz-adv-x="1257" d="M739 14q-57 -10 -109 -9t-102 11q-35 6 -78.5 12.5t-84.5 16.5q-31 8 -57.5 16.5t-43.5 18.5q6 -197 12 -399q0 -12 1.5 -32t1.5 -30q-12 -47 -16.5 -91t-2.5 -91q-10 6 -24.5 1t-26.5 -4t-19.5 16t-3.5 61h-22l-6 -31q-12 -37 -28.5 -59.5t-34 -26.5t-33 12t-23.5 57 q-10 49 -12 107.5t-3 121t-2.5 127t-7.5 126.5q-6 92 -10 182t4 182q12 125 16.5 258t26.5 260q4 29 4 67t4 73q-12 10 -6 37.5t47 74.5q29 29 65 57.5t81 51.5q45 25 98 41t113 20q59 4 119.5 -7t113.5 -34q55 -25 101.5 -57.5t85.5 -67.5q57 -53 100 -116.5t74 -130.5 q29 -68 46 -140.5t17 -150.5q-2 -53 -8 -107.5t-25 -109.5q-16 -53 -48 -107.5t-79 -97.5q-47 -45 -103.5 -72t-111.5 -37zM82 743q8 109 24 218q-4 0 -5 -1.5t-3 -1.5q-6 -53 -9 -107t-7 -108q-8 -92 -15.5 -181t-15.5 -179q10 88 17.5 178t13.5 182zM252 993q0 -2 2 -2 q-2 0 -2 -2v4zM207 301q4 147 10 294.5t29 289.5q-4 -2 -5 -4t-5 -4q-6 -61 -10.5 -125t-10.5 -129q-10 -78 -10 -161t2 -161zM233 186q0 -14 1.5 -26.5t3.5 -26.5q4 -2 16 -6v12q-12 4 -14 4q4 4 7 9.5t5 9.5v16q-4 2 -8.5 3t-10.5 5zM246 55q2 6 4 5l6 -3v13.5t-2 13.5 q-4 2 -5 4t-5 4l-4 4q2 -10 3 -20.5t3 -20.5zM281 295q125 -63 245 -82q63 -10 125 -6t115 26q39 16 67.5 49t45.5 80q16 45 19 95.5t-1 97.5q4 -57 -4 -112.5t-31 -102.5q-47 -94 -145 -119q-47 -14 -103.5 -12t-111.5 16t-108.5 36t-104.5 50q27 2 54.5 0t55.5 -12 q70 -25 137.5 -37t125.5 -4q4 -12 4 -25q86 23 131 72q51 51 67 141q16 88 -8.5 187.5t-83.5 177.5q2 -8 -2 -8h-8q51 -80 73.5 -172t12.5 -178q-10 -88 -57 -136q-41 -47 -121 -59q61 10 98 41t57 88t18.5 128t-24.5 138q-20 70 -57 132.5t-86 109.5t-103.5 67.5 t-111.5 10.5q-10 -2 -26.5 -6t-26.5 -9q-29 0 -60 -11t-59 -29q-8 -51 -12.5 -102.5t-8.5 -102.5h-22q4 -104 -2 -204.5t-11 -203.5q6 2 17 2q2 100 5 197.5t13 197.5q-6 -98 -8 -196t-2 -199zM262 123q92 -35 189.5 -56.5t203.5 -15.5q70 4 142.5 29.5t130.5 79.5 q59 53 92 123.5t45 142.5q-16 -70 -48 -139.5t-89 -122.5t-129 -81t-144 -32q-109 -4 -205 20.5t-188 63.5v-12z" />
<glyph unicode="q" horiz-adv-x="1230" d="M795 37q-92 -23 -188.5 -34t-203.5 7q0 12 5 25q-72 8 -145 43t-124 94q-53 59 -76.5 130t-29.5 138q-6 70 0 134.5t22 127.5q29 121 92 246q-8 -8 -9 -4t-3 8q-68 -117 -98 -243q-16 -63 -21.5 -129t0.5 -136q8 -68 32 -138t73 -132q51 -63 121.5 -103t144.5 -57 q-57 12 -114.5 38t-104.5 69q-49 41 -82 94t-51 109q-35 113 -31 219t33 207q29 98 80 190t131 170q41 39 89 70.5t105 54.5t121 30t125 -3q20 -2 54 -10.5t53 -16.5q80 -47 149 -105q16 16 35.5 13.5t38.5 -19.5q4 -6 9 -12t11 -12v-25q-2 -104 3.5 -208.5t-1.5 -221.5 q-6 -80 -4 -167t2 -167q8 190 7 383t10 383q27 -41 32 -88q2 -63 2.5 -124.5t0.5 -123.5h-23q8 -86 7 -169t-5 -165.5t-6 -165.5t6 -169q4 6 6 4t4 -2q0 168 3 327.5t8 331.5v-519t-9 -521v-29.5t-2 -30.5q-25 -90 -24 -180q-10 6 -24.5 2t-27 -2t-18.5 17.5t-2 60.5h-22 q-2 -18 -9 -31q-12 -37 -30.5 -58.5t-35 -25.5t-31.5 13.5t-21 58.5q-6 51 -6.5 109.5t3 121t5.5 127t0 125.5q-2 20 -2 40v42q-10 -4 -19.5 -8t-19.5 -8zM895 1067q-8 -8 -10 -16h2v-11q8 -8 10 -12v21q4 0 10 -1t11 -1q-4 4 -10.5 9t-12.5 11zM901 760q-2 -90 -5 -178 t-13 -179q12 86 16 175.5t2 181.5v114l-4 3q2 -29 3 -58.5t1 -58.5zM233 469q-2 -49 12.5 -96t45.5 -82q29 -35 75 -55.5t99 -26.5q88 -12 181 5t185 48q0 -14 3 -20q2 23 3 45t3 45q14 123 14 253t10 253v24t-2 29q-4 4 -10 6t-10 6q-51 31 -104.5 57.5t-106.5 30.5 q-51 6 -104.5 -15.5t-96.5 -72.5q-61 -70 -99 -164t-55 -190q-10 -66 3.5 -128.5t48.5 -98.5q35 -39 96 -56.5t135 -19.5q27 0 61.5 8t69.5 18t62.5 18.5t44.5 8.5q23 0 28.5 -7t5.5 -18q-92 -35 -185 -55t-181 -10q-53 6 -97 27.5t-75 56.5q-60 70 -60 176zM338 76 q78 -27 153.5 -30t147.5 5q51 4 98 14.5t94 20.5v16q-53 -16 -109 -28.5t-116 -18.5q-41 -4 -82 -5t-86 5q-43 6 -88 20.5t-86 41.5q-57 35 -102 92t-68 123t-29 132t1 126q-10 -72 -3 -147.5t39 -149.5q31 -72 95 -133q31 -29 67.5 -49.5t73.5 -34.5z" />
<glyph unicode="r" horiz-adv-x="856" d="M297 678q-6 -6 -11 -15.5t-10 -19.5q-4 -96 -9 -193.5t-21 -189.5q-4 -23 -6 -57.5t-5.5 -69.5t-8.5 -63.5t-13 -38.5q-8 -14 -16.5 -16.5t-18.5 1.5q4 37 10.5 78t11.5 84t9 84t6 76q6 72 12 141.5t11 141.5q0 2 -2 2q-6 -72 -11.5 -142.5t-9.5 -142.5 q-6 -70 -20.5 -159t-26.5 -159q-18 12 -33 7q-2 -8 -2 -17q-2 -6 -2 -14v-12q-27 -41 -52.5 -33t-43.5 31q-4 6 -7 12t-8 14l5 21q23 92 35 205.5t22 220.5q6 51 7 104t1 107q-2 0 -2 2t-4 6q-4 -162 -19.5 -332t-56.5 -311q-4 8 -5 23.5t-1 32.5t1 33.5t3 29.5 q8 55 13.5 110t9.5 109h22q-4 78 -1 166t6 178t2 178t-13 168q-2 -6 -4 -5l-6 3q4 -78 6 -165t1 -176t-4 -176t-9 -163q6 92 7 193.5t-1 205t-6 205.5t-9 197q10 4 20.5 6t20.5 4t29 2q4 0 9 -5t10 -9q4 -4 7 -10.5t7 -10.5q8 -8 22 -12q10 -6 23 -8q16 -8 27 -9q12 4 16 9 q2 2 5 6t7 4l2 -2v-8q-2 -12 0 -23q2 -8 10.5 -12t14.5 -8q4 -2 8 -5.5t8 -5.5q6 -12 10.5 -24.5t8.5 -24.5v-18t2 -21q4 6 10 11.5t10 9.5q47 39 103.5 73.5t130.5 53.5q6 2 16 4t16 2q29 -8 54.5 -11t50.5 -8q-4 -10 -3 -24t-1 -26.5t-9.5 -18.5t-27.5 0v-23q4 -2 6 -4 t6 -4q27 -27 23 -59q0 -20 -7.5 -35.5t-17.5 -24.5q-12 -8 -24.5 -10t-28.5 -6q-14 -4 -30.5 -9t-31.5 -18q-23 -18 -44 -36.5t-50 -34.5q-41 -20 -71.5 -54t-69.5 -63zM367 1049q-23 -16 -42.5 -33t-37.5 -33v-22q23 18 44 36.5t42 42.5q-2 1 -6 9zM309 944q-6 -4 -11 -8 t-11 -8v-4q6 4 11 10t11 10zM281 715l6 6q23 25 49 47.5t55 38.5q-31 -14 -56.5 -36.5t-47.5 -49.5q-4 -4 -6 -4v-2zM84 694l4 4v23l-2 -2q0 -17 -2 -25zM242 670q0 -4 -1 -7.5t-1 -7.5l2 2v13z" />
<glyph unicode="s" horiz-adv-x="1042" d="M481 0q-66 -10 -131 -6t-129 18q-23 4 -56.5 15.5t-55.5 19.5q-76 45 -143.5 95.5t-127.5 103.5q16 2 20.5 18.5t14.5 24.5t33.5 -4.5t83.5 -59.5q8 8 12 21q-10 10 -17.5 17t-15.5 18q-35 41 -48 77.5t-9 55.5q12 49 119 -19q59 -39 127.5 -72.5t146.5 -50.5 q39 -8 78 -9t76 7q37 6 68.5 20.5t47.5 35.5q25 23 25 43q0 8 -1 16t-11 25q-18 31 -62.5 66.5t-97.5 66.5q-43 25 -90 51.5t-96 58.5q-49 35 -99.5 75t-91.5 106q-20 33 -34.5 72.5t-18.5 80.5q-4 43 4 82t23 74q14 33 34.5 64.5t51.5 60.5q29 29 65.5 46t71.5 23 q53 14 112.5 12.5t112.5 -12.5q53 -10 91 -24.5t54 -26.5q23 -16 25 -26.5t-6 -18.5q-59 23 -119.5 42.5t-128.5 27.5q-35 4 -70.5 1t-74.5 -14q-37 -10 -71 -34.5t-58 -55.5q-57 -76 -70 -170q-6 -49 8.5 -98t38.5 -88q27 -41 57.5 -70.5t61.5 -54.5q33 -27 65.5 -48.5 t65.5 -39.5q-61 41 -125.5 88t-118.5 123q-27 39 -41 87t-10 99q8 94 68 172q53 66 129 88q37 10 72.5 11.5t70.5 -2.5q66 -8 125 -29t115 -43q-18 -18 -15 -35q12 -4 25 -10q20 -10 43 -17q23 -18 29 -26q29 -35 10 -53.5t-55 -22.5q-10 -2 -21.5 -2h-24.5q-8 4 -15 8 t-15 8q-35 16 -71 31.5t-71 26.5q-35 10 -68.5 15t-62.5 1q-53 -8 -84 -47q-16 -25 -26 -55q-10 -29 -6 -56q-2 -39 33.5 -80.5t89.5 -76.5q53 -35 110 -63.5t117 -59.5q-68 37 -133.5 71.5t-118.5 77.5q-55 43 -80 88q-23 43 -10 91q4 12 8 25t12 24q10 18 29 32 q29 23 84 21q55 -4 117.5 -26.5t122.5 -55.5q-29 0 -61 3t-66 13q-82 29 -131 23q-23 -2 -33 -8q-12 -8 -23 -27q-4 4 -10 6t-10 6q-18 -41 -15 -71q2 -27 27 -62q27 -35 74 -68.5t100 -66.5q27 -16 55.5 -30.5t59.5 -30.5l31 -19l8 -4l4 -2h-2l4 -2h2l2 -2l16 -10 q31 -18 62 -43t60.5 -53.5t56.5 -67.5q27 -37 45 -85t18 -104q4 16 6 12.5t6 -7.5q2 57 -16.5 106t-42.5 88q-29 41 -58.5 71t-60.5 54q-16 12 -31.5 23.5t-31.5 21.5l-17 8l-4 4h-2q-4 4 -3 3t-1 -1v3l-8 4q-10 4 -17.5 8t-13.5 8q-31 16 -59.5 29.5t-55.5 29.5 q-53 29 -99 61t-73 66q-25 33 -24 56q-2 20 14 55q-12 -29 -12 -45q-2 -18 8 -37q10 -23 38 -49.5t64 -48.5q37 -25 79 -47.5t89 -44.5l50 -25q16 -8 24 -14q6 -4 4 -2t0 0h2l4 -2l6 -5l13 -8q53 -35 100 -75q25 -23 47.5 -48.5t42.5 -58.5t34.5 -72t18.5 -84q4 -43 -5 -88 t-29 -82q-20 -39 -47 -69.5t-56 -53.5q-59 -47 -124.5 -71.5t-131.5 -34.5z" />
<glyph unicode="t" horiz-adv-x="892" d="M51 1690q8 14 16.5 16t18.5 -2q-10 -70 -14 -138.5t-9 -135.5q-8 -84 -12 -166t-10 -166q10 82 14 163.5t8 168.5q4 68 12.5 135t20.5 135q8 -4 15.5 -6t17.5 2q2 6 2 14v13.5t2 13.5q4 6 8 10t9 8q23 20 43 11t36 -27q4 -6 7.5 -12.5t7.5 -12.5l-6 -20 q-23 -88 -27 -179.5t-12 -195.5q-4 -29 -5 -60.5t-1 -64.5q0 4 4 8l2 -2q2 129 12 253t45 239q8 -16 13 -36t1 -42q-8 -53 -12 -105.5t-8 -105.5h-23q4 -41 4 -83t-2 -83q4 -2 6.5 -2t6.5 -2q2 41 3 81t5 81q-2 -41 -3 -82t-1 -82q23 -8 39 -10v-25q20 6 42.5 2t44 -9t45 -6 t48.5 9q-4 6 0 12q-47 -4 -91 0t-85 15q33 -6 76 -7.5t90 0.5t94 3.5t86 1.5h18q25 -25 56 -25q-2 -10 -1 -25.5t0 -29t-6.5 -20.5t-17.5 -1q0 -4 -1 -12t-1 -12q4 -2 8 -11q20 -27 21.5 -68.5t-21.5 -58.5q-12 -8 -37.5 -9t-54.5 0t-55.5 2t-44.5 -3q-27 -4 -52.5 -7 t-54.5 7q-33 10 -68.5 13.5t-70.5 19.5q2 -29 3 -57.5t3 -57.5q2 18 4 35.5t4 34.5q10 -16 18.5 -32.5t8.5 -37.5q-2 -49 -3 -98t1 -96h-21v-15q10 -63 11.5 -123.5t5.5 -119.5q4 -31 7 -61t13 -56q6 -27 18.5 -44.5t22.5 -17.5q2 4 4 5.5t4 3.5q-4 2 -14 18t-18 39 q-8 25 -13.5 53.5t-9.5 57.5q-6 59 -8 123.5t-2 130.5q2 -53 4 -102.5t6 -98.5q6 -47 14.5 -93t22.5 -81q12 -35 22 -39q2 -2 2 -1t13 -1q10 0 26.5 4t36.5 10t42 15.5t44 19.5q6 4 18.5 9t20.5 9q37 4 71 17.5t64 29.5q0 -10 10.5 -21t15.5 -21.5t-3 -22.5t-41 -27 q4 -4 6 -9t4 -9q8 2 14.5 3t12.5 1q31 4 55.5 -2t35.5 -19.5t7 -33t-31 -43.5q-33 -29 -75.5 -52.5t-94.5 -46.5q-27 -10 -54.5 -19t-57.5 -20q-31 -10 -65 -17t-77 -7q-31 0 -66.5 8t-68.5 29q-33 20 -56.5 45.5t-37.5 50.5q-10 18 -19.5 35.5t-13.5 34.5q-39 -4 -53 63 q-18 92 -17 207t-14 229q-8 84 -13 166t-1 166q10 117 10 239t23 238q2 20 2 48t1 54.5t4 49.5t11 33zM264 1020q27 -8 53.5 -14.5t53.5 -16.5q-27 12 -52.5 19.5t-54.5 11.5q-4 0 -7 1t-7 1q4 -2 14 -2zM397 1155q-39 6 -77.5 11t-73.5 22v-10q14 -4 29.5 -6.5t31.5 -8.5 q20 -10 43.5 -9t46.5 1zM248 899q-4 -23 -4 -46.5v-45.5q2 4 4 2t4 -2q-2 23 -3 46t-1 46zM244 981l-8 4q-4 2 -11 2v-12q2 -2 4 -3t4 -3q4 -2 5.5 -4t5.5 -7v23zM229 1184q2 -2 4.5 -2t6.5 -2q0 4 1 5t1 5l-13 6v-12zM242 1026q-8 0 -17 4v-4q4 -2 8.5 -2t8.5 -2v4z M197 1038v-8h2v8h-2z" />
<glyph unicode="u" horiz-adv-x="1183" d="M659 20q-74 -20 -162.5 -20t-177.5 35q-63 27 -113 71t-83 95q-16 25 -29.5 51.5t-23.5 48.5q-23 55 -31 111q-25 147 -19.5 292.5t43.5 276.5q6 25 12.5 55.5t12.5 61t14.5 55.5t18.5 35q10 16 19.5 15t17.5 -7q-27 -74 -44.5 -150.5t-29.5 -154.5q-16 -94 -23.5 -190.5 t0.5 -198.5q-4 100 2.5 195.5t20.5 193.5q14 78 34.5 152.5t49.5 146.5q6 -4 13 -9t18 -1q2 8 6 16q4 6 5 13.5t5 13.5t10 9t11 7q29 16 45 1t26 -38q2 -6 4 -13t4 -15l-10 -19q-41 -88 -61.5 -186.5t-34.5 -208.5q-12 -78 -5 -161t29 -155q-20 86 -23 178.5t9 184.5 q10 92 36 179t67 163q10 -39 -3 -84q-35 -102 -51 -221q-4 2 -11 2h-11q-4 -80 -6 -158t6 -153q4 -37 11 -73t22 -67q16 -35 34.5 -62.5t44.5 -45.5q-2 4 7 8q-23 20 -38.5 46t-31.5 60q-25 59 -35 134q-10 72 -8 147.5t14 153.5q-16 -121 -8 -239t55 -212q43 -92 115 -123 q74 -29 180 6l49 17q61 6 119 34q2 31 2 59t2 48q6 57 10.5 124.5t9.5 138.5t12 138.5t19 124.5q2 20 3.5 52t2.5 65t4 59.5t11 36.5q8 16 16.5 17.5t18.5 -2.5q-4 -35 -10.5 -81t-11.5 -95.5t-9 -96.5t-6 -80q-8 -86 -14.5 -167.5t-14.5 -165.5q10 82 16.5 164.5 t12.5 168.5q2 33 8 80t12.5 95.5t13.5 94.5t13 79q20 -8 33 -5q0 6 2 15q2 6 2 13t2 13q25 39 50.5 32t43.5 -30q4 -6 7 -12l7 -14l-4 -19q-12 -43 -20 -101t-14.5 -119.5t-11.5 -122t-11 -111.5q-10 -72 -8 -151t4 -150q2 86 5 185t12.5 199.5t23.5 196t37 172.5 q8 -16 13 -35.5t3 -41.5q-4 -27 -10 -66t-11 -81t-9.5 -81t-6.5 -65h-22q4 -76 0 -160t-7 -171t-1 -173t14 -162q2 6 4 4t6 -2q-4 76 -6 160t-1 169t4 169t9 157q-6 -88 -7 -186t1 -198.5t6 -199t8 -188.5q-10 -4 -20 -6l-20 -4q-8 -2 -14.5 -3t-14.5 1q-4 0 -9 5t-10 9 q-4 4 -7 9.5t-7 9.5q-8 8 -22 12q-6 2 -11.5 4t-11.5 4t-12 5.5t-15 0.5q-4 0 -16 -8l-5 -5t-7 -3h-2v8q4 12 0 23q0 6 -9 10q-74 -43 -172 -68z" />
<glyph unicode="v" horiz-adv-x="1103" d="M961 1147q-4 -39 -17.5 -81t-31 -85t-34 -87t-28.5 -89q-18 -66 -38.5 -129.5t-49.5 -122.5q-41 -82 -70.5 -172t-66.5 -172q-6 -16 -9.5 -35.5t-6.5 -40t-7 -37t-10 -22.5q-8 -10 -16.5 -11.5t-18.5 3.5q10 53 22.5 104t28.5 102q39 119 97 244q-31 -57 -54.5 -118.5 t-42.5 -125.5q-37 -102 -61 -202q-8 4 -15.5 6t-17.5 0q-2 -6 -2 -13q0 -4 -1 -10t-1 -10l-8 -8l-8 -8q-12 -10 -35 -11q-23 -23 -60 -12q-6 2 -13 3t-13 5l-6 19q-27 78 -53.5 150.5t-47.5 158.5q-10 59 -29.5 119.5t-35.5 118.5q16 -68 33.5 -136.5t37.5 -138.5t39 -139.5 t41 -140.5q-16 10 -29.5 22t-21.5 31q-16 47 -31.5 91t-27.5 89q4 2 10 4t10 2q-29 59 -44 119.5t-28.5 121t-28 120t-40.5 116.5q-2 -4 -10 -4q35 -119 64.5 -234.5t64.5 -238.5q-59 190 -109.5 370.5t-101.5 368.5q-4 8 -6.5 20.5t-6.5 22.5q4 35 0 67t-14 63q10 0 22.5 7 t24.5 10t21.5 -6t15.5 -42q4 2 10 3t10 3q0 6 1.5 12t1.5 13q4 29 15 50t26.5 29.5t34 0t34.5 -34.5q18 -35 31.5 -77t25 -87t22.5 -91t28 -90q20 -66 38.5 -128t28.5 -128q8 -59 22.5 -116.5t30.5 -114.5q57 178 113.5 347t118.5 345l16 41q41 53 64 119q8 -8 22.5 -9 t24.5 -6t13 -17.5t-11 -43.5q4 -2 11 -4t11 -4q4 6 7.5 11t7.5 10q20 20 41.5 30.5t39 8t28 -18.5t8.5 -49zM422 309q-33 117 -55 248q16 -129 55 -248zM446 227q0 4 3 6q-4 4 -5 11q-2 -2 -2 -4q2 -4 2 -6.5t2 -6.5zM500 393q25 55 43 117.5t37 118.5q-31 -78 -58.5 -159 t-56.5 -163q0 -2 1 -4t1 -4q8 23 15.5 47t17.5 47zM455 350q12 61 32.5 117.5t43 112t43 112t30.5 117.5q-4 -4 -10 2q-35 -111 -72 -213t-76 -213q2 -10 4.5 -18.5t4.5 -16.5z" />
<glyph unicode="w" horiz-adv-x="1697" d="M1200 74q-8 -10 -16 -11.5t-19 3.5q10 53 22.5 104t26.5 102q45 127 99 244q-31 -57 -54.5 -118.5t-44.5 -125.5q-16 -51 -31.5 -101t-27.5 -101q-8 4 -15 6t-18 0q-2 -6 -2 -13q-2 -4 -2 -10v-10l-8 -8l-8 -8q-12 -10 -35 -11q-23 -23 -59 -12q-6 2 -13.5 3t-13.5 5 l-6 19q-27 78 -53.5 150.5t-47.5 158.5q-10 59 -29.5 119.5t-35.5 118.5q16 -68 33.5 -136.5t38.5 -138.5q20 -70 38.5 -139.5t41.5 -140.5q-16 10 -29.5 22t-22.5 31q-16 47 -31.5 91t-27.5 89q4 2 10 4t10 2q-43 92 -60 186.5t-44 186.5q-4 -8 -6 -14.5t-4 -14.5 q23 -86 44 -170t46 -174q-25 86 -49.5 167t-46.5 165q-4 -10 -9.5 -20.5t-9.5 -20.5q-41 -82 -70.5 -172t-66.5 -172q-6 -16 -9 -35.5t-6.5 -40t-7.5 -37t-10 -22.5q-8 -10 -16 -11.5t-19 3.5q10 53 22.5 104t26.5 102q45 127 99 244q-31 -57 -54.5 -118.5t-44.5 -125.5 q-16 -51 -31.5 -101t-27.5 -101q-8 4 -15 6t-18 0q-2 -6 -2 -13q0 -4 -1 -10t-1 -10l-8 -8l-8 -8q-12 -10 -35 -11q-23 -23 -59 -12q-6 2 -13.5 3t-13.5 5l-6 19q-27 78 -53.5 150.5t-46.5 158.5q-10 59 -30 119.5t-36 118.5q16 -68 33.5 -136.5t38.5 -138.5 q20 -70 38.5 -139.5t41.5 -140.5q-16 10 -29.5 22t-22.5 31q-16 47 -31.5 91t-27.5 89q4 2 10 4t10 2q-29 59 -44 119.5t-28.5 121t-27.5 120t-41 116.5q-2 -4 -10 -4q35 -119 64.5 -234.5t64.5 -238.5q-59 190 -109.5 370.5t-101.5 368.5q-4 8 -7 20.5t-5 22.5q4 35 0 67 t-15 63q10 0 22.5 7t25 10t21.5 -6t15 -42q4 2 10.5 3t10.5 3q0 6 1 12t1 13q4 29 15 50t26.5 29.5t34 0t34.5 -34.5q18 -35 31.5 -77t25 -87t23 -91t27.5 -90q20 -66 38.5 -128t28.5 -128q8 -59 22.5 -116.5t31.5 -114.5q53 164 104 321.5t109 319.5q-2 4 -2 8t-2 8 q4 35 0 67t-15 63q10 0 21.5 6t23 9t20.5 -1t15 -29q6 10 11.5 18.5t9.5 18.5t8 21.5t8 21.5q2 -6 10 -6q16 25 42 24.5t48 -38.5q4 -6 6.5 -11.5t4.5 -11.5q37 27 66.5 15.5t25.5 -64.5q-8 -61 -37 -133q10 -35 19.5 -70t21.5 -70q20 -66 38.5 -128t28.5 -128 q8 -59 22.5 -116.5t31.5 -114.5q57 178 113.5 347t117.5 345q4 8 8 20.5t6 20.5q43 51 66 119q8 -8 22.5 -9t24.5 -6t13.5 -17.5t-11.5 -43.5q4 -2 11.5 -4t11.5 -4q4 6 7 11t7 10q20 20 42 30.5t39 8t27.5 -18.5t8.5 -49q-4 -39 -17.5 -81t-31 -85t-34 -87t-28.5 -89 q-18 -66 -38.5 -129.5t-49.5 -122.5q-41 -82 -70.5 -172t-66.5 -172q-6 -16 -9 -35.5t-6.5 -40t-7.5 -37t-10 -22.5zM391 309q-33 117 -55 248q16 -129 55 -248zM416 233q0 2 -1 4.5t-1 6.5q-2 -2 -2 -4q2 -4 2 -6.5t2 -6.5v6zM469 393q25 55 43 117.5t37 118.5 q-31 -78 -58.5 -159t-56.5 -163q0 -2 1 -4t1 -4q8 23 15.5 47t17.5 47zM424 350q12 61 32.5 117.5t43 112t43 112t30.5 117.5q-4 -4 -10 2q-35 -111 -71.5 -213t-75.5 -213q2 -10 4 -18.5t4 -16.5zM1030 309q-33 117 -55 248q16 -129 55 -248zM1055 233q0 2 -1 4.5t-1 6.5 q-2 -2 -2 -4q2 -4 2 -6.5t2 -6.5v6zM1108 393q25 55 43 117.5t37 118.5q-31 -78 -58.5 -159t-56.5 -163q0 -2 1 -4t1 -4q8 23 15.5 47t17.5 47zM1063 350q12 61 32.5 117.5t43 112t43 112t30.5 117.5q-4 -4 -10 2q-35 -111 -71.5 -213t-75.5 -213q2 -10 4 -18.5t4 -16.5z " />
<glyph unicode="x" horiz-adv-x="1077" d="M958 106q-12 -2 -21 -13t-19.5 -17t-22.5 0t-31 39q-12 -8 -18 -15l4 -12l4 -12q8 -33 5 -58.5t-14 -39t-31.5 -10.5t-49.5 28q-33 31 -61.5 70.5t-57.5 84t-57.5 90.5t-61.5 87q-20 27 -38.5 52.5t-36.5 51.5q-47 -66 -88 -136.5t-89 -131.5q-10 -14 -18 -34.5 t-16.5 -41t-16.5 -36t-16 -19.5q-10 -10 -18.5 -8t-18.5 6q23 53 47.5 103t52.5 99q37 59 76 118t82 114q-45 -53 -84 -111.5t-74 -120.5q-29 -47 -56.5 -96t-51.5 -100q-18 14 -33 14l-4 -12q-4 -12 -8 -21q-6 -4 -11.5 -6t-9.5 -6q-25 -10 -44 1t-32 34l-4 12t-6 15l10 16 q43 74 81 148.5t89 150.5q37 51 70 111.5t66 113.5q-84 -125 -160 -257t-162 -261q-4 18 -3 37.5t9 40.5q25 45 49.5 88t49.5 86q4 -4 10 -6t10 -6q37 92 89 166.5t101 152.5q-4 4 -5 9.5t-5 9.5q-47 -80 -96 -158t-100 -162q47 84 95 165t95 163q-41 66 -84 130t-80 130 q-10 14 -26.5 31.5t-31.5 33t-27.5 29.5t-14.5 25q-4 14 0 21t12 14q41 -43 80 -90.5t74 -94.5q63 -92 121 -192q0 2 2 2q-55 98 -123 190q-35 49 -70 96.5t-74 94.5q20 8 25 22l-27 27q-2 6 -3 11t-1 11q-4 29 14.5 41.5t45.5 14.5q6 -2 13 -2t15 -2q4 -4 13 -17 q55 -72 110.5 -141.5t108.5 -151.5q8 -16 16 -29.5t19 -27.5q0 2 4 6q-16 23 -29.5 44.5t-30.5 43.5q-47 66 -93 133.5t-93 134.5q18 -4 36.5 -14t35.5 -26q35 -43 65.5 -86.5t61.5 -83.5q-4 -4 -8.5 -7.5t-8.5 -7.5q23 -25 42.5 -50.5t37.5 -51.5l6 12q-16 25 -32.5 49.5 t-32.5 48.5q16 -25 33.5 -48t33.5 -48q12 18 33 46t43.5 57.5t43 58.5t32.5 47q4 8 12 20.5t12 18.5q31 25 53.5 52.5t41.5 55.5q6 -10 20 -14t24.5 -11t10.5 -21.5t-23 -41.5q4 -4 9.5 -7t9.5 -5q6 4 11 8t9 9q27 18 51.5 23t41 -1t22.5 -25.5t-4 -52.5q-14 -39 -46 -88 t-70 -101t-74.5 -103.5t-59.5 -94.5l-37 -67q66 -96 129.5 -190.5t128.5 -192.5q6 -8 15.5 -20.5t13.5 -20.5q10 -39 27 -72t40 -62zM342 686q-4 10 -10 21v-2q4 -4 5 -9.5t5 -9.5zM672 528q-2 8 8 9q-41 53 -82 118q-2 -6 -10 -18q20 -29 40.5 -55.5t43.5 -53.5z" />
<glyph unicode="y" horiz-adv-x="1179" d="M991 655q-33 -109 -60.5 -223.5t-74.5 -218.5q-4 -12 -16.5 -52t-28.5 -92.5t-34.5 -110.5t-36 -108.5t-31 -86t-19.5 -39.5q-8 -8 -20 -13q-16 -33 -38 -68.5t-59 -70.5q-47 -41 -99 -57.5t-101 -18.5t-91 6.5t-83 18.5q-74 25 -144 61q-6 2 -16 6t-14 9q-33 45 -76 69 q8 6 13 19.5t12.5 23.5t17.5 11t28 -13q2 4 5.5 9t5.5 10q-4 4 -5 8t-6 8q-10 20 -11 40.5t6.5 36t22.5 25t38 4.5q25 -6 50.5 -19t51 -26.5t51 -26t52.5 -16.5q37 -8 64.5 -7t43.5 -3q4 0 6 -1t6 -1q2 2 5 2h4q10 4 22 19q12 16 25.5 39.5t29.5 50.5q10 20 13.5 53t19.5 43 q6 6 12 6q6 20 13.5 42t15.5 44q-43 63 -75.5 148.5t-79.5 162.5q-33 59 -65 118t-54 122q-31 88 -75 174t-79 172q-6 14 -18.5 31.5t-24.5 34t-20.5 32t-8.5 25.5q-2 12 3.5 18.5t15.5 10.5q31 -45 58.5 -92.5t54.5 -94.5q29 -59 56 -119.5t50 -123.5q-20 63 -47 123.5 t-59 119.5q-25 49 -49.5 96.5t-53.5 94.5q20 8 29 18q-2 4 -6 10q-4 4 -7.5 9.5t-5.5 9.5q-2 12 0 20q4 27 24.5 36t43.5 7q6 -2 13 -2t16 -4l6 -16q35 -72 75.5 -140.5t75.5 -146.5q23 -57 54.5 -114.5t60.5 -110.5q-59 131 -127 260t-125 262q16 -6 31.5 -16.5t25.5 -26.5 q23 -43 45.5 -84t45.5 -82q-4 -4 -10.5 -6t-10.5 -6q39 -53 66.5 -109.5t53 -114t52.5 -113.5t64 -110q0 6 10 7q-59 113 -111.5 221t-111.5 225q80 -154 156.5 -299t150.5 -299q23 82 48.5 193.5t49 228.5t44 227.5t34.5 194.5q10 0 20.5 1t20.5 -1q18 0 29 -4q4 -2 7 -7.5 t7 -9.5t5 -10t5 -10q4 -6 9 -10t12 -9q4 -4 9 -5t11 -5q4 -4 10 -8t13 -4q12 0 18 4q4 0 7 3t7 1h2q0 -2 -1 -4t-1 -4q-4 -12 -4 -21q0 -8 7.5 -14t11.5 -10t16 -12q6 -25 6 -50q-4 -25 -14 -79t-23.5 -114.5t-27 -114.5t-21.5 -77zM594 14q-6 -16 -12.5 -32.5t-12.5 -32.5 q2 0 4 -1t5 -1q4 16 10 31.5t12 31.5q-2 2 -3 2t-3 2zM541 -385q-47 -41 -105 -57q31 6 64 22q8 4 14 8t16 13q8 4 14.5 10t12.5 12q25 25 41 51.5t31 53.5q0 2 2 4q-2 0 -2 1t-2 1q-4 -8 -8.5 -15.5t-8.5 -15.5q-16 -23 -31 -44t-38 -44zM487 -225q-16 -25 -33.5 -41.5 t-33.5 -16.5q16 -2 34.5 13.5t32.5 40.5v4zM621 -369q16 23 27 42.5t22 37.5q-12 4 -17 6q2 4 3 11.5t6 15.5h-3q-12 -55 -47 -100q-8 -14 -18 -25.5t-23 -24.5q-8 -6 -13 -10l-15 -12q-8 -4 -15.5 -8t-15.5 -8q-29 -14 -60.5 -20.5t-62.5 -10.5q-29 -4 -56.5 -3t-56.5 1 q4 -4 -2 -10q29 -4 57.5 -7.5t59.5 0.5t63.5 12.5t61.5 24.5q8 4 15.5 8.5t15.5 8.5l6 4q6 4 6 5t4 3l12 12q14 10 25 22.5t21 24.5zM688 356q12 72 38 171.5t52.5 205t47 206.5t24.5 175q-4 -4 -10 2q-10 -72 -29.5 -168t-43.5 -197.5t-48.5 -198.5t-44.5 -167 q4 -8 7 -15.5t7 -13.5zM698 336q2 -4 2 -6t2 -4q10 31 18.5 56.5l14.5 43.5q25 66 39 139.5t27 143.5q-16 -66 -42 -164t-61 -209zM719 -86q18 55 37.5 113.5t37 110.5t31 93t19.5 62q25 76 47 152.5t47 154.5q-29 -76 -50.5 -152.5t-43.5 -154.5q-6 -20 -21.5 -64.5 t-35 -100.5t-41 -118.5t-41.5 -118.5q4 6 7 12.5t7 10.5z" />
<glyph unicode="z" horiz-adv-x="1032" d="M737 786q-35 -61 -69.5 -122.5t-77.5 -116.5q-47 -61 -90 -130t-86 -134q14 -2 27.5 -2t27.5 -5q66 -10 134.5 -8t135.5 -14q12 -2 26.5 0t30 4t28 2t18.5 -6q10 -6 12 -15.5t0 -19.5q-41 0 -79 -1t-77 -1q-47 4 -95 7t-95 9q47 -10 94 -13t96 -3q39 -2 77 -4t77 -6 q0 -10 -1 -18.5t3 -18.5h8q4 0 7 1t8 1q8 -6 12 -14q14 -20 11 -44t-13 -42q-8 -12 -13 -21l-12 4q-53 12 -106.5 10t-112.5 5q-41 6 -87 3t-87 -5q98 -4 199.5 -4.5t193.5 -26.5q-16 -25 -43 -27q-61 6 -125 6v12.5t-2 12.5q-43 -10 -87 -9t-87 4t-87 3t-89 -12q2 -2 2 -13 q90 6 174 6t172 -4q-68 2 -135.5 -1t-136 -6t-139 -5t-144.5 2q-6 0 -16 1t-17 1q-25 16 -49 23.5t-51 11.5q4 10 4 25.5t2 28t11.5 18.5t33.5 -2q0 4 1 12t1 12q-6 2 -14 10q-18 14 -26.5 35t-7.5 39.5t11.5 32.5t30.5 20l156 123q4 -4 10 -6t10 -6q27 63 62 119.5 t70.5 111t70.5 109.5t61 119q-4 -4 -6 -1t-4 5q-66 -117 -133 -222.5t-137 -222.5q92 156 179 305.5t179 301.5q-92 -4 -183 -8.5t-191 -0.5q-6 0 -16.5 1.5t-16.5 1.5q-23 16 -46.5 22t-47.5 10q4 10 4 25.5t3 28t11 17.5t31 -1q0 4 1 11t1 11q-4 2 -13 11q-16 14 -24 33.5 t-7 37t11 31.5t29 21q23 6 49 5t54 -4t57.5 -5.5t60.5 2.5l86 8t86 -4q57 -10 116.5 -8.5t118.5 -8.5q4 4 7 8q2 -8 16 -12q23 -2 53.5 4t40.5 -6q14 -10 10 -33h-26h-41v-6q10 -2 18 -2h19q8 -2 15 -2t15 -2l-2 -2q37 10 58.5 -9.5t5.5 -68.5q-14 -39 -38 -79t-50.5 -81 t-54 -84t-50.5 -86zM287 438q37 51 69.5 111.5t65.5 114.5q-61 -94 -120.5 -192.5t-121.5 -199.5h10q23 41 45.5 83t51.5 83zM367 289q37 59 75.5 117.5t81.5 113.5q-45 -53 -84 -111.5t-73 -119.5q-2 -2 -3.5 -4t-3.5 -4h2q1 4 5 8zM713 1206q-41 4 -84 7.5t-84 9.5 q41 -10 83 -13.5t85 -3.5zM602 1067q-25 -2 -49.5 -4t-46.5 -2q23 -2 46 -2h46q4 4 4 8zM571 1016q2 4 4.5 7t4.5 7q-47 2 -95.5 3t-97.5 -11q2 -2 2 -12q92 6 182 6z" />
<glyph unicode="{" horiz-adv-x="614" d="M307 1626q49 8 93 10t85 4q-4 -10 0 -22t4 -25q-2 -10 -14 -16t-49 -8q0 -4 1 -10.5t1 -10.5q10 0 27 -4q27 -8 42 -21.5t19 -29.5q14 -37 -43 -57q-31 -10 -59.5 -19.5t-52 -24t-40 -37t-24.5 -57.5q-10 -49 -9 -107t5 -120q0 -14 2 -22v-17q0 -4 2 -13t6 -20 q8 -20 17.5 -43.5t19.5 -50.5t19.5 -55.5t13.5 -67.5q2 -20 0 -42.5t-13 -51.5q4 -4 5 -6q16 -29 21 -57.5t3 -51.5h-18q0 -29 -5.5 -51t-11.5 -41q-6 -20 -13 -36.5t-15 -32.5q-14 -31 -28.5 -57.5t-23.5 -47.5l-4 -8v-2l-2 -4l-2 -8q-2 -8 -6 -29q-4 -14 -5 -27.5 t-3 -29.5q-4 -29 -2 -56.5t12 -56.5q2 8 8 2q-4 27 -4 53.5t2 55.5q2 14 3 27.5t5 27.5q0 8 1.5 14t3.5 15q2 4 2 7t2 7q0 4 2 6q6 18 18 46t29 56q8 16 15 32t16 34q8 18 14 39.5t10 50.5q-6 -43 -17.5 -72.5t-21.5 -56.5q-25 -53 -43 -92q-4 -10 -8 -19.5t-6 -17.5 q0 -2 -2 -4v-2v-4l-2 -2l-4 -23q-4 -23 -6.5 -43t-2.5 -43q-6 -90 19 -157q20 -63 72 -97q14 -8 26 -12q16 -20 43 -28.5t56 -10.5q-4 -8 -1 -21.5t0.5 -24.5t-13.5 -16.5t-44 1.5q0 -10 -4 -19q16 -8 23 -12q53 -27 67 -53q6 -16 -6 -34t-57 -22q-47 -4 -107.5 10.5 t-120.5 55.5q-61 43 -98 100q-39 55 -61 119q-31 90 -32 174t19 162q2 6 3 13t6 14q2 8 3 13t5 17q6 18 12 32.5t12 29.5q14 27 25.5 48t21.5 44q10 20 18.5 38.5t12.5 28.5h-10h-6h-37q-14 0 -21 2q-16 4 -22 9q-20 10 -12 30q14 -2 28.5 -3t28.5 -3q18 4 35 0q6 0 12 1 t12 1h-2q-12 4 -22 4t-18.5 1t-18.5 1h-41v7q-4 0 -5 1t-5 1q2 6 4 11t2 11q-4 0 -15.5 -1t-17.5 -3q-6 2 -11 4t-9 4q-23 16 -22 36t15 40l19 18h4q0 2 2 3q12 8 20 12q-2 2 -8 2q16 10 35 18t43 8h21q-4 4 -5.5 10.5t-5.5 12.5q-8 20 -18 43t-21 47q-6 14 -11 28.5 t-11 31.5q-2 4 -3 8t-1 10q-2 2 -2 10q-2 0 -2 2v4l-6 27q-4 29 -7.5 56.5t-7.5 56.5q-4 57 0 116.5t25 122.5q18 63 61 124t109 99q10 6 29.5 15.5t29.5 13.5zM203 745q-2 -2 -2 -3t2 3zM125 987q-8 35 -14 70q2 -10 3 -19.5t3 -19.5q0 -4 1 -10.5t1 -10.5q4 -16 6 -22 q6 -23 13 -42.5t16 -35.5q12 -31 24 -59.5t19 -55.5h4q-2 4 -2 8.5t-2 8.5q-6 29 -18.5 57.5t-26.5 58.5q-6 16 -13.5 34t-13.5 38zM137 836q4 -12 8.5 -24.5t8.5 -23.5q6 -2 14 -2q-4 10 -9 23.5t-9 26.5q-12 29 -25.5 59.5t-24.5 71.5q-4 16 -4 24l-2 6v2l-2 9 q-2 10 -2 18t-2 16q-2 18 -3 36t-5 36q-2 35 -4 72t-2 76q-4 -6 -11 0q-6 -78 0 -148q2 -18 4.5 -36.5t4.5 -35.5q2 -10 3 -17t3 -17q2 -4 2 -8.5t2 -8.5q0 -8 4 -24q12 -41 26.5 -71.5t24.5 -59.5zM166 741q20 0 33 4q-12 4 -19 5v-2h-18q-2 0 -2 4h2v-2v2h12q-8 0 -12 2 v-2v2q-2 0 -2 -2q-4 2 -11.5 2t-13.5 2q-18 2 -35.5 3t-33.5 1l12 -4q14 -4 27.5 -6t27.5 -7h14q13 0 19 -2zM209 543q4 10 6 21t2 18q-2 -6 -4 -16.5t-6 -20.5q-4 -14 -11.5 -27.5t-15.5 -30.5q-16 -29 -34.5 -60.5t-34.5 -72.5q18 41 36.5 71t34.5 60q8 16 14.5 30 t12.5 28zM338 649q0 -2 -1 -2t-1 -2q8 -25 12 -49q2 -37 -6 -63.5t-18 -49.5q-16 -33 -32 -62.5t-28 -58.5q-6 -16 -11 -29.5t-9 -23.5q-2 -12 -4 -27.5t-4 -29.5q2 10 3 17t3 18q2 4 2 8t2 8t2 6t2 6q8 25 26 60q16 35 34 68.5t32 80.5q6 23 9 53.5t-11 69.5q-2 0 -2 2z M315 678q0 2 2 4v2q-2 -2 -2 -4v-2zM303 893q-12 35 -23.5 67.5t-15.5 57.5q2 -25 13.5 -56.5t23.5 -66.5q6 -18 12 -36.5t11 -39.5q6 -20 9 -43.5t-1 -52.5q4 29 1 52.5t-7 43.5t-10.5 39t-12.5 35z" />
<glyph unicode="|" horiz-adv-x="409" d="M35 948q-2 -6 -5 -4t-5 2q0 -74 -2.5 -160t-5.5 -174t-5 -174t-4 -162q0 117 1 263.5t3 299t6.5 298t8.5 262.5v53q14 41 20 79t8 79q10 -6 24.5 -2t26 2t18.5 -15.5t1 -52.5h11t11 -2q4 16 9 29q12 31 30.5 50t35 22.5t31.5 -12t21 -52.5q8 -45 7.5 -115.5t-4 -147.5 t-6.5 -152t-1 -130q2 -80 1 -158.5t-11 -156.5q-6 -55 -9 -138t-5 -171.5t-4 -171t-9 -136.5q-2 -20 1.5 -44.5t6.5 -49t4 -44t-3 -30.5q-4 -14 -12.5 -17t-18.5 -3q-4 33 -6 78t-4 93t-3 93t-1 76q0 39 2 92t4 108.5t6 108.5t8 92q-6 -39 -10 -91t-7 -107.5t-3 -109.5v-93 v-76v-93t1 -93t1 -76q-8 2 -16.5 2t-16.5 -4q2 -6 2 -14v-14.5t2 -12.5q-2 -8 -10 -21q-16 -25 -39 -22.5t-43 18.5l-21 21l2 20q0 47 -1 106.5t-2 122t-2 124t3 112.5q2 35 4 86t2 105.5v105.5v86q-6 -84 -8 -195.5t-3 -228t-3 -229.5t-8 -195q-10 16 -19.5 35t-11.5 41 q0 29 -1 70t-1 84v83v68h23q-10 76 -7 164t8 177t8 176t-5 163z" />
<glyph unicode="}" horiz-adv-x="614" d="M381 805q-10 -20 -18.5 -38.5t-12.5 -29.5h10h7q10 0 18 1t16 -1q16 0 21 -2q18 -4 24 -8q12 -6 14.5 -13t-1.5 -18q-14 2 -28.5 3t-29.5 3h-34q-16 0 -25 -2h2q4 -2 10 -2t13 -2h18t18 -2h41v-6q6 0 11 -2q-2 -4 -4 -10t-2 -12q4 0 15 2t17 2q6 -2 11.5 -4t9.5 -5 q23 -16 20.5 -35.5t-14.5 -37.5q-4 -4 -9 -10.5t-10 -10.5h-4l-2 -2q-12 -8 -20 -12q6 0 8 -2q-16 -10 -34.5 -18.5t-43.5 -8.5q-12 0 -20 2q4 -6 5 -12t5 -12q8 -20 18.5 -43t20.5 -47q6 -14 11 -28.5t11 -31.5q2 -4 2 -8t3 -8q2 -4 2 -10q0 -2 1 -4.5t1 -0.5v-4l6 -26 q10 -55 12 -113q4 -57 0 -116.5t-22 -122.5q-20 -63 -62.5 -124t-107.5 -100q-10 -6 -30 -15t-30 -13q-49 -8 -93 -10.5t-85 -4.5q4 10 -1 23.5t-3 23.5t14 16.5t49 8.5q0 4 -1 10t-1 10q-10 0 -26 5q-27 8 -42.5 22t-19.5 29q-12 37 43 57q31 8 59.5 18.5t51 24.5t40 36.5 t23.5 59.5q12 47 11.5 105.5t-5.5 120.5q0 14 -2 22v17q0 6 -2 14t-6 18q-8 20 -17 44t-20 51q-10 27 -19 55t-13 67q-2 20 0 44t12 51q-4 4 -4 6q-16 29 -21.5 57.5t-5.5 50.5h21q0 29 5 51.5t11 42.5q6 18 13.5 35t15.5 33q14 31 28.5 57.5t22.5 47.5l4 8v2q0 4 2 4v8 q4 8 8 29q4 14 5 27.5t3 29.5q2 29 1 57.5t-11 55.5q-2 -6 -10 -2q4 -27 5 -53.5t-1 -55.5q-2 -14 -3 -27.5t-5 -27.5q0 -8 -1 -14.5t-3 -14.5q-2 -4 -2 -7t-2 -7q0 -4 -2 -6q-6 -18 -19.5 -45t-27.5 -58q-14 -25 -31 -65q-8 -18 -14.5 -40t-10.5 -50q6 45 17.5 73.5 t21.5 57.5q12 25 22.5 47t20.5 43q4 10 8 19t6 18q0 2 1.5 3t1.5 3v2v2v2l6 22q4 23 6 43.5t2 42.5q6 90 -19 158q-20 63 -71 96q-14 8 -27 13q-16 20 -43 28.5t-55 10.5q4 8 1 22.5t-1 24.5t13 15t44 -1q0 4 1 10t1 11q-6 2 -22 10q-25 12 -42.5 25.5t-23.5 29.5t6.5 32.5 t57.5 20.5q47 4 107.5 -9t119.5 -54q29 -23 54.5 -48.5t43.5 -54.5q20 -29 34.5 -59.5t27.5 -58.5q29 -90 30.5 -174t-18.5 -162q-2 -6 -4 -13.5t-4 -13.5q-2 -8 -3 -13t-5 -18q-6 -18 -12.5 -32.5t-12.5 -28.5q-14 -27 -25.5 -48t-21.5 -44zM223 418q12 -35 23.5 -68 t15.5 -57q-2 25 -13 57.5t-24 67.5q-6 16 -12 34.5t-10 39.5q-6 20 -9.5 43.5t1.5 52.5q-4 -29 -1 -51.5t7 -44.5q4 -20 10 -39t12 -35zM209 629q2 0 2 4q0 -2 -1 -2t-1 -2zM283 1001q2 12 4 27.5t4 30.5q-2 -10 -3 -17.5t-3 -17.5q-4 -8 -4 -16q-2 -4 -2 -6.5t-3 -6.5 q-4 -12 -11 -27.5t-15 -31.5q-16 -35 -33.5 -68.5t-32.5 -81.5q-6 -23 -9 -53.5t11 -68.5h2l2 2q-6 12 -8 25.5t-4 23.5q-2 37 6.5 63.5t18.5 50.5q16 31 31.5 62t27.5 59q6 14 11.5 27.5t9.5 23.5zM324 565v2v-2zM401 324q8 -35 15 -70q-2 10 -3 19.5t-3 19.5q0 4 -1 10 t-1 10l-7 25q-6 23 -13 41t-15 37q-12 29 -24.5 58.5t-18.5 53.5h-4q2 -4 2 -8t2 -8q6 -27 18 -56.5t27 -60.5q6 -16 13 -33.5t13 -37.5zM389 475q-4 12 -8 24.5t-8 24.5h-15q4 -10 9.5 -23.5t9.5 -25.5q12 -29 24.5 -59.5t24.5 -71.5q2 -6 3 -11t1 -14l2 -6v-2l2 -8 q0 -14 4 -35q2 -18 3 -35.5t3 -35.5q4 -35 6.5 -72t2.5 -76q4 4 5 3t5 -3q6 76 0 150q-2 16 -4 34.5t-4 34.5q-2 10 -3 17.5t-3 17.5q-2 4 -2.5 8t-2.5 8q0 8 -4 25q-14 41 -27.5 71.5t-23.5 59.5zM360 569q-20 0 -32 -4q12 -4 18 -4l-2 2h21v-4v2v-2h-15q10 0 15 -2v2v-2v2 q6 -2 13 -2t13 -2q18 -2 35.5 -3t34.5 -1l-15 4q-27 8 -53 12h-14q-4 0 -9.5 1t-9.5 1zM346 823q16 31 34.5 61.5t35.5 71.5q-18 -41 -37 -70.5t-35 -60.5q-8 -16 -15 -29.5t-12 -27.5q-8 -18 -8 -39q0 12 10 37q4 14 11.5 27.5t15.5 29.5z" />
<glyph unicode="~" horiz-adv-x="1095" d="M721 305q-33 2 -60.5 8t-54.5 15q-45 14 -90 34q23 -12 48.5 -23t53.5 -22q29 -10 66 -15t80 5q41 8 78 39q29 23 53 55q23 29 38 55.5t32 53.5q6 -14 8 -30.5t-6 -33.5q-20 -45 -52 -84q-16 -23 -38.5 -43t-53.5 -36l-5 10l-5 10q-39 -25 -80 -29t-74 0 q-33 6 -58.5 17.5t-47.5 21.5q-43 23 -82 41.5t-80 20.5q2 -4 -2 -13q35 -8 73 -25.5t85 -35.5q23 -10 48.5 -19.5t57.5 -17.5q31 -6 74 -6t86 21q-33 -16 -66.5 -20.5t-62.5 -0.5q-29 2 -52.5 8t-45.5 13q-41 14 -75 28.5t-65 26.5q-29 12 -55 20t-45 11q-20 0 -27 -3 l-6 -3t-6 -5l-8 -8q-18 0 -31.5 -13.5t-21.5 -29.5q-8 6 -21.5 10t-25 9.5t-13.5 15.5t13 29q-4 2 -10.5 5t-10.5 5q-6 -6 -14 -10q-41 -25 -72 -21q-20 4 -32.5 18.5t-6.5 47.5q8 35 34 74.5t73 74.5q49 35 114 47q29 6 57.5 7t53.5 -1q72 -10 124 -29.5t93 -45.5 q27 -16 52.5 -28.5t41.5 -16.5q10 -2 15 -7q6 -6 18 2q6 2 10 11.5t7.5 20.5t7.5 19.5t12 12.5q12 6 33 0q-10 -35 -26.5 -62.5t-33.5 -37.5q-16 -10 -49 0q-16 4 -33.5 13t-38.5 19q18 -12 36 -22t34 -14q31 -8 51 4q18 6 37 33.5t33 60.5q8 -4 15 -6t18 -2q0 4 2 8t2 7 t2 7q4 4 16 8q23 10 42.5 2t33.5 -24q8 -8 14 -21l-6 -12q-16 -29 -30.5 -59.5t-38.5 -63.5q-25 -35 -64 -59q-47 -27 -94 -27z" />
</font>
</defs>
</svg>
