<?xml version="1.0" standalone="no"?>
<!DOCTYPE svg PUBLIC "-//W3C//DTD SVG 20010904//EN"
 "http://www.w3.org/TR/2001/REC-SVG-20010904/DTD/svg10.dtd">
<svg version="1.0" xmlns="http://www.w3.org/2000/svg"
 width="512.000000pt" height="512.000000pt" viewBox="0 0 512.000000 512.000000"
 preserveAspectRatio="xMidYMid meet">

<g transform="translate(0.000000,512.000000) scale(0.100000,-0.100000)"
fill="#000000" stroke="none">
<path d="M3592 4269 c-355 -32 -657 -291 -753 -645 -31 -113 -31 -325 0 -438
172 -634 952 -863 1429 -421 417 387 362 1053 -113 1370 -156 104 -359 152
-563 134z m140 -286 c11 -10 18 -30 18 -54 0 -35 2 -38 46 -53 63 -21 135 -69
178 -117 42 -45 43 -57 15 -93 -27 -34 -76 -35 -116 -3 -38 32 -106 77 -115
77 -5 0 -8 -60 -8 -134 l0 -133 44 -17 c129 -49 202 -203 161 -341 -13 -46
-28 -70 -73 -115 -33 -32 -73 -62 -95 -69 -34 -11 -37 -16 -37 -48 0 -47 -24
-73 -67 -73 -46 0 -73 30 -73 79 0 33 -4 40 -26 45 -41 11 -105 54 -166 114
-65 63 -76 103 -38 137 36 33 73 23 135 -34 99 -90 95 -92 95 59 l0 130 -44
21 c-63 29 -129 104 -151 168 -44 133 24 287 151 342 40 17 44 21 44 54 0 45
29 75 72 75 17 0 40 -7 50 -17z"/>
<path d="M3588 3713 c-53 -61 -50 -156 6 -202 14 -12 16 -2 16 103 0 64 -2
116 -3 116 -2 0 -11 -8 -19 -17z"/>
<path d="M3761 3195 l0 -120 29 33 c26 28 30 40 30 87 0 47 -4 59 -30 87 l-29
33 0 -120z"/>
<path d="M1660 2789 c-41 -10 -408 -114 -816 -230 l-741 -211 22 -76 c13 -42
82 -282 155 -532 73 -250 133 -456 134 -457 1 -2 223 60 492 137 360 103 494
138 509 132 11 -5 232 -140 491 -300 259 -159 493 -298 520 -307 71 -25 195
-30 279 -12 82 18 2029 569 2095 594 60 22 134 93 167 162 24 49 28 68 28 146
0 73 -5 100 -24 143 -46 102 -154 171 -270 173 -30 0 -225 -50 -556 -143
l-510 -143 0 -100 c0 -91 -3 -106 -31 -166 -55 -116 -142 -191 -258 -224 -84
-24 -203 -17 -276 17 -59 26 -579 315 -594 329 -9 8 19 85 35 95 4 2 137 -68
296 -157 158 -89 305 -168 327 -175 128 -46 293 22 357 147 62 123 31 278 -69
343 -93 61 -1433 802 -1477 818 -67 23 -189 22 -285 -3z"/>
</g>
</svg>
