<?xml version="1.0" standalone="no"?>
<!DOCTYPE svg PUBLIC "-//W3C//DTD SVG 20010904//EN"
 "http://www.w3.org/TR/2001/REC-SVG-20010904/DTD/svg10.dtd">
<svg version="1.0" xmlns="http://www.w3.org/2000/svg"
 width="512.000000pt" height="512.000000pt" viewBox="0 0 512.000000 512.000000"
 preserveAspectRatio="xMidYMid meet">

<g transform="translate(0.000000,512.000000) scale(0.100000,-0.100000)"
fill="#000000" stroke="none">
<path d="M2130 5113 c-8 -3 -23 -12 -32 -21 -17 -14 -18 -70 -18 -904 l0 -888
-304 0 c-256 0 -305 -2 -316 -15 -18 -21 -6 -56 38 -106 21 -24 253 -303 515
-620 262 -317 490 -588 507 -603 21 -18 43 -26 68 -26 31 0 44 8 92 58 62 64
234 282 550 697 117 154 259 339 314 410 112 146 130 176 121 204 -11 35 -58
41 -336 41 l-269 0 0 849 c0 566 -3 858 -10 878 -6 17 -22 35 -36 42 -26 11
-853 15 -884 4z"/>
<path d="M84 1847 c-3 -8 -4 -364 -2 -793 l3 -779 23 -58 c30 -73 104 -149
179 -185 l58 -27 2215 0 2215 0 57 27 c109 51 180 147 199 270 6 38 8 363 7
808 l-3 745 -342 3 -343 2 0 -585 0 -585 -1790 0 -1790 0 0 585 0 585 -340 0
c-274 0 -342 -3 -346 -13z"/>
</g>
</svg>
