<?xml version="1.0" standalone="no"?>
<!DOCTYPE svg PUBLIC "-//W3C//DTD SVG 20010904//EN"
 "http://www.w3.org/TR/2001/REC-SVG-20010904/DTD/svg10.dtd">
<svg version="1.0" xmlns="http://www.w3.org/2000/svg"
 width="128.000000pt" height="128.000000pt" viewBox="0 0 128.000000 128.000000"
 preserveAspectRatio="xMidYMid meet">

<g transform="translate(0.000000,128.000000) scale(0.100000,-0.100000)"
fill="#000000" stroke="none">
<path d="M73 1265 c-85 -37 -94 -161 -14 -208 17 -10 70 -20 132 -27 126 -12
168 -22 270 -61 220 -85 423 -288 508 -508 39 -102 49 -144 61 -270 12 -117
28 -153 78 -177 69 -33 153 13 168 92 4 21 2 84 -4 139 -44 394 -293 746 -647
916 -200 96 -459 145 -552 104z"/>
<path d="M70 802 c-74 -36 -89 -132 -30 -191 25 -25 41 -30 97 -36 251 -24
414 -187 438 -438 6 -56 11 -72 36 -97 16 -16 45 -32 63 -35 42 -8 99 15 121
49 44 67 22 225 -52 376 -39 79 -61 109 -132 181 -72 71 -102 93 -181 131
-144 71 -290 95 -360 60z"/>
<path d="M105 334 c-67 -35 -97 -83 -97 -154 0 -166 205 -232 305 -99 40 54
40 144 -1 198 -46 62 -144 88 -207 55z"/>
</g>
</svg>
