<?xml version="1.0" standalone="no"?>
<!DOCTYPE svg PUBLIC "-//W3C//DTD SVG 20010904//EN"
 "http://www.w3.org/TR/2001/REC-SVG-20010904/DTD/svg10.dtd">
<svg version="1.0" xmlns="http://www.w3.org/2000/svg"
 width="449.000000pt" height="386.000000pt" viewBox="0 0 449.000000 386.000000"
 preserveAspectRatio="xMidYMid meet">

<g transform="translate(0.000000,386.000000) scale(0.100000,-0.100000)"
fill="#000000" stroke="none">
<path d="M930 3286 l0 -156 -165 0 -165 0 0 -140 0 -140 -52 0 c-67 0 -128
-28 -159 -71 l-24 -34 -3 -963 c-2 -867 -1 -965 14 -993 21 -42 62 -76 104
-89 22 -6 247 -10 596 -10 l561 0 64 -65 c107 -110 84 -105 479 -105 393 0
365 -6 475 101 l71 68 579 3 c578 3 580 3 615 25 20 12 46 40 58 62 l22 39 -2
964 -3 963 -24 34 c-31 43 -92 71 -158 71 l-53 0 0 140 0 140 -165 0 -165 0 0
155 0 155 -102 0 c-195 0 -473 -55 -665 -131 -180 -71 -372 -192 -447 -282
l-34 -41 -67 67 c-217 216 -627 368 -1037 384 l-148 6 0 -157z m310 -26 c338
-44 675 -202 808 -380 l42 -55 0 -933 c0 -930 0 -933 -20 -922 -11 6 -20 15
-20 20 0 12 -165 143 -240 192 -183 118 -469 225 -652 244 l-66 7 0 923 0 922
31 -3 c18 -3 70 -9 117 -15z m2022 -842 c0 -469 -1 -883 -1 -919 l-1 -66 -62
-7 c-276 -30 -623 -194 -858 -405 l-70 -62 0 933 c0 850 1 936 16 958 126 189
462 356 824 409 79 12 142 18 149 14 2 -1 3 -386 3 -855z m-2330 -300 l3 -843
120 -6 c189 -10 324 -42 475 -113 64 -30 190 -104 190 -112 0 -2 -214 -4 -475
-4 l-475 0 0 960 0 960 80 0 80 0 2 -842z m2658 -118 l0 -960 -477 0 c-544 0
-511 -7 -348 83 161 90 328 135 528 144 l137 6 0 843 0 844 80 0 80 0 0 -960z"/>
</g>
</svg>
